{"glyphs":{"0":{"ha":646,"x_min":36,"x_max":608,"o":"m 322 -10 q 169 41 233 -10 q 70 190 104 93 q 36 422 36 288 q 70 654 36 557 q 169 802 104 751 q 322 854 233 854 q 475 802 411 854 q 573 654 539 751 q 608 422 608 557 q 573 190 608 288 q 475 41 539 93 q 322 -10 411 -10 m 322 132 q 400 205 373 132 q 427 422 427 279 q 400 639 427 565 q 322 713 373 713 q 244 639 271 713 q 217 422 217 565 q 244 205 217 279 q 322 132 271 132 z "},"1":{"ha":646,"x_min":45,"x_max":591,"o":"m 87 0 q 59 14 68 0 q 51 60 51 28 l 51 81 q 59 127 51 113 q 87 141 68 141 l 248 141 l 248 683 l 83 659 q 54 691 63 659 q 45 760 45 724 q 53 782 45 774 q 76 793 61 791 l 376 849 q 409 840 391 849 q 426 820 426 830 l 426 141 l 555 141 q 583 126 574 141 q 591 81 591 112 l 591 60 q 583 15 591 29 q 555 0 574 0 l 87 0 z "},"2":{"ha":646,"x_min":40,"x_max":590,"o":"m 74 0 q 51 38 61 0 q 40 106 40 76 q 43 125 40 118 l 349 498 q 395 614 395 555 q 363 686 395 661 q 282 711 332 711 q 223 701 249 711 q 172 674 198 691 q 155 664 163 668 q 141 660 146 660 q 107 673 123 660 q 82 707 92 687 q 73 743 73 726 q 108 802 73 777 q 198 841 143 827 q 313 854 254 854 q 455 824 395 854 q 545 740 514 793 q 575 618 575 687 q 556 513 575 562 q 502 421 536 463 l 275 141 l 553 141 q 581 126 572 141 q 590 81 590 112 l 590 60 q 581 15 590 29 q 553 0 572 0 l 74 0 z "},"3":{"ha":646,"x_min":43,"x_max":578,"o":"m 305 -10 q 192 0 253 -10 q 87 33 131 10 q 43 89 43 55 q 53 123 43 101 q 76 163 62 146 q 103 180 90 180 q 134 169 111 180 q 200 142 167 153 q 277 132 234 132 q 364 162 332 132 q 397 249 397 193 q 363 341 397 310 q 256 372 330 372 l 222 372 q 194 386 203 372 q 186 431 186 400 l 186 454 q 194 499 186 485 q 222 514 203 514 l 245 514 q 336 541 302 514 q 369 614 369 568 q 344 685 369 659 q 272 711 319 711 q 205 704 231 711 q 155 684 180 696 q 141 677 147 680 q 130 674 134 674 q 104 690 118 674 q 79 728 90 706 q 69 766 69 749 q 102 814 69 795 q 188 844 134 834 q 303 854 241 854 q 434 828 378 854 q 520 754 490 802 q 550 642 550 707 q 520 535 550 581 q 437 467 490 488 l 437 462 q 543 379 507 435 q 578 246 578 322 q 543 110 578 168 q 447 21 509 52 q 305 -10 385 -10 z "},"4":{"ha":646,"x_min":14,"x_max":634,"o":"m 446 -2 q 374 36 374 -2 l 374 172 l 58 172 q 38 192 48 172 q 21 240 28 212 q 14 283 14 267 q 16 296 14 292 l 374 824 q 401 842 384 838 q 448 847 418 847 l 480 847 q 535 837 517 847 q 552 808 552 827 l 552 313 l 598 313 q 626 298 617 313 q 634 252 634 284 l 634 231 q 626 186 634 200 q 598 172 617 172 l 552 172 l 552 36 q 480 -2 552 -2 l 446 -2 m 374 313 l 374 589 l 369 590 l 193 313 l 374 313 z "},"5":{"ha":646,"x_min":46,"x_max":591,"o":"m 282 -10 q 161 2 216 -10 q 77 34 107 14 q 46 77 46 54 q 57 112 46 89 q 83 154 68 136 q 111 172 98 172 q 133 165 116 172 q 202 141 168 151 q 281 132 236 132 q 375 164 340 132 q 410 256 410 197 q 375 356 410 322 q 259 390 340 390 l 128 390 q 93 401 102 390 q 83 437 83 412 l 106 796 q 119 832 108 821 q 157 844 131 844 l 513 844 q 540 829 532 844 q 549 783 549 815 l 549 751 q 540 715 549 726 q 513 703 532 703 l 269 703 l 257 531 l 288 531 q 513 470 435 531 q 591 260 591 408 q 547 104 591 165 q 432 17 502 43 q 282 -10 361 -10 z "},"6":{"ha":646,"x_min":40,"x_max":608,"o":"m 324 -10 q 186 22 251 -10 q 81 124 122 54 q 40 305 40 195 q 132 632 40 511 q 328 801 224 753 q 467 849 431 849 q 499 830 486 849 q 520 788 513 812 q 527 749 527 764 q 524 731 527 736 q 511 724 521 726 q 350 634 420 696 q 250 486 279 572 q 311 510 281 503 q 370 516 340 516 q 476 491 422 516 q 569 408 531 466 q 608 260 608 351 q 567 107 608 168 q 461 18 526 47 q 324 -10 397 -10 m 326 132 q 377 148 354 132 q 414 192 401 163 q 428 256 428 220 q 399 343 428 311 q 318 375 370 375 q 223 346 273 375 q 222 290 222 328 q 251 169 222 207 q 326 132 279 132 z "},"7":{"ha":646,"x_min":46,"x_max":596,"o":"m 162 -2 q 90 21 90 -2 q 98 43 90 29 l 397 703 l 82 703 q 55 718 63 703 q 46 764 46 732 l 46 783 q 55 829 46 815 q 82 844 63 844 l 560 844 q 575 825 566 844 q 590 780 583 806 q 596 736 596 754 q 593 720 596 728 l 277 22 q 253 3 270 8 q 206 -2 235 -2 l 162 -2 z "},"8":{"ha":646,"x_min":35,"x_max":610,"o":"m 327 -10 q 162 24 228 -10 q 66 115 97 58 q 35 243 35 172 q 69 378 35 323 q 157 452 104 432 q 91 522 115 481 q 68 626 68 564 q 98 739 68 687 q 187 822 127 791 q 333 854 247 854 q 465 825 409 854 q 552 749 522 797 q 582 644 582 701 q 555 532 582 573 q 477 464 528 491 q 610 231 610 405 q 581 116 610 172 q 488 25 551 61 q 327 -10 424 -10 m 344 521 q 393 571 376 543 q 409 632 409 600 q 385 691 409 669 q 327 713 361 713 q 268 691 292 713 q 244 632 244 670 q 269 565 244 589 q 344 521 294 541 m 324 132 q 381 148 357 132 q 417 190 406 164 q 429 241 429 215 q 410 314 429 286 q 361 359 391 342 q 281 393 331 375 q 232 336 248 370 q 215 254 215 303 q 244 165 215 198 q 324 132 273 132 z "},"9":{"ha":646,"x_min":35,"x_max":603,"o":"m 176 -6 q 144 13 157 -6 q 123 55 130 31 q 116 94 116 79 q 119 112 116 107 q 132 119 121 117 q 294 209 223 147 q 393 357 364 271 q 332 333 361 340 q 273 327 303 327 q 166 352 221 327 q 73 434 112 377 q 35 582 35 492 q 75 735 35 675 q 181 824 116 796 q 318 852 245 852 q 456 821 392 852 q 562 718 521 789 q 603 538 603 648 q 511 211 603 332 q 315 42 418 90 q 176 -6 212 -6 m 324 468 q 420 496 368 468 q 421 552 421 515 q 393 674 421 636 q 317 711 364 711 q 266 695 289 711 q 229 651 242 680 q 215 587 215 623 q 244 500 215 532 q 324 468 273 468 z "},"\r":{"ha":290,"x_min":0,"x_max":0,"o":""}," ":{"ha":290,"x_min":0,"x_max":0,"o":""},"A":{"ha":739,"x_min":0,"x_max":739,"o":"m 74 -2 q 0 24 0 -2 q 5 46 0 32 l 271 821 q 339 847 280 847 l 401 847 q 470 821 460 847 l 736 46 q 739 24 739 33 q 725 4 739 11 q 679 -2 710 -2 l 626 -2 q 580 4 597 -2 q 559 23 563 9 l 510 170 l 226 170 l 177 23 q 121 -2 170 -2 l 74 -2 m 458 330 l 390 544 q 379 581 384 560 q 372 621 375 602 l 367 621 l 364 606 q 349 544 357 566 l 277 330 l 458 330 z "},"Á":{"ha":739,"x_min":0,"x_max":739,"o":"m 0 0 m 74 -2 q 0 24 0 -2 q 5 46 0 32 l 271 821 q 339 847 280 847 l 401 847 q 470 821 460 847 l 736 46 q 739 24 739 33 q 725 4 739 11 q 679 -2 710 -2 l 626 -2 q 580 4 597 -2 q 559 23 563 9 l 510 170 l 226 170 l 177 23 q 121 -2 170 -2 l 74 -2 m 458 330 l 390 544 q 379 581 384 560 q 372 621 375 602 l 367 621 l 364 606 q 349 544 357 566 l 277 330 l 458 330 m 324 906 q 295 910 302 906 q 287 924 287 914 q 295 945 287 930 q 317 984 304 961 q 365 1065 347 1034 q 401 1091 375 1084 q 467 1098 427 1098 q 522 1094 505 1098 q 539 1081 539 1090 q 533 1066 539 1074 q 496 1025 527 1059 l 414 937 q 381 915 401 923 q 324 906 362 906 z "},"Ă":{"ha":739,"x_min":0,"x_max":739,"o":"m 0 0 m 74 -2 q 0 24 0 -2 q 5 46 0 32 l 271 821 q 339 847 280 847 l 401 847 q 470 821 460 847 l 736 46 q 739 24 739 33 q 725 4 739 11 q 679 -2 710 -2 l 626 -2 q 580 4 597 -2 q 559 23 563 9 l 510 170 l 226 170 l 177 23 q 121 -2 170 -2 l 74 -2 m 458 330 l 390 544 q 379 581 384 560 q 372 621 375 602 l 367 621 l 364 606 q 349 544 357 566 l 277 330 l 458 330 m 371 906 q 280 925 320 906 q 217 976 239 945 q 194 1042 194 1007 q 205 1066 194 1058 q 236 1075 216 1075 q 258 1070 250 1075 q 276 1053 266 1065 q 297 1034 288 1041 q 325 1021 307 1027 q 371 1016 342 1016 q 419 1022 401 1016 q 447 1035 438 1027 q 469 1055 456 1042 q 485 1070 477 1065 q 507 1075 493 1075 q 537 1066 526 1075 q 548 1042 548 1058 q 525 976 548 1007 q 462 925 503 945 q 371 906 421 906 z "},"Ắ":{"ha":739,"x_min":0,"x_max":739,"o":"m 347 1047 q 327 1051 332 1047 q 321 1065 321 1055 q 327 1084 321 1070 q 340 1121 332 1099 l 363 1181 q 396 1207 373 1200 q 454 1214 419 1214 q 491 1208 479 1214 q 503 1185 503 1202 q 487 1155 503 1177 q 413 1065 471 1134 q 390 1052 405 1057 q 347 1047 376 1047 m 371 906 q 280 924 320 906 q 217 970 239 942 q 194 1030 194 999 q 205 1056 194 1046 q 236 1065 216 1065 q 258 1059 250 1065 q 276 1042 266 1054 q 311 1014 291 1024 q 371 1004 330 1004 q 420 1010 401 1004 q 449 1023 439 1015 q 469 1045 458 1031 q 487 1060 479 1056 q 507 1065 494 1065 q 537 1056 526 1065 q 548 1030 548 1046 q 525 970 548 999 q 462 924 503 942 q 371 906 421 906 m 74 -2 q 0 24 0 -2 q 5 46 0 32 l 271 821 q 339 847 280 847 l 401 847 q 470 821 460 847 l 736 46 q 739 24 739 33 q 725 4 739 11 q 679 -2 710 -2 l 626 -2 q 580 4 597 -2 q 559 23 563 9 l 510 170 l 226 170 l 177 23 q 121 -2 170 -2 l 74 -2 m 458 330 l 390 544 q 379 581 384 560 q 372 621 375 602 l 367 621 l 364 606 q 349 544 357 566 l 277 330 l 458 330 z "},"Ặ":{"ha":739,"x_min":0,"x_max":739,"o":"m 0 0 m 74 -2 q 0 24 0 -2 q 5 46 0 32 l 271 821 q 339 847 280 847 l 401 847 q 470 821 460 847 l 736 46 q 739 24 739 33 q 725 4 739 11 q 679 -2 710 -2 l 626 -2 q 580 4 597 -2 q 559 23 563 9 l 510 170 l 226 170 l 177 23 q 121 -2 170 -2 l 74 -2 m 458 330 l 390 544 q 379 581 384 560 q 372 621 375 602 l 367 621 l 364 606 q 349 544 357 566 l 277 330 l 458 330 m 371 906 q 280 925 320 906 q 217 976 239 945 q 194 1042 194 1007 q 205 1066 194 1058 q 236 1075 216 1075 q 258 1070 250 1075 q 276 1053 266 1065 q 297 1034 288 1041 q 325 1021 307 1027 q 371 1016 342 1016 q 419 1022 401 1016 q 447 1035 438 1027 q 469 1055 456 1042 q 485 1070 477 1065 q 507 1075 493 1075 q 537 1066 526 1075 q 548 1042 548 1058 q 525 976 548 1007 q 462 925 503 945 q 371 906 421 906 z "},"Ằ":{"ha":739,"x_min":0,"x_max":739,"o":"m 394 1046 q 347 1054 363 1046 q 319 1076 331 1062 l 271 1139 q 238 1181 244 1173 q 233 1196 233 1190 q 247 1209 233 1206 q 289 1213 260 1213 q 392 1181 377 1213 q 431 1063 431 1082 q 424 1049 431 1053 q 394 1046 416 1046 m 371 906 q 280 924 320 906 q 217 970 239 942 q 194 1030 194 999 q 205 1056 194 1046 q 236 1065 216 1065 q 258 1059 250 1065 q 276 1042 266 1054 q 311 1014 291 1024 q 371 1004 330 1004 q 420 1010 401 1004 q 449 1023 439 1015 q 469 1045 458 1031 q 487 1060 479 1056 q 507 1065 494 1065 q 537 1056 526 1065 q 548 1030 548 1046 q 525 970 548 999 q 462 924 503 942 q 371 906 421 906 m 74 -2 q 0 24 0 -2 q 5 46 0 32 l 271 821 q 339 847 280 847 l 401 847 q 470 821 460 847 l 736 46 q 739 24 739 33 q 725 4 739 11 q 679 -2 710 -2 l 626 -2 q 580 4 597 -2 q 559 23 563 9 l 510 170 l 226 170 l 177 23 q 121 -2 170 -2 l 74 -2 m 458 330 l 390 544 q 379 581 384 560 q 372 621 375 602 l 367 621 l 364 606 q 349 544 357 566 l 277 330 l 458 330 z "},"Ẳ":{"ha":739,"x_min":0,"x_max":739,"o":"m 375 1053 q 337 1060 351 1053 q 323 1078 323 1067 q 329 1087 323 1082 q 345 1097 336 1093 q 375 1114 367 1107 q 382 1131 382 1120 q 375 1146 382 1140 q 357 1152 367 1152 q 329 1147 340 1152 q 307 1136 317 1143 q 300 1133 304 1135 q 294 1131 296 1131 q 280 1140 289 1131 q 264 1161 271 1149 q 257 1181 257 1173 q 272 1197 257 1190 q 310 1210 288 1205 q 354 1215 333 1215 q 436 1194 406 1215 q 466 1136 466 1172 q 459 1106 466 1120 q 434 1080 452 1093 q 406 1061 423 1070 q 375 1053 389 1053 m 371 906 q 280 924 320 906 q 217 970 239 942 q 194 1030 194 999 q 205 1056 194 1046 q 236 1065 216 1065 q 258 1059 250 1065 q 276 1042 266 1054 q 311 1014 291 1024 q 371 1004 330 1004 q 420 1010 401 1004 q 449 1023 439 1015 q 469 1045 458 1031 q 487 1060 479 1056 q 507 1065 494 1065 q 537 1056 526 1065 q 548 1030 548 1046 q 525 970 548 999 q 462 924 503 942 q 371 906 421 906 m 74 -2 q 0 24 0 -2 q 5 46 0 32 l 271 821 q 339 847 280 847 l 401 847 q 470 821 460 847 l 736 46 q 739 24 739 33 q 725 4 739 11 q 679 -2 710 -2 l 626 -2 q 580 4 597 -2 q 559 23 563 9 l 510 170 l 226 170 l 177 23 q 121 -2 170 -2 l 74 -2 m 458 330 l 390 544 q 379 581 384 560 q 372 621 375 602 l 367 621 l 364 606 q 349 544 357 566 l 277 330 l 458 330 z "},"Ẵ":{"ha":739,"x_min":0,"x_max":739,"o":"m 181 1124 q 157 1156 157 1132 q 160 1173 157 1164 q 203 1233 172 1208 q 279 1257 235 1257 q 313 1253 293 1257 q 364 1238 333 1248 q 403 1228 384 1233 q 433 1222 422 1223 q 469 1242 454 1222 q 485 1258 478 1253 q 500 1262 492 1262 q 514 1259 508 1262 l 526 1256 q 551 1223 551 1248 q 548 1206 551 1217 q 504 1146 536 1171 q 429 1122 473 1122 q 395 1126 415 1122 q 344 1141 375 1131 q 275 1158 294 1156 q 238 1138 254 1158 q 207 1117 223 1117 q 193 1120 199 1117 l 181 1124 m 371 906 q 280 924 320 906 q 217 970 239 942 q 194 1030 194 999 q 205 1056 194 1046 q 236 1065 216 1065 q 258 1059 250 1065 q 276 1042 266 1054 q 311 1014 291 1024 q 371 1004 330 1004 q 420 1010 401 1004 q 449 1023 439 1015 q 469 1045 458 1031 q 487 1060 479 1056 q 507 1065 494 1065 q 537 1056 526 1065 q 548 1030 548 1046 q 525 970 548 999 q 462 924 503 942 q 371 906 421 906 m 74 -2 q 0 24 0 -2 q 5 46 0 32 l 271 821 q 339 847 280 847 l 401 847 q 470 821 460 847 l 736 46 q 739 24 739 33 q 725 4 739 11 q 679 -2 710 -2 l 626 -2 q 580 4 597 -2 q 559 23 563 9 l 510 170 l 226 170 l 177 23 q 121 -2 170 -2 l 74 -2 m 458 330 l 390 544 q 379 581 384 560 q 372 621 375 602 l 367 621 l 364 606 q 349 544 357 566 l 277 330 l 458 330 z "},"Â":{"ha":739,"x_min":0,"x_max":739,"o":"m 0 0 m 74 -2 q 0 24 0 -2 q 5 46 0 32 l 271 821 q 339 847 280 847 l 401 847 q 470 821 460 847 l 736 46 q 739 24 739 33 q 725 4 739 11 q 679 -2 710 -2 l 626 -2 q 580 4 597 -2 q 559 23 563 9 l 510 170 l 226 170 l 177 23 q 121 -2 170 -2 l 74 -2 m 458 330 l 390 544 q 379 581 384 560 q 372 621 375 602 l 367 621 l 364 606 q 349 544 357 566 l 277 330 l 458 330 m 229 903 q 211 905 216 903 q 205 914 205 908 q 212 932 205 923 l 290 1055 q 316 1074 299 1070 q 364 1078 332 1078 l 377 1078 q 425 1074 409 1078 q 451 1055 441 1070 l 529 932 q 536 914 536 923 q 513 903 536 903 l 486 903 q 404 932 423 903 l 370 980 l 336 932 q 304 909 323 915 q 256 903 285 903 l 229 903 z "},"Ấ":{"ha":739,"x_min":0,"x_max":739,"o":"m 507 995 q 487 999 492 995 q 481 1013 481 1003 q 487 1032 481 1018 q 500 1069 492 1046 l 524 1129 q 556 1155 533 1147 q 614 1162 579 1162 q 651 1156 640 1162 q 663 1133 663 1149 q 647 1103 663 1124 q 573 1013 631 1082 q 550 1000 565 1004 q 507 995 536 995 m 229 903 q 211 905 216 903 q 205 914 205 908 q 212 932 205 923 l 290 1055 q 316 1074 299 1070 q 364 1078 332 1078 l 377 1078 q 417 1074 404 1078 q 439 1055 431 1070 l 511 932 q 518 914 518 923 q 494 903 518 903 l 467 903 q 413 908 435 903 q 385 932 391 914 l 370 980 l 336 932 q 304 909 323 915 q 256 903 285 903 l 229 903 m 74 -2 q 0 24 0 -2 q 5 46 0 32 l 271 821 q 339 847 280 847 l 401 847 q 470 821 460 847 l 736 46 q 739 24 739 33 q 725 4 739 11 q 679 -2 710 -2 l 626 -2 q 580 4 597 -2 q 559 23 563 9 l 510 170 l 226 170 l 177 23 q 121 -2 170 -2 l 74 -2 m 458 330 l 390 544 q 379 581 384 560 q 372 621 375 602 l 367 621 l 364 606 q 349 544 357 566 l 277 330 l 458 330 z "},"Ậ":{"ha":739,"x_min":0,"x_max":739,"o":"m 0 0 m 74 -2 q 0 24 0 -2 q 5 46 0 32 l 271 821 q 339 847 280 847 l 401 847 q 470 821 460 847 l 736 46 q 739 24 739 33 q 725 4 739 11 q 679 -2 710 -2 l 626 -2 q 580 4 597 -2 q 559 23 563 9 l 510 170 l 226 170 l 177 23 q 121 -2 170 -2 l 74 -2 m 458 330 l 390 544 q 379 581 384 560 q 372 621 375 602 l 367 621 l 364 606 q 349 544 357 566 l 277 330 l 458 330 m 229 903 q 211 905 216 903 q 205 914 205 908 q 212 932 205 923 l 290 1055 q 316 1074 299 1070 q 364 1078 332 1078 l 377 1078 q 425 1074 409 1078 q 451 1055 441 1070 l 529 932 q 536 914 536 923 q 513 903 536 903 l 486 903 q 404 932 423 903 l 370 980 l 336 932 q 304 909 323 915 q 256 903 285 903 l 229 903 z "},"Ầ":{"ha":739,"x_min":0,"x_max":739,"o":"m 555 994 q 508 1002 524 994 q 480 1024 492 1010 l 431 1086 q 399 1129 405 1120 q 393 1144 393 1137 q 407 1157 393 1154 q 450 1160 421 1160 q 553 1128 538 1160 q 592 1011 592 1030 q 584 997 592 1001 q 555 994 576 994 m 229 903 q 211 905 216 903 q 205 914 205 908 q 212 932 205 923 l 290 1055 q 316 1074 299 1070 q 364 1078 332 1078 l 377 1078 q 417 1074 404 1078 q 439 1055 431 1070 l 511 932 q 518 914 518 923 q 494 903 518 903 l 467 903 q 413 908 435 903 q 385 932 391 914 l 370 980 l 336 932 q 304 909 323 915 q 256 903 285 903 l 229 903 m 74 -2 q 0 24 0 -2 q 5 46 0 32 l 271 821 q 339 847 280 847 l 401 847 q 470 821 460 847 l 736 46 q 739 24 739 33 q 725 4 739 11 q 679 -2 710 -2 l 626 -2 q 580 4 597 -2 q 559 23 563 9 l 510 170 l 226 170 l 177 23 q 121 -2 170 -2 l 74 -2 m 458 330 l 390 544 q 379 581 384 560 q 372 621 375 602 l 367 621 l 364 606 q 349 544 357 566 l 277 330 l 458 330 z "},"Ẩ":{"ha":739,"x_min":0,"x_max":739,"o":"m 536 1000 q 498 1008 512 1000 q 484 1026 484 1015 q 490 1035 484 1029 q 506 1045 496 1040 q 535 1061 528 1055 q 543 1078 543 1067 q 535 1094 543 1088 q 518 1099 528 1099 q 489 1095 500 1099 q 467 1084 478 1090 q 461 1081 465 1083 q 454 1078 457 1078 q 440 1087 450 1078 q 425 1109 431 1097 q 418 1129 418 1121 q 433 1145 418 1137 q 471 1158 448 1153 q 515 1163 494 1163 q 596 1141 566 1163 q 627 1084 627 1120 q 620 1054 627 1068 q 595 1027 612 1040 q 567 1009 584 1018 q 536 1000 549 1000 m 229 903 q 211 905 216 903 q 205 914 205 908 q 212 932 205 923 l 290 1055 q 316 1074 299 1070 q 364 1078 332 1078 l 377 1078 q 417 1074 404 1078 q 439 1055 431 1070 l 511 932 q 518 914 518 923 q 494 903 518 903 l 467 903 q 413 908 435 903 q 385 932 391 914 l 370 980 l 336 932 q 304 909 323 915 q 256 903 285 903 l 229 903 m 74 -2 q 0 24 0 -2 q 5 46 0 32 l 271 821 q 339 847 280 847 l 401 847 q 470 821 460 847 l 736 46 q 739 24 739 33 q 725 4 739 11 q 679 -2 710 -2 l 626 -2 q 580 4 597 -2 q 559 23 563 9 l 510 170 l 226 170 l 177 23 q 121 -2 170 -2 l 74 -2 m 458 330 l 390 544 q 379 581 384 560 q 372 621 375 602 l 367 621 l 364 606 q 349 544 357 566 l 277 330 l 458 330 z "},"Ẫ":{"ha":739,"x_min":0,"x_max":739,"o":"m 191 1090 q 167 1123 167 1099 q 170 1139 167 1131 q 213 1200 182 1175 q 290 1224 245 1224 q 323 1219 303 1224 q 374 1205 343 1215 q 413 1195 394 1200 q 444 1189 433 1190 q 479 1208 465 1189 q 495 1224 488 1220 q 510 1229 503 1229 q 524 1226 518 1229 l 536 1223 q 561 1190 561 1215 q 558 1173 561 1184 q 514 1113 546 1138 q 439 1088 483 1088 q 405 1093 425 1088 q 354 1107 385 1098 q 285 1124 304 1123 q 248 1105 264 1124 q 217 1084 233 1084 q 203 1086 210 1084 l 191 1090 m 229 903 q 211 905 216 903 q 205 914 205 908 q 212 932 205 923 l 290 1027 q 319 1045 303 1041 q 364 1050 336 1050 l 377 1050 q 422 1045 406 1050 q 451 1027 438 1041 l 529 932 q 536 914 536 923 q 513 903 536 903 l 486 903 q 446 909 463 903 q 404 932 429 916 l 370 964 l 336 932 q 315 920 331 929 q 286 907 300 911 q 256 903 272 903 l 229 903 m 74 -2 q 0 24 0 -2 q 5 46 0 32 l 271 821 q 339 847 280 847 l 401 847 q 470 821 460 847 l 736 46 q 739 24 739 33 q 725 4 739 11 q 679 -2 710 -2 l 626 -2 q 580 4 597 -2 q 559 23 563 9 l 510 170 l 226 170 l 177 23 q 121 -2 170 -2 l 74 -2 m 458 330 l 390 544 q 379 581 384 560 q 372 621 375 602 l 367 621 l 364 606 q 349 544 357 566 l 277 330 l 458 330 z "},"Ä":{"ha":739,"x_min":0,"x_max":739,"o":"m 0 0 m 74 -2 q 0 24 0 -2 q 5 46 0 32 l 271 821 q 339 847 280 847 l 401 847 q 470 821 460 847 l 736 46 q 739 24 739 33 q 725 4 739 11 q 679 -2 710 -2 l 626 -2 q 580 4 597 -2 q 559 23 563 9 l 510 170 l 226 170 l 177 23 q 121 -2 170 -2 l 74 -2 m 458 330 l 390 544 q 379 581 384 560 q 372 621 375 602 l 367 621 l 364 606 q 349 544 357 566 l 277 330 l 458 330 m 262 909 q 191 949 191 909 l 191 1021 q 208 1050 191 1040 q 262 1060 225 1060 q 317 1050 300 1060 q 335 1021 335 1040 l 335 949 q 262 909 335 909 m 480 909 q 408 949 408 909 l 408 1021 q 425 1050 408 1040 q 480 1060 443 1060 q 535 1050 517 1060 q 552 1021 552 1040 l 552 949 q 480 909 552 909 z "},"Ạ":{"ha":739,"x_min":0,"x_max":739,"o":"m 0 0 m 74 -2 q 0 24 0 -2 q 5 46 0 32 l 271 821 q 339 847 280 847 l 401 847 q 470 821 460 847 l 736 46 q 739 24 739 33 q 725 4 739 11 q 679 -2 710 -2 l 626 -2 q 580 4 597 -2 q 559 23 563 9 l 510 170 l 226 170 l 177 23 q 121 -2 170 -2 l 74 -2 m 458 330 l 390 544 q 379 581 384 560 q 372 621 375 602 l 367 621 l 364 606 q 349 544 357 566 l 277 330 l 458 330 z "},"À":{"ha":739,"x_min":0,"x_max":739,"o":"m 0 0 m 74 -2 q 0 24 0 -2 q 5 46 0 32 l 271 821 q 339 847 280 847 l 401 847 q 470 821 460 847 l 736 46 q 739 24 739 33 q 725 4 739 11 q 679 -2 710 -2 l 626 -2 q 580 4 597 -2 q 559 23 563 9 l 510 170 l 226 170 l 177 23 q 121 -2 170 -2 l 74 -2 m 458 330 l 390 544 q 379 581 384 560 q 372 621 375 602 l 367 621 l 364 606 q 349 544 357 566 l 277 330 l 458 330 m 425 906 q 367 915 387 906 q 334 937 347 923 l 252 1025 q 216 1066 222 1059 q 210 1081 210 1074 q 226 1094 210 1090 q 281 1098 243 1098 q 348 1091 321 1098 q 384 1065 374 1084 l 434 979 q 454 944 446 958 q 462 924 462 930 q 454 910 462 914 q 425 906 446 906 z "},"Ả":{"ha":739,"x_min":0,"x_max":739,"o":"m 0 0 m 74 -2 q 0 24 0 -2 q 5 46 0 32 l 271 821 q 339 847 280 847 l 401 847 q 470 821 460 847 l 736 46 q 739 24 739 33 q 725 4 739 11 q 679 -2 710 -2 l 626 -2 q 580 4 597 -2 q 559 23 563 9 l 510 170 l 226 170 l 177 23 q 121 -2 170 -2 l 74 -2 m 458 330 l 390 544 q 379 581 384 560 q 372 621 375 602 l 367 621 l 364 606 q 349 544 357 566 l 277 330 l 458 330 m 399 901 q 371 905 386 901 q 345 917 355 910 q 334 928 334 923 q 342 941 334 934 q 367 962 350 949 q 402 992 390 979 q 415 1019 415 1005 q 404 1038 415 1031 q 376 1045 392 1045 q 340 1035 359 1045 q 326 1030 330 1030 q 312 1039 321 1030 q 296 1061 303 1048 q 290 1081 290 1073 q 305 1098 290 1088 q 343 1113 320 1107 q 387 1119 366 1119 q 485 1094 451 1119 q 519 1023 519 1068 q 496 966 519 994 q 442 919 472 938 q 399 901 412 901 z "},"Ā":{"ha":739,"x_min":0,"x_max":739,"o":"m 0 0 m 74 -2 q 0 24 0 -2 q 5 46 0 32 l 271 821 q 339 847 280 847 l 401 847 q 470 821 460 847 l 736 46 q 739 24 739 33 q 725 4 739 11 q 679 -2 710 -2 l 626 -2 q 580 4 597 -2 q 559 23 563 9 l 510 170 l 226 170 l 177 23 q 121 -2 170 -2 l 74 -2 m 458 330 l 390 544 q 379 581 384 560 q 372 621 375 602 l 367 621 l 364 606 q 349 544 357 566 l 277 330 l 458 330 m 241 932 q 214 944 222 932 q 205 981 205 956 l 205 999 q 213 1036 205 1024 q 241 1047 222 1047 l 500 1047 q 528 1036 519 1047 q 537 999 537 1024 l 537 981 q 528 944 537 956 q 500 932 519 932 l 241 932 z "},"Ą":{"ha":739,"x_min":0,"x_max":813,"o":"m 787 -127 q 806 -135 799 -127 q 813 -161 813 -144 q 714 -221 813 -221 q 602 -181 631 -221 q 572 -98 572 -142 q 579 -47 572 -76 q 602 -1 585 -18 q 559 23 564 3 l 510 170 l 226 170 l 177 23 q 121 -2 170 -2 l 74 -2 q 0 24 0 -2 q 5 46 0 32 l 271 821 q 339 847 280 847 l 401 847 q 470 821 460 847 l 736 46 q 739 24 739 33 q 725 4 739 11 q 679 -2 710 -2 l 666 -2 l 666 -6 q 661 -29 666 -13 q 654 -53 656 -43 q 652 -75 652 -62 q 674 -125 652 -113 q 728 -136 696 -136 q 762 -131 745 -136 q 787 -127 777 -127 m 458 330 l 390 544 q 379 581 384 560 q 372 621 375 602 l 367 621 l 364 606 q 349 544 357 566 l 277 330 l 458 330 z "},"Å":{"ha":739,"x_min":0,"x_max":739,"o":"m 0 0 m 74 -2 q 0 24 0 -2 q 5 46 0 32 l 271 821 q 339 847 280 847 l 401 847 q 470 821 460 847 l 736 46 q 739 24 739 33 q 725 4 739 11 q 679 -2 710 -2 l 626 -2 q 580 4 597 -2 q 559 23 563 9 l 510 170 l 226 170 l 177 23 q 121 -2 170 -2 l 74 -2 m 458 330 l 390 544 q 379 581 384 560 q 372 621 375 602 l 367 621 l 364 606 q 349 544 357 566 l 277 330 l 458 330 m 370 876 q 310 892 337 876 q 267 935 283 907 q 251 996 251 962 q 267 1056 251 1029 q 310 1100 283 1084 q 370 1116 337 1116 q 431 1100 404 1116 q 474 1056 458 1084 q 490 996 490 1029 q 474 935 490 962 q 431 892 458 907 q 370 876 404 876 m 370 951 q 401 963 389 951 q 414 994 414 976 q 401 1026 414 1013 q 370 1039 388 1039 q 339 1026 352 1039 q 326 994 326 1013 q 339 963 326 976 q 370 951 352 951 z "},"Ǻ":{"ha":739,"x_min":0,"x_max":739,"o":"m 352 979 q 322 983 330 979 q 315 998 315 987 q 339 1049 329 1029 q 364 1090 350 1068 q 400 1115 374 1108 q 467 1122 427 1122 q 522 1119 505 1122 q 539 1105 539 1115 q 533 1094 539 1101 q 500 1062 527 1087 l 443 1009 q 410 987 430 996 q 352 979 390 979 m 736 46 q 739 24 739 33 q 725 4 739 11 q 679 -2 710 -2 l 626 -2 q 580 4 597 -2 q 559 23 563 9 l 510 170 l 226 170 l 177 23 q 121 -2 170 -2 l 74 -2 q 0 24 0 -2 q 5 46 0 32 l 260 791 q 251 840 251 814 q 267 900 251 873 q 310 944 283 928 q 370 960 337 960 q 431 944 404 960 q 474 900 458 928 q 490 840 490 873 q 480 791 490 813 l 736 46 m 370 882 q 339 869 352 882 q 326 838 326 857 q 339 807 326 820 q 370 794 352 794 q 401 807 388 794 q 414 838 414 820 q 401 869 414 857 q 370 882 388 882 m 458 330 l 390 544 q 379 581 384 560 q 372 621 375 602 l 367 621 l 364 606 q 349 544 357 566 l 277 330 l 458 330 z "},"Ã":{"ha":739,"x_min":0,"x_max":739,"o":"m 0 0 m 74 -2 q 0 24 0 -2 q 5 46 0 32 l 271 821 q 339 847 280 847 l 401 847 q 470 821 460 847 l 736 46 q 739 24 739 33 q 725 4 739 11 q 679 -2 710 -2 l 626 -2 q 580 4 597 -2 q 559 23 563 9 l 510 170 l 226 170 l 177 23 q 121 -2 170 -2 l 74 -2 m 458 330 l 390 544 q 379 581 384 560 q 372 621 375 602 l 367 621 l 364 606 q 349 544 357 566 l 277 330 l 458 330 m 168 916 q 140 949 140 924 q 144 965 140 957 q 192 1025 157 1001 q 275 1050 226 1050 q 313 1045 290 1050 q 368 1031 335 1040 q 411 1020 390 1025 q 445 1015 433 1015 q 484 1034 468 1015 q 518 1055 501 1055 q 533 1052 527 1055 l 547 1048 q 574 1016 574 1040 q 571 999 574 1010 q 523 939 557 964 q 439 914 488 914 q 346 933 415 914 q 270 950 289 949 q 230 930 248 950 q 196 909 213 909 q 180 912 188 909 l 168 916 z "},"Æ":{"ha":1103,"x_min":1,"x_max":1043,"o":"m 75 -2 q 1 24 1 -2 q 6 46 1 38 l 393 811 q 415 836 402 828 q 446 844 427 844 l 1006 844 q 1033 829 1025 844 q 1042 783 1042 815 l 1042 747 q 1033 701 1042 715 q 1006 686 1025 686 l 624 686 l 657 511 l 973 511 q 1001 497 992 511 q 1009 451 1009 483 l 1009 414 q 1001 368 1009 382 q 973 353 992 353 l 688 353 l 726 158 l 1007 158 q 1035 144 1026 158 q 1043 98 1043 130 l 1043 60 q 1035 14 1043 28 q 1007 0 1026 0 l 608 0 q 578 8 588 0 q 566 36 569 17 l 541 170 l 248 170 l 175 23 q 119 -2 163 -2 l 75 -2 m 511 330 l 472 547 l 472 648 l 467 648 l 433 549 l 326 330 l 511 330 z "},"Ǽ":{"ha":1103,"x_min":1,"x_max":1043,"o":"m 1 0 m 75 -2 q 1 24 1 -2 q 6 46 1 38 l 393 811 q 415 836 402 828 q 446 844 427 844 l 1006 844 q 1033 829 1025 844 q 1042 783 1042 815 l 1042 747 q 1033 701 1042 715 q 1006 686 1025 686 l 624 686 l 657 511 l 973 511 q 1001 497 992 511 q 1009 451 1009 483 l 1009 414 q 1001 368 1009 382 q 973 353 992 353 l 688 353 l 726 158 l 1007 158 q 1035 144 1026 158 q 1043 98 1043 130 l 1043 60 q 1035 14 1043 28 q 1007 0 1026 0 l 608 0 q 578 8 588 0 q 566 36 569 17 l 541 170 l 248 170 l 175 23 q 119 -2 163 -2 l 75 -2 m 511 330 l 472 547 l 472 648 l 467 648 l 433 549 l 326 330 l 511 330 m 506 906 q 476 910 484 906 q 469 924 469 914 q 477 945 469 930 q 499 984 486 961 q 547 1065 529 1034 q 583 1091 557 1084 q 649 1098 609 1098 q 704 1094 687 1098 q 721 1081 721 1090 q 715 1066 721 1074 q 678 1025 709 1059 l 596 937 q 563 915 583 923 q 506 906 544 906 z "},"B":{"ha":715,"x_min":83,"x_max":688,"o":"m 132 0 q 95 12 106 0 q 83 48 83 23 l 83 796 q 95 832 83 821 q 132 844 106 844 l 370 844 q 586 787 517 844 q 655 631 655 730 q 618 521 655 571 q 524 448 581 471 l 526 443 q 610 404 573 433 q 668 333 647 375 q 688 245 688 291 q 613 63 688 126 q 387 0 538 0 l 132 0 m 352 508 q 434 533 405 508 q 464 598 464 559 q 354 688 464 688 l 269 688 l 269 508 l 352 508 m 387 158 q 469 183 439 158 q 498 256 498 209 q 464 326 498 302 q 368 349 431 349 l 269 349 l 269 158 l 387 158 z "},"C":{"ha":747,"x_min":54,"x_max":720,"o":"m 451 -10 q 151 96 248 -10 q 54 425 54 201 q 457 854 54 854 q 571 843 512 854 q 670 813 630 832 q 709 770 709 793 q 696 725 709 753 q 664 677 682 698 q 631 656 645 656 q 612 663 627 656 q 544 685 580 676 q 454 694 509 694 q 296 627 347 694 q 245 423 245 559 q 296 218 245 287 q 451 149 348 149 q 544 159 505 149 q 622 187 584 170 q 634 192 624 188 q 649 197 644 197 q 683 176 667 197 q 709 129 699 155 q 720 92 720 103 q 675 35 720 58 q 568 1 631 12 q 451 -10 505 -10 z "},"Ć":{"ha":747,"x_min":54,"x_max":720,"o":"m 54 0 m 451 -10 q 151 96 248 -10 q 54 425 54 201 q 457 854 54 854 q 571 843 512 854 q 670 813 630 832 q 709 770 709 793 q 696 725 709 753 q 664 677 682 698 q 631 656 645 656 q 612 663 627 656 q 544 685 580 676 q 454 694 509 694 q 296 627 347 694 q 245 423 245 559 q 296 218 245 287 q 451 149 348 149 q 544 159 505 149 q 622 187 584 170 q 634 192 624 188 q 649 197 644 197 q 683 176 667 197 q 709 129 699 155 q 720 92 720 103 q 675 35 720 58 q 568 1 631 12 q 451 -10 505 -10 m 398 906 q 369 910 376 906 q 361 924 361 914 q 369 945 361 930 q 391 984 378 961 q 439 1065 421 1034 q 475 1091 449 1084 q 541 1098 501 1098 q 596 1094 579 1098 q 613 1081 613 1090 q 607 1066 613 1074 q 570 1025 601 1059 l 488 937 q 455 915 475 923 q 398 906 436 906 z "},"Č":{"ha":747,"x_min":54,"x_max":720,"o":"m 54 0 m 451 -10 q 151 96 248 -10 q 54 425 54 201 q 457 854 54 854 q 571 843 512 854 q 670 813 630 832 q 709 770 709 793 q 696 725 709 753 q 664 677 682 698 q 631 656 645 656 q 612 663 627 656 q 544 685 580 676 q 454 694 509 694 q 296 627 347 694 q 245 423 245 559 q 296 218 245 287 q 451 149 348 149 q 544 159 505 149 q 622 187 584 170 q 634 192 624 188 q 649 197 644 197 q 683 176 667 197 q 709 129 699 155 q 720 92 720 103 q 675 35 720 58 q 568 1 631 12 q 451 -10 505 -10 m 437 903 q 389 907 406 903 q 363 926 372 911 l 285 1048 q 278 1067 278 1058 q 284 1076 278 1073 q 302 1078 290 1078 l 329 1078 q 378 1072 359 1078 q 410 1048 397 1066 l 444 1001 l 477 1050 q 509 1072 488 1066 q 559 1078 530 1078 l 586 1078 q 609 1067 609 1078 q 602 1048 609 1058 l 524 926 q 498 907 515 911 q 450 903 481 903 l 437 903 z "},"Ç":{"ha":747,"x_min":54,"x_max":720,"o":"m 720 92 q 648 23 720 48 q 488 -9 577 -3 l 478 -44 q 544 -71 517 -49 q 572 -135 572 -93 q 536 -226 572 -196 q 429 -256 500 -256 q 356 -248 393 -256 q 295 -227 319 -241 q 270 -195 270 -214 q 277 -165 270 -177 q 294 -148 285 -153 q 309 -142 304 -142 q 327 -145 317 -142 q 348 -152 338 -149 q 383 -163 366 -159 q 419 -168 399 -168 q 441 -162 435 -168 q 448 -147 448 -157 q 440 -131 448 -137 q 416 -117 433 -125 q 392 -105 400 -111 q 384 -89 384 -98 q 407 -9 384 -81 q 140 108 227 3 q 54 425 54 214 q 457 854 54 854 q 571 843 512 854 q 670 813 630 832 q 709 770 709 793 q 696 725 709 753 q 664 677 682 698 q 631 656 645 656 q 612 663 627 656 q 544 685 580 676 q 454 694 509 694 q 296 627 347 694 q 245 423 245 559 q 296 218 245 287 q 451 149 348 149 q 544 159 505 149 q 622 187 584 170 q 634 192 624 188 q 649 197 644 197 q 683 176 667 197 q 709 129 699 155 q 720 92 720 103 z "},"Ĉ":{"ha":747,"x_min":54,"x_max":720,"o":"m 54 0 m 451 -10 q 151 96 248 -10 q 54 425 54 201 q 457 854 54 854 q 571 843 512 854 q 670 813 630 832 q 709 770 709 793 q 696 725 709 753 q 664 677 682 698 q 631 656 645 656 q 612 663 627 656 q 544 685 580 676 q 454 694 509 694 q 296 627 347 694 q 245 423 245 559 q 296 218 245 287 q 451 149 348 149 q 544 159 505 149 q 622 187 584 170 q 634 192 624 188 q 649 197 644 197 q 683 176 667 197 q 709 129 699 155 q 720 92 720 103 q 675 35 720 58 q 568 1 631 12 q 451 -10 505 -10 m 302 903 q 284 905 290 903 q 278 914 278 908 q 285 932 278 923 l 363 1055 q 389 1074 372 1070 q 437 1078 406 1078 l 450 1078 q 498 1074 482 1078 q 524 1055 515 1070 l 602 932 q 609 914 609 923 q 586 903 609 903 l 559 903 q 477 932 496 903 l 444 980 l 410 932 q 377 909 397 915 q 329 903 358 903 l 302 903 z "},"Ċ":{"ha":747,"x_min":54,"x_max":720,"o":"m 54 0 m 451 -10 q 151 96 248 -10 q 54 425 54 201 q 457 854 54 854 q 571 843 512 854 q 670 813 630 832 q 709 770 709 793 q 696 725 709 753 q 664 677 682 698 q 631 656 645 656 q 612 663 627 656 q 544 685 580 676 q 454 694 509 694 q 296 627 347 694 q 245 423 245 559 q 296 218 245 287 q 451 149 348 149 q 544 159 505 149 q 622 187 584 170 q 634 192 624 188 q 649 197 644 197 q 683 176 667 197 q 709 129 699 155 q 720 92 720 103 q 675 35 720 58 q 568 1 631 12 q 451 -10 505 -10 m 444 909 q 372 949 372 909 l 372 1021 q 389 1050 372 1040 q 444 1060 407 1060 q 499 1050 481 1060 q 516 1021 516 1040 l 516 949 q 444 909 516 909 z "},"D":{"ha":838,"x_min":83,"x_max":787,"o":"m 132 0 q 95 12 106 0 q 83 48 83 23 l 83 796 q 95 832 83 821 q 132 844 106 844 l 401 844 q 612 795 526 844 q 743 652 699 747 q 787 422 787 558 q 743 192 787 286 q 612 49 699 98 q 401 0 526 0 l 132 0 m 401 158 q 547 225 498 158 q 597 422 597 293 q 547 619 597 551 q 401 686 498 686 l 271 686 l 271 158 l 401 158 z "},"Ǳ":{"ha":1581,"x_min":83,"x_max":1537,"o":"m 83 0 m 132 0 q 95 12 106 0 q 83 48 83 23 l 83 796 q 95 832 83 821 q 132 844 106 844 l 401 844 q 612 795 526 844 q 743 652 699 747 q 787 422 787 558 q 743 192 787 286 q 612 49 699 98 q 401 0 526 0 l 132 0 m 401 158 q 547 225 498 158 q 597 422 597 293 q 547 619 597 551 q 401 686 498 686 l 271 686 l 271 158 l 401 158 m 918 0 q 897 20 908 0 q 879 65 886 39 q 871 108 871 92 q 873 119 871 111 l 1277 686 l 942 686 q 915 701 923 686 q 906 747 906 715 l 906 783 q 915 829 906 815 q 942 844 923 844 l 1493 844 q 1513 823 1502 844 q 1530 776 1523 803 q 1537 733 1537 749 q 1536 724 1537 726 l 1133 158 l 1501 158 q 1529 144 1520 158 q 1537 98 1537 130 l 1537 60 q 1529 14 1537 28 q 1501 0 1520 0 l 918 0 z "},"Ǆ":{"ha":1581,"x_min":83,"x_max":1537,"o":"m 83 0 m 132 0 q 95 12 106 0 q 83 48 83 23 l 83 796 q 95 832 83 821 q 132 844 106 844 l 401 844 q 612 795 526 844 q 743 652 699 747 q 787 422 787 558 q 743 192 787 286 q 612 49 699 98 q 401 0 526 0 l 132 0 m 401 158 q 547 225 498 158 q 597 422 597 293 q 547 619 597 551 q 401 686 498 686 l 271 686 l 271 158 l 401 158 m 918 0 q 897 20 908 0 q 879 65 886 39 q 871 108 871 92 q 873 119 871 111 l 1277 686 l 942 686 q 915 701 923 686 q 906 747 906 715 l 906 783 q 915 829 906 815 q 942 844 923 844 l 1493 844 q 1513 823 1502 844 q 1530 776 1523 803 q 1537 733 1537 749 q 1536 724 1537 726 l 1133 158 l 1501 158 q 1529 144 1520 158 q 1537 98 1537 130 l 1537 60 q 1529 14 1537 28 q 1501 0 1520 0 l 918 0 m 1204 903 q 1156 907 1173 903 q 1130 926 1139 911 l 1051 1048 q 1044 1067 1044 1058 q 1050 1076 1044 1073 q 1069 1078 1056 1078 l 1095 1078 q 1144 1072 1125 1078 q 1176 1048 1163 1066 l 1210 1001 l 1243 1050 q 1275 1072 1254 1066 q 1325 1078 1296 1078 l 1352 1078 q 1375 1067 1375 1078 q 1369 1048 1375 1058 l 1291 926 q 1264 907 1281 911 q 1217 903 1248 903 l 1204 903 z "},"Ð":{"ha":839,"x_min":15,"x_max":790,"o":"m 134 0 q 97 12 109 0 q 85 48 85 23 l 85 351 l 51 351 q 23 365 32 351 q 15 411 15 379 l 15 448 q 23 494 15 479 q 51 508 32 508 l 85 508 l 85 796 q 97 832 85 821 q 134 844 109 844 l 404 844 q 614 795 528 844 q 745 652 701 747 q 790 422 790 558 q 745 192 790 286 q 614 49 701 98 q 404 0 528 0 l 134 0 m 404 158 q 550 225 500 158 q 600 422 600 293 q 550 619 600 551 q 404 686 500 686 l 273 686 l 273 508 l 344 508 q 371 494 363 508 q 380 448 380 479 l 380 411 q 371 365 380 379 q 344 351 363 351 l 273 351 l 273 158 l 404 158 z "},"Ď":{"ha":838,"x_min":83,"x_max":787,"o":"m 83 0 m 132 0 q 95 12 106 0 q 83 48 83 23 l 83 796 q 95 832 83 821 q 132 844 106 844 l 401 844 q 612 795 526 844 q 743 652 699 747 q 787 422 787 558 q 743 192 787 286 q 612 49 699 98 q 401 0 526 0 l 132 0 m 401 158 q 547 225 498 158 q 597 422 597 293 q 547 619 597 551 q 401 686 498 686 l 271 686 l 271 158 l 401 158 m 395 903 q 347 907 364 903 q 321 926 330 911 l 243 1048 q 236 1067 236 1058 q 242 1076 236 1073 q 260 1078 248 1078 l 287 1078 q 336 1072 317 1078 q 368 1048 355 1066 l 401 1001 l 435 1050 q 467 1072 446 1066 q 517 1078 488 1078 l 544 1078 q 567 1067 567 1078 q 560 1048 567 1058 l 482 926 q 456 907 473 911 q 408 903 439 903 l 395 903 z "},"Đ":{"ha":839,"x_min":15,"x_max":790,"o":"m 15 0 m 134 0 q 97 12 109 0 q 85 48 85 23 l 85 351 l 51 351 q 23 365 32 351 q 15 411 15 379 l 15 448 q 23 494 15 479 q 51 508 32 508 l 85 508 l 85 796 q 97 832 85 821 q 134 844 109 844 l 404 844 q 614 795 528 844 q 745 652 701 747 q 790 422 790 558 q 745 192 790 286 q 614 49 701 98 q 404 0 528 0 l 134 0 m 404 158 q 550 225 500 158 q 600 422 600 293 q 550 619 600 551 q 404 686 500 686 l 273 686 l 273 508 l 344 508 q 371 494 363 508 q 380 448 380 479 l 380 411 q 371 365 380 379 q 344 351 363 351 l 273 351 l 273 158 l 404 158 z "},"Ḍ":{"ha":838,"x_min":83,"x_max":787,"o":"m 83 0 m 132 0 q 95 12 106 0 q 83 48 83 23 l 83 796 q 95 832 83 821 q 132 844 106 844 l 401 844 q 612 795 526 844 q 743 652 699 747 q 787 422 787 558 q 743 192 787 286 q 612 49 699 98 q 401 0 526 0 l 132 0 m 401 158 q 547 225 498 158 q 597 422 597 293 q 547 619 597 551 q 401 686 498 686 l 271 686 l 271 158 l 401 158 z "},"ǲ":{"ha":1428,"x_min":83,"x_max":1393,"o":"m 83 0 m 132 0 q 95 12 106 0 q 83 48 83 23 l 83 796 q 95 832 83 821 q 132 844 106 844 l 401 844 q 612 795 526 844 q 743 652 699 747 q 787 422 787 558 q 743 192 787 286 q 612 49 699 98 q 401 0 526 0 l 132 0 m 401 158 q 547 225 498 158 q 597 422 597 293 q 547 619 597 551 q 401 686 498 686 l 271 686 l 271 158 l 401 158 m 906 0 q 890 16 899 0 q 877 54 882 32 q 871 92 871 76 q 874 109 871 103 l 1151 490 l 926 490 q 899 504 907 490 q 890 550 890 518 l 890 570 q 899 616 890 602 q 926 631 907 631 l 1353 631 q 1368 615 1359 631 q 1382 576 1376 599 q 1388 538 1388 554 q 1384 519 1388 525 l 1110 141 l 1356 141 q 1384 127 1375 141 q 1393 81 1393 113 l 1393 60 q 1384 14 1393 28 q 1356 0 1375 0 l 906 0 z "},"ǅ":{"ha":1428,"x_min":83,"x_max":1393,"o":"m 83 0 m 132 0 q 95 12 106 0 q 83 48 83 23 l 83 796 q 95 832 83 821 q 132 844 106 844 l 401 844 q 612 795 526 844 q 743 652 699 747 q 787 422 787 558 q 743 192 787 286 q 612 49 699 98 q 401 0 526 0 l 132 0 m 401 158 q 547 225 498 158 q 597 422 597 293 q 547 619 597 551 q 401 686 498 686 l 271 686 l 271 158 l 401 158 m 906 0 q 890 16 899 0 q 877 54 882 32 q 871 92 871 76 q 874 109 871 103 l 1151 490 l 926 490 q 899 504 907 490 q 890 550 890 518 l 890 570 q 899 616 890 602 q 926 631 907 631 l 1353 631 q 1368 615 1359 631 q 1382 576 1376 599 q 1388 538 1388 554 q 1384 519 1388 525 l 1110 141 l 1356 141 q 1384 127 1375 141 q 1393 81 1393 113 l 1393 60 q 1384 14 1393 28 q 1356 0 1375 0 l 906 0 m 1127 690 q 1079 694 1096 690 q 1053 713 1062 698 l 975 836 q 968 854 968 845 q 974 863 968 860 q 992 865 979 865 l 1019 865 q 1067 859 1048 865 q 1099 836 1086 853 l 1133 788 l 1166 837 q 1198 859 1177 853 q 1249 865 1219 865 l 1276 865 q 1299 854 1299 865 q 1292 836 1299 845 l 1214 713 q 1188 694 1204 698 q 1140 690 1171 690 l 1127 690 z "},"E":{"ha":659,"x_min":83,"x_max":610,"o":"m 132 0 q 95 12 106 0 q 83 48 83 23 l 83 796 q 95 832 83 821 q 132 844 106 844 l 573 844 q 601 829 592 844 q 609 783 609 815 l 609 747 q 601 701 609 715 q 573 686 592 686 l 269 686 l 269 511 l 541 511 q 568 497 559 511 q 576 451 576 483 l 576 414 q 568 368 576 382 q 541 353 559 353 l 269 353 l 269 158 l 574 158 q 601 144 593 158 q 610 98 610 130 l 610 60 q 601 14 610 28 q 574 0 593 0 l 132 0 z "},"É":{"ha":659,"x_min":83,"x_max":610,"o":"m 83 0 m 132 0 q 95 12 106 0 q 83 48 83 23 l 83 796 q 95 832 83 821 q 132 844 106 844 l 573 844 q 601 829 592 844 q 609 783 609 815 l 609 747 q 601 701 609 715 q 573 686 592 686 l 269 686 l 269 511 l 541 511 q 568 497 559 511 q 576 451 576 483 l 576 414 q 568 368 576 382 q 541 353 559 353 l 269 353 l 269 158 l 574 158 q 601 144 593 158 q 610 98 610 130 l 610 60 q 601 14 610 28 q 574 0 593 0 l 132 0 m 310 906 q 280 910 288 906 q 273 924 273 914 q 281 945 273 930 q 303 984 290 961 q 351 1065 333 1034 q 387 1091 361 1084 q 453 1098 413 1098 q 508 1094 491 1098 q 525 1081 525 1090 q 519 1066 525 1074 q 482 1025 513 1059 l 400 937 q 367 915 387 923 q 310 906 348 906 z "},"Ĕ":{"ha":659,"x_min":83,"x_max":610,"o":"m 83 0 m 132 0 q 95 12 106 0 q 83 48 83 23 l 83 796 q 95 832 83 821 q 132 844 106 844 l 573 844 q 601 829 592 844 q 609 783 609 815 l 609 747 q 601 701 609 715 q 573 686 592 686 l 269 686 l 269 511 l 541 511 q 568 497 559 511 q 576 451 576 483 l 576 414 q 568 368 576 382 q 541 353 559 353 l 269 353 l 269 158 l 574 158 q 601 144 593 158 q 610 98 610 130 l 610 60 q 601 14 610 28 q 574 0 593 0 l 132 0 m 356 906 q 265 925 305 906 q 202 976 224 945 q 179 1042 179 1007 q 190 1066 179 1058 q 221 1075 201 1075 q 243 1070 235 1075 q 261 1053 251 1065 q 282 1034 273 1041 q 310 1021 292 1027 q 356 1016 328 1016 q 405 1022 386 1016 q 432 1035 423 1027 q 454 1055 441 1042 q 470 1070 463 1065 q 492 1075 478 1075 q 522 1066 511 1075 q 533 1042 533 1058 q 510 976 533 1007 q 447 925 488 945 q 356 906 406 906 z "},"Ě":{"ha":659,"x_min":83,"x_max":610,"o":"m 83 0 m 132 0 q 95 12 106 0 q 83 48 83 23 l 83 796 q 95 832 83 821 q 132 844 106 844 l 573 844 q 601 829 592 844 q 609 783 609 815 l 609 747 q 601 701 609 715 q 573 686 592 686 l 269 686 l 269 511 l 541 511 q 568 497 559 511 q 576 451 576 483 l 576 414 q 568 368 576 382 q 541 353 559 353 l 269 353 l 269 158 l 574 158 q 601 144 593 158 q 610 98 610 130 l 610 60 q 601 14 610 28 q 574 0 593 0 l 132 0 m 349 903 q 301 907 318 903 q 275 926 284 911 l 197 1048 q 190 1067 190 1058 q 196 1076 190 1073 q 214 1078 201 1078 l 241 1078 q 290 1072 271 1078 q 321 1048 309 1066 l 355 1001 l 389 1050 q 420 1072 399 1066 q 471 1078 441 1078 l 498 1078 q 521 1067 521 1078 q 514 1048 521 1058 l 436 926 q 410 907 427 911 q 362 903 393 903 l 349 903 z "},"Ê":{"ha":659,"x_min":83,"x_max":610,"o":"m 83 0 m 132 0 q 95 12 106 0 q 83 48 83 23 l 83 796 q 95 832 83 821 q 132 844 106 844 l 573 844 q 601 829 592 844 q 609 783 609 815 l 609 747 q 601 701 609 715 q 573 686 592 686 l 269 686 l 269 511 l 541 511 q 568 497 559 511 q 576 451 576 483 l 576 414 q 568 368 576 382 q 541 353 559 353 l 269 353 l 269 158 l 574 158 q 601 144 593 158 q 610 98 610 130 l 610 60 q 601 14 610 28 q 574 0 593 0 l 132 0 m 214 903 q 196 905 201 903 q 190 914 190 908 q 197 932 190 923 l 275 1055 q 301 1074 284 1070 q 349 1078 317 1078 l 362 1078 q 410 1074 394 1078 q 436 1055 427 1070 l 514 932 q 521 914 521 923 q 498 903 521 903 l 471 903 q 389 932 408 903 l 355 980 l 321 932 q 289 909 309 915 q 241 903 270 903 l 214 903 z "},"Ế":{"ha":659,"x_min":83,"x_max":648,"o":"m 493 995 q 473 999 478 995 q 467 1013 467 1003 q 472 1032 467 1018 q 486 1069 477 1046 l 509 1129 q 542 1155 519 1147 q 600 1162 565 1162 q 637 1156 625 1162 q 648 1133 648 1149 q 632 1103 648 1124 q 559 1013 616 1082 q 536 1000 551 1004 q 493 995 522 995 m 214 903 q 196 905 201 903 q 190 914 190 908 q 197 932 190 923 l 275 1055 q 301 1074 284 1070 q 349 1078 317 1078 l 362 1078 q 402 1074 389 1078 q 424 1055 416 1070 l 496 932 q 503 914 503 923 q 479 903 503 903 l 452 903 q 398 908 420 903 q 370 932 376 914 l 355 980 l 321 932 q 289 909 309 915 q 241 903 270 903 l 214 903 m 132 0 q 95 12 106 0 q 83 48 83 23 l 83 796 q 95 832 83 821 q 132 844 106 844 l 573 844 q 601 829 592 844 q 609 783 609 815 l 609 747 q 601 701 609 715 q 573 686 592 686 l 269 686 l 269 511 l 541 511 q 568 497 559 511 q 576 451 576 483 l 576 414 q 568 368 576 382 q 541 353 559 353 l 269 353 l 269 158 l 574 158 q 601 144 593 158 q 610 98 610 130 l 610 60 q 601 14 610 28 q 574 0 593 0 l 132 0 z "},"Ệ":{"ha":659,"x_min":83,"x_max":610,"o":"m 83 0 m 132 0 q 95 12 106 0 q 83 48 83 23 l 83 796 q 95 832 83 821 q 132 844 106 844 l 573 844 q 601 829 592 844 q 609 783 609 815 l 609 747 q 601 701 609 715 q 573 686 592 686 l 269 686 l 269 511 l 541 511 q 568 497 559 511 q 576 451 576 483 l 576 414 q 568 368 576 382 q 541 353 559 353 l 269 353 l 269 158 l 574 158 q 601 144 593 158 q 610 98 610 130 l 610 60 q 601 14 610 28 q 574 0 593 0 l 132 0 m 214 903 q 196 905 201 903 q 190 914 190 908 q 197 932 190 923 l 275 1055 q 301 1074 284 1070 q 349 1078 317 1078 l 362 1078 q 410 1074 394 1078 q 436 1055 427 1070 l 514 932 q 521 914 521 923 q 498 903 521 903 l 471 903 q 389 932 408 903 l 355 980 l 321 932 q 289 909 309 915 q 241 903 270 903 l 214 903 z "},"Ề":{"ha":659,"x_min":83,"x_max":610,"o":"m 540 994 q 493 1002 509 994 q 465 1024 477 1010 l 416 1086 q 384 1129 390 1120 q 378 1144 378 1137 q 392 1157 378 1154 q 435 1160 406 1160 q 538 1128 523 1160 q 577 1011 577 1030 q 569 997 577 1001 q 540 994 562 994 m 214 903 q 196 905 201 903 q 190 914 190 908 q 197 932 190 923 l 275 1055 q 301 1074 284 1070 q 349 1078 317 1078 l 362 1078 q 402 1074 389 1078 q 424 1055 416 1070 l 496 932 q 503 914 503 923 q 479 903 503 903 l 452 903 q 398 908 420 903 q 370 932 376 914 l 355 980 l 321 932 q 289 909 309 915 q 241 903 270 903 l 214 903 m 132 0 q 95 12 106 0 q 83 48 83 23 l 83 796 q 95 832 83 821 q 132 844 106 844 l 573 844 q 601 829 592 844 q 609 783 609 815 l 609 747 q 601 701 609 715 q 573 686 592 686 l 269 686 l 269 511 l 541 511 q 568 497 559 511 q 576 451 576 483 l 576 414 q 568 368 576 382 q 541 353 559 353 l 269 353 l 269 158 l 574 158 q 601 144 593 158 q 610 98 610 130 l 610 60 q 601 14 610 28 q 574 0 593 0 l 132 0 z "},"Ể":{"ha":659,"x_min":83,"x_max":612,"o":"m 521 1000 q 483 1008 497 1000 q 469 1026 469 1015 q 475 1035 469 1029 q 491 1045 481 1040 q 520 1061 513 1055 q 528 1078 528 1067 q 520 1094 528 1088 q 503 1099 513 1099 q 474 1095 486 1099 q 452 1084 463 1090 q 446 1081 450 1083 q 439 1078 442 1078 q 426 1087 435 1078 q 410 1109 416 1097 q 403 1129 403 1121 q 418 1145 403 1137 q 456 1158 433 1153 q 500 1163 479 1163 q 582 1141 551 1163 q 612 1084 612 1120 q 605 1054 612 1068 q 580 1027 597 1040 q 552 1009 569 1018 q 521 1000 534 1000 m 214 903 q 196 905 201 903 q 190 914 190 908 q 197 932 190 923 l 275 1055 q 301 1074 284 1070 q 349 1078 317 1078 l 362 1078 q 402 1074 389 1078 q 424 1055 416 1070 l 496 932 q 503 914 503 923 q 479 903 503 903 l 452 903 q 398 908 420 903 q 370 932 376 914 l 355 980 l 321 932 q 289 909 309 915 q 241 903 270 903 l 214 903 m 132 0 q 95 12 106 0 q 83 48 83 23 l 83 796 q 95 832 83 821 q 132 844 106 844 l 573 844 q 601 829 592 844 q 609 783 609 815 l 609 747 q 601 701 609 715 q 573 686 592 686 l 269 686 l 269 511 l 541 511 q 568 497 559 511 q 576 451 576 483 l 576 414 q 568 368 576 382 q 541 353 559 353 l 269 353 l 269 158 l 574 158 q 601 144 593 158 q 610 98 610 130 l 610 60 q 601 14 610 28 q 574 0 593 0 l 132 0 z "},"Ễ":{"ha":659,"x_min":83,"x_max":610,"o":"m 177 1090 q 153 1123 153 1099 q 156 1139 153 1131 q 199 1200 168 1175 q 275 1224 231 1224 q 309 1219 289 1224 q 360 1205 329 1215 q 399 1195 380 1200 q 429 1189 418 1190 q 465 1208 450 1189 q 481 1224 474 1220 q 496 1229 488 1229 q 510 1226 504 1229 l 522 1223 q 547 1190 547 1215 q 544 1173 547 1184 q 500 1113 532 1138 q 425 1088 469 1088 q 391 1093 411 1088 q 340 1107 371 1098 q 271 1124 290 1123 q 234 1105 250 1124 q 203 1084 219 1084 q 189 1086 195 1084 l 177 1090 m 214 903 q 196 905 201 903 q 190 914 190 908 q 197 932 190 923 l 275 1027 q 304 1045 288 1041 q 349 1050 321 1050 l 362 1050 q 407 1045 391 1050 q 436 1027 423 1041 l 514 932 q 521 914 521 923 q 498 903 521 903 l 471 903 q 431 909 448 903 q 389 932 414 916 l 355 964 l 321 932 q 300 920 316 929 q 271 907 285 911 q 241 903 257 903 l 214 903 m 132 0 q 95 12 106 0 q 83 48 83 23 l 83 796 q 95 832 83 821 q 132 844 106 844 l 573 844 q 601 829 592 844 q 609 783 609 815 l 609 747 q 601 701 609 715 q 573 686 592 686 l 269 686 l 269 511 l 541 511 q 568 497 559 511 q 576 451 576 483 l 576 414 q 568 368 576 382 q 541 353 559 353 l 269 353 l 269 158 l 574 158 q 601 144 593 158 q 610 98 610 130 l 610 60 q 601 14 610 28 q 574 0 593 0 l 132 0 z "},"Ë":{"ha":659,"x_min":83,"x_max":610,"o":"m 83 0 m 132 0 q 95 12 106 0 q 83 48 83 23 l 83 796 q 95 832 83 821 q 132 844 106 844 l 573 844 q 601 829 592 844 q 609 783 609 815 l 609 747 q 601 701 609 715 q 573 686 592 686 l 269 686 l 269 511 l 541 511 q 568 497 559 511 q 576 451 576 483 l 576 414 q 568 368 576 382 q 541 353 559 353 l 269 353 l 269 158 l 574 158 q 601 144 593 158 q 610 98 610 130 l 610 60 q 601 14 610 28 q 574 0 593 0 l 132 0 m 248 909 q 176 949 176 909 l 176 1021 q 193 1050 176 1040 q 248 1060 210 1060 q 302 1050 285 1060 q 320 1021 320 1040 l 320 949 q 248 909 320 909 m 465 909 q 393 949 393 909 l 393 1021 q 410 1050 393 1040 q 465 1060 428 1060 q 520 1050 503 1060 q 537 1021 537 1040 l 537 949 q 465 909 537 909 z "},"Ė":{"ha":659,"x_min":83,"x_max":610,"o":"m 83 0 m 132 0 q 95 12 106 0 q 83 48 83 23 l 83 796 q 95 832 83 821 q 132 844 106 844 l 573 844 q 601 829 592 844 q 609 783 609 815 l 609 747 q 601 701 609 715 q 573 686 592 686 l 269 686 l 269 511 l 541 511 q 568 497 559 511 q 576 451 576 483 l 576 414 q 568 368 576 382 q 541 353 559 353 l 269 353 l 269 158 l 574 158 q 601 144 593 158 q 610 98 610 130 l 610 60 q 601 14 610 28 q 574 0 593 0 l 132 0 m 356 909 q 283 949 283 909 l 283 1021 q 301 1050 283 1040 q 356 1060 319 1060 q 411 1050 393 1060 q 428 1021 428 1040 l 428 949 q 356 909 428 909 z "},"Ẹ":{"ha":659,"x_min":83,"x_max":610,"o":"m 83 0 m 132 0 q 95 12 106 0 q 83 48 83 23 l 83 796 q 95 832 83 821 q 132 844 106 844 l 573 844 q 601 829 592 844 q 609 783 609 815 l 609 747 q 601 701 609 715 q 573 686 592 686 l 269 686 l 269 511 l 541 511 q 568 497 559 511 q 576 451 576 483 l 576 414 q 568 368 576 382 q 541 353 559 353 l 269 353 l 269 158 l 574 158 q 601 144 593 158 q 610 98 610 130 l 610 60 q 601 14 610 28 q 574 0 593 0 l 132 0 z "},"È":{"ha":659,"x_min":83,"x_max":610,"o":"m 83 0 m 132 0 q 95 12 106 0 q 83 48 83 23 l 83 796 q 95 832 83 821 q 132 844 106 844 l 573 844 q 601 829 592 844 q 609 783 609 815 l 609 747 q 601 701 609 715 q 573 686 592 686 l 269 686 l 269 511 l 541 511 q 568 497 559 511 q 576 451 576 483 l 576 414 q 568 368 576 382 q 541 353 559 353 l 269 353 l 269 158 l 574 158 q 601 144 593 158 q 610 98 610 130 l 610 60 q 601 14 610 28 q 574 0 593 0 l 132 0 m 410 906 q 352 915 372 906 q 320 937 332 923 l 238 1025 q 201 1066 208 1059 q 195 1081 195 1074 q 212 1094 195 1090 q 267 1098 229 1098 q 333 1091 307 1098 q 370 1065 359 1084 l 420 979 q 440 944 432 958 q 448 924 448 930 q 440 910 448 914 q 410 906 432 906 z "},"Ẻ":{"ha":659,"x_min":83,"x_max":610,"o":"m 83 0 m 132 0 q 95 12 106 0 q 83 48 83 23 l 83 796 q 95 832 83 821 q 132 844 106 844 l 573 844 q 601 829 592 844 q 609 783 609 815 l 609 747 q 601 701 609 715 q 573 686 592 686 l 269 686 l 269 511 l 541 511 q 568 497 559 511 q 576 451 576 483 l 576 414 q 568 368 576 382 q 541 353 559 353 l 269 353 l 269 158 l 574 158 q 601 144 593 158 q 610 98 610 130 l 610 60 q 601 14 610 28 q 574 0 593 0 l 132 0 m 385 901 q 356 905 372 901 q 331 917 341 910 q 320 928 320 923 q 328 941 320 934 q 353 962 336 949 q 388 992 376 979 q 401 1019 401 1005 q 389 1038 401 1031 q 362 1045 378 1045 q 326 1035 345 1045 q 311 1030 316 1030 q 298 1039 307 1030 q 282 1061 289 1048 q 275 1081 275 1073 q 291 1098 275 1088 q 329 1113 306 1107 q 372 1119 352 1119 q 471 1094 437 1119 q 505 1023 505 1068 q 481 966 505 994 q 428 919 458 938 q 385 901 397 901 z "},"Ē":{"ha":659,"x_min":83,"x_max":610,"o":"m 83 0 m 132 0 q 95 12 106 0 q 83 48 83 23 l 83 796 q 95 832 83 821 q 132 844 106 844 l 573 844 q 601 829 592 844 q 609 783 609 815 l 609 747 q 601 701 609 715 q 573 686 592 686 l 269 686 l 269 511 l 541 511 q 568 497 559 511 q 576 451 576 483 l 576 414 q 568 368 576 382 q 541 353 559 353 l 269 353 l 269 158 l 574 158 q 601 144 593 158 q 610 98 610 130 l 610 60 q 601 14 610 28 q 574 0 593 0 l 132 0 m 227 932 q 199 944 208 932 q 190 981 190 956 l 190 999 q 198 1036 190 1024 q 227 1047 207 1047 l 486 1047 q 513 1036 505 1047 q 522 999 522 1024 l 522 981 q 513 944 522 956 q 486 932 505 932 l 227 932 z "},"Ę":{"ha":659,"x_min":83,"x_max":718,"o":"m 691 -127 q 710 -135 703 -127 q 718 -161 718 -144 q 618 -221 718 -221 q 506 -181 535 -221 q 477 -98 477 -142 q 484 -46 477 -75 q 507 0 490 -18 l 132 0 q 95 12 106 0 q 83 48 83 23 l 83 796 q 95 832 83 821 q 132 844 106 844 l 573 844 q 601 829 592 844 q 609 783 609 815 l 609 747 q 601 701 609 715 q 573 686 592 686 l 269 686 l 269 511 l 541 511 q 568 497 559 511 q 576 451 576 483 l 576 414 q 568 368 576 382 q 541 353 559 353 l 269 353 l 269 158 l 574 158 q 601 144 593 158 q 610 98 610 130 l 610 60 q 601 14 610 28 q 574 0 593 0 l 570 0 q 570 -6 570 -2 q 565 -29 570 -13 q 559 -53 561 -43 q 557 -75 557 -62 q 579 -125 557 -113 q 632 -136 601 -136 q 667 -131 649 -136 q 691 -127 682 -127 z "},"Ẽ":{"ha":659,"x_min":83,"x_max":610,"o":"m 83 0 m 132 0 q 95 12 106 0 q 83 48 83 23 l 83 796 q 95 832 83 821 q 132 844 106 844 l 573 844 q 601 829 592 844 q 609 783 609 815 l 609 747 q 601 701 609 715 q 573 686 592 686 l 269 686 l 269 511 l 541 511 q 568 497 559 511 q 576 451 576 483 l 576 414 q 568 368 576 382 q 541 353 559 353 l 269 353 l 269 158 l 574 158 q 601 144 593 158 q 610 98 610 130 l 610 60 q 601 14 610 28 q 574 0 593 0 l 132 0 m 153 916 q 125 949 125 924 q 129 965 125 957 q 177 1025 142 1001 q 260 1050 211 1050 q 298 1045 275 1050 q 353 1031 320 1040 q 396 1020 375 1025 q 430 1015 418 1015 q 469 1034 453 1015 q 503 1055 486 1055 q 518 1052 512 1055 l 532 1048 q 559 1016 559 1040 q 556 999 559 1010 q 508 939 543 964 q 425 914 473 914 q 331 933 400 914 q 255 950 274 949 q 215 930 233 950 q 181 909 198 909 q 165 912 173 909 l 153 916 z "},"F":{"ha":606,"x_min":83,"x_max":570,"o":"m 156 -2 q 83 36 83 -2 l 83 796 q 95 832 83 821 q 132 844 106 844 l 534 844 q 562 829 553 844 q 570 783 570 815 l 570 747 q 562 701 570 715 q 534 686 553 686 l 269 686 l 269 510 l 526 510 q 553 496 545 510 q 562 450 562 481 l 562 413 q 553 367 562 381 q 526 352 545 352 l 269 352 l 269 36 q 197 -2 269 -2 l 156 -2 z "},"G":{"ha":810,"x_min":54,"x_max":732,"o":"m 451 -10 q 151 96 248 -10 q 54 425 54 201 q 457 854 54 854 q 573 843 512 854 q 674 813 633 832 q 715 770 715 793 q 701 725 715 753 q 669 677 688 698 q 637 656 651 656 q 617 663 633 656 q 546 685 583 676 q 454 694 509 694 q 296 627 347 694 q 245 423 245 559 q 296 218 245 287 q 451 149 348 149 q 545 157 503 149 l 545 310 l 439 310 q 411 324 420 310 q 403 370 403 338 l 403 409 q 411 454 403 440 q 439 469 420 469 l 684 469 q 721 457 709 469 q 732 421 732 446 l 732 85 q 642 11 732 31 q 451 -10 551 -10 z "},"Ğ":{"ha":810,"x_min":54,"x_max":732,"o":"m 54 0 m 451 -10 q 151 96 248 -10 q 54 425 54 201 q 457 854 54 854 q 573 843 512 854 q 674 813 633 832 q 715 770 715 793 q 701 725 715 753 q 669 677 688 698 q 637 656 651 656 q 617 663 633 656 q 546 685 583 676 q 454 694 509 694 q 296 627 347 694 q 245 423 245 559 q 296 218 245 287 q 451 149 348 149 q 545 157 503 149 l 545 310 l 439 310 q 411 324 420 310 q 403 370 403 338 l 403 409 q 411 454 403 440 q 439 469 420 469 l 684 469 q 721 457 709 469 q 732 421 732 446 l 732 85 q 642 11 732 31 q 451 -10 551 -10 m 422 906 q 331 925 372 906 q 268 976 291 945 q 245 1042 245 1007 q 256 1066 245 1058 q 288 1075 267 1075 q 309 1070 301 1075 q 328 1053 317 1065 q 349 1034 339 1041 q 376 1021 358 1027 q 422 1016 394 1016 q 471 1022 452 1016 q 498 1035 490 1027 q 520 1055 507 1042 q 537 1070 529 1065 q 558 1075 545 1075 q 589 1066 578 1075 q 600 1042 600 1058 q 577 976 600 1007 q 513 925 554 945 q 422 906 473 906 z "},"Ĝ":{"ha":810,"x_min":54,"x_max":732,"o":"m 54 0 m 451 -10 q 151 96 248 -10 q 54 425 54 201 q 457 854 54 854 q 573 843 512 854 q 674 813 633 832 q 715 770 715 793 q 701 725 715 753 q 669 677 688 698 q 637 656 651 656 q 617 663 633 656 q 546 685 583 676 q 454 694 509 694 q 296 627 347 694 q 245 423 245 559 q 296 218 245 287 q 451 149 348 149 q 545 157 503 149 l 545 310 l 439 310 q 411 324 420 310 q 403 370 403 338 l 403 409 q 411 454 403 440 q 439 469 420 469 l 684 469 q 721 457 709 469 q 732 421 732 446 l 732 85 q 642 11 732 31 q 451 -10 551 -10 m 281 903 q 262 905 268 903 q 256 914 256 908 q 263 932 256 923 l 342 1055 q 367 1074 351 1070 q 416 1078 384 1078 l 429 1078 q 477 1074 460 1078 q 503 1055 493 1070 l 581 932 q 587 914 587 923 q 564 903 587 903 l 537 903 q 455 932 475 903 l 422 980 l 388 932 q 356 909 375 915 q 307 903 336 903 l 281 903 z "},"Ģ":{"ha":810,"x_min":54,"x_max":732,"o":"m 54 0 m 451 -10 q 151 96 248 -10 q 54 425 54 201 q 457 854 54 854 q 573 843 512 854 q 674 813 633 832 q 715 770 715 793 q 701 725 715 753 q 669 677 688 698 q 637 656 651 656 q 617 663 633 656 q 546 685 583 676 q 454 694 509 694 q 296 627 347 694 q 245 423 245 559 q 296 218 245 287 q 451 149 348 149 q 545 157 503 149 l 545 310 l 439 310 q 411 324 420 310 q 403 370 403 338 l 403 409 q 411 454 403 440 q 439 469 420 469 l 684 469 q 721 457 709 469 q 732 421 732 446 l 732 85 q 642 11 732 31 q 451 -10 551 -10 m 372 -290 q 335 -283 353 -290 q 318 -262 318 -276 q 325 -238 318 -255 q 341 -184 335 -211 q 347 -115 347 -158 q 365 -76 347 -90 q 419 -62 382 -62 l 442 -62 q 487 -76 472 -62 q 503 -115 503 -91 q 479 -194 503 -153 q 425 -262 456 -235 q 372 -290 393 -290 z "},"Ġ":{"ha":810,"x_min":54,"x_max":732,"o":"m 54 0 m 451 -10 q 151 96 248 -10 q 54 425 54 201 q 457 854 54 854 q 573 843 512 854 q 674 813 633 832 q 715 770 715 793 q 701 725 715 753 q 669 677 688 698 q 637 656 651 656 q 617 663 633 656 q 546 685 583 676 q 454 694 509 694 q 296 627 347 694 q 245 423 245 559 q 296 218 245 287 q 451 149 348 149 q 545 157 503 149 l 545 310 l 439 310 q 411 324 420 310 q 403 370 403 338 l 403 409 q 411 454 403 440 q 439 469 420 469 l 684 469 q 721 457 709 469 q 732 421 732 446 l 732 85 q 642 11 732 31 q 451 -10 551 -10 m 422 909 q 350 949 350 909 l 350 1021 q 368 1050 350 1040 q 422 1060 385 1060 q 477 1050 460 1060 q 494 1021 494 1040 l 494 949 q 422 909 494 909 z "},"H":{"ha":884,"x_min":102,"x_max":801,"o":"m 174 -2 q 102 36 102 -2 l 102 808 q 119 837 102 827 q 174 847 136 847 l 216 847 q 271 837 254 847 q 288 808 288 827 l 288 510 l 614 510 l 614 808 q 631 837 614 827 q 686 847 649 847 l 728 847 q 801 808 801 847 l 801 36 q 728 -2 801 -2 l 686 -2 q 614 36 614 -2 l 614 351 l 288 351 l 288 36 q 216 -2 288 -2 l 174 -2 z "},"Ħ":{"ha":884,"x_min":37,"x_max":850,"o":"m 814 689 q 842 677 833 689 q 850 641 850 666 l 850 623 q 842 586 850 597 q 814 575 833 575 l 801 575 l 801 36 q 728 -2 801 -2 l 686 -2 q 614 36 614 -2 l 614 351 l 288 351 l 288 36 q 216 -2 288 -2 l 174 -2 q 102 36 102 -2 l 102 575 l 73 575 q 45 586 54 575 q 37 623 37 597 l 37 641 q 45 678 37 667 q 73 689 54 689 l 102 689 l 102 808 q 119 837 102 827 q 174 847 136 847 l 216 847 q 271 837 254 847 q 288 808 288 827 l 288 689 l 614 689 l 614 808 q 631 837 614 827 q 686 847 649 847 l 728 847 q 801 808 801 847 l 801 689 l 814 689 m 614 575 l 288 575 l 288 510 l 614 510 l 614 575 z "},"Ĥ":{"ha":884,"x_min":102,"x_max":801,"o":"m 102 0 m 174 -2 q 102 36 102 -2 l 102 808 q 119 837 102 827 q 174 847 136 847 l 216 847 q 271 837 254 847 q 288 808 288 827 l 288 510 l 614 510 l 614 808 q 631 837 614 827 q 686 847 649 847 l 728 847 q 801 808 801 847 l 801 36 q 728 -2 801 -2 l 686 -2 q 614 36 614 -2 l 614 351 l 288 351 l 288 36 q 216 -2 288 -2 l 174 -2 m 301 903 q 282 905 288 903 q 277 914 277 908 q 283 932 277 923 l 362 1055 q 388 1074 371 1070 q 436 1078 404 1078 l 449 1078 q 497 1074 481 1078 q 523 1055 513 1070 l 601 932 q 608 914 608 923 q 585 903 608 903 l 557 903 q 475 932 495 903 l 442 980 l 408 932 q 376 909 395 915 q 328 903 357 903 l 301 903 z "},"Ḥ":{"ha":884,"x_min":102,"x_max":801,"o":"m 102 0 m 174 -2 q 102 36 102 -2 l 102 808 q 119 837 102 827 q 174 847 136 847 l 216 847 q 271 837 254 847 q 288 808 288 827 l 288 510 l 614 510 l 614 808 q 631 837 614 827 q 686 847 649 847 l 728 847 q 801 808 801 847 l 801 36 q 728 -2 801 -2 l 686 -2 q 614 36 614 -2 l 614 351 l 288 351 l 288 36 q 216 -2 288 -2 l 174 -2 z "},"I":{"ha":340,"x_min":76,"x_max":262,"o":"m 149 -3 q 94 7 112 -3 q 76 36 76 17 l 76 808 q 149 848 76 848 l 191 848 q 245 838 228 848 q 262 808 262 827 l 262 36 q 191 -3 262 -3 l 149 -3 z "},"Ĳ":{"ha":825,"x_min":76,"x_max":745,"o":"m 76 0 m 149 -3 q 94 7 112 -3 q 76 36 76 17 l 76 808 q 149 848 76 848 l 191 848 q 245 838 228 848 q 262 808 262 827 l 262 36 q 191 -3 262 -3 l 149 -3 m 490 -10 q 392 1 443 -10 q 340 46 340 13 q 346 87 340 61 q 362 135 351 113 q 390 158 373 157 q 406 155 393 158 q 457 149 435 149 q 535 178 512 149 q 559 274 559 208 l 559 808 q 631 848 559 848 l 673 848 q 745 808 745 848 l 745 244 q 683 57 745 123 q 490 -10 621 -10 z "},"Í":{"ha":340,"x_min":76,"x_max":339,"o":"m 76 0 m 149 -3 q 94 7 112 -3 q 76 36 76 17 l 76 808 q 149 848 76 848 l 191 848 q 245 838 228 848 q 262 808 262 827 l 262 36 q 191 -3 262 -3 l 149 -3 m 124 906 q 95 910 102 906 q 87 924 87 914 q 95 945 87 930 q 117 984 104 961 q 165 1065 147 1034 q 201 1091 175 1084 q 267 1098 227 1098 q 322 1094 305 1098 q 339 1081 339 1090 q 333 1066 339 1074 q 296 1025 327 1059 l 214 937 q 181 915 201 923 q 124 906 162 906 z "},"Ĭ":{"ha":340,"x_min":-7,"x_max":347,"o":"m 0 0 m 149 -3 q 94 7 112 -3 q 76 36 76 17 l 76 808 q 149 848 76 848 l 191 848 q 245 838 228 848 q 262 808 262 827 l 262 36 q 191 -3 262 -3 l 149 -3 m 170 906 q 79 925 119 906 q 16 976 39 945 q -7 1042 -7 1007 q 4 1066 -7 1058 q 35 1075 15 1075 q 57 1070 49 1075 q 75 1053 65 1065 q 96 1034 87 1041 q 124 1021 106 1027 q 170 1016 142 1016 q 219 1022 200 1016 q 246 1035 237 1027 q 268 1055 255 1042 q 284 1070 277 1065 q 306 1075 292 1075 q 336 1066 326 1075 q 347 1042 347 1058 q 325 976 347 1007 q 261 925 302 945 q 170 906 220 906 z "},"Î":{"ha":340,"x_min":4,"x_max":335,"o":"m 4 0 m 149 -3 q 94 7 112 -3 q 76 36 76 17 l 76 808 q 149 848 76 848 l 191 848 q 245 838 228 848 q 262 808 262 827 l 262 36 q 191 -3 262 -3 l 149 -3 m 28 903 q 10 905 16 903 q 4 914 4 908 q 11 932 4 923 l 90 1055 q 115 1074 98 1070 q 163 1078 132 1078 l 176 1078 q 224 1074 208 1078 q 250 1055 241 1070 l 328 932 q 335 914 335 923 q 312 903 335 903 l 285 903 q 203 932 222 903 l 170 980 l 136 932 q 103 909 123 915 q 55 903 84 903 l 28 903 z "},"Ï":{"ha":340,"x_min":-10,"x_max":351,"o":"m 0 0 m 149 -3 q 94 7 112 -3 q 76 36 76 17 l 76 808 q 149 848 76 848 l 191 848 q 245 838 228 848 q 262 808 262 827 l 262 36 q 191 -3 262 -3 l 149 -3 m 62 909 q -10 949 -10 909 l -10 1021 q 7 1050 -10 1040 q 62 1060 24 1060 q 117 1050 99 1060 q 134 1021 134 1040 l 134 949 q 62 909 134 909 m 279 909 q 207 949 207 909 l 207 1021 q 224 1050 207 1040 q 279 1060 242 1060 q 334 1050 317 1060 q 351 1021 351 1040 l 351 949 q 279 909 351 909 z "},"İ":{"ha":340,"x_min":76,"x_max":262,"o":"m 76 0 m 149 -3 q 94 7 112 -3 q 76 36 76 17 l 76 808 q 149 848 76 848 l 191 848 q 245 838 228 848 q 262 808 262 827 l 262 36 q 191 -3 262 -3 l 149 -3 m 170 909 q 98 949 98 909 l 98 1021 q 115 1050 98 1040 q 170 1060 133 1060 q 225 1050 208 1060 q 242 1021 242 1040 l 242 949 q 170 909 242 909 z "},"Ị":{"ha":340,"x_min":76,"x_max":262,"o":"m 76 0 m 149 -3 q 94 7 112 -3 q 76 36 76 17 l 76 808 q 149 848 76 848 l 191 848 q 245 838 228 848 q 262 808 262 827 l 262 36 q 191 -3 262 -3 l 149 -3 z "},"Ì":{"ha":340,"x_min":9,"x_max":262,"o":"m 9 0 m 149 -3 q 94 7 112 -3 q 76 36 76 17 l 76 808 q 149 848 76 848 l 191 848 q 245 838 228 848 q 262 808 262 827 l 262 36 q 191 -3 262 -3 l 149 -3 m 224 906 q 166 915 186 906 q 134 937 146 923 l 52 1025 q 16 1066 22 1059 q 9 1081 9 1074 q 26 1094 9 1090 q 81 1098 43 1098 q 148 1091 121 1098 q 184 1065 174 1084 l 234 979 q 254 944 246 958 q 262 924 262 930 q 254 910 262 914 q 224 906 246 906 z "},"Ỉ":{"ha":340,"x_min":76,"x_max":319,"o":"m 76 0 m 149 -3 q 94 7 112 -3 q 76 36 76 17 l 76 808 q 149 848 76 848 l 191 848 q 245 838 228 848 q 262 808 262 827 l 262 36 q 191 -3 262 -3 l 149 -3 m 199 901 q 171 905 186 901 q 145 917 155 910 q 134 928 134 923 q 142 941 134 934 q 167 962 150 949 q 202 992 190 979 q 215 1019 215 1005 q 203 1038 215 1031 q 176 1045 192 1045 q 140 1035 159 1045 q 125 1030 130 1030 q 112 1039 121 1030 q 96 1061 103 1048 q 90 1081 90 1073 q 105 1098 90 1088 q 143 1113 120 1107 q 186 1119 166 1119 q 285 1094 251 1119 q 319 1023 319 1068 q 296 966 319 994 q 242 919 272 938 q 199 901 212 901 z "},"Ī":{"ha":340,"x_min":4,"x_max":336,"o":"m 4 0 m 149 -3 q 94 7 112 -3 q 76 36 76 17 l 76 808 q 149 848 76 848 l 191 848 q 245 838 228 848 q 262 808 262 827 l 262 36 q 191 -3 262 -3 l 149 -3 m 41 932 q 13 944 22 932 q 4 981 4 956 l 4 999 q 13 1036 4 1024 q 41 1047 21 1047 l 300 1047 q 328 1036 319 1047 q 336 999 336 1024 l 336 981 q 328 944 336 956 q 300 932 319 932 l 41 932 z "},"Į":{"ha":340,"x_min":76,"x_max":367,"o":"m 340 -127 q 360 -135 353 -127 q 367 -161 367 -144 q 268 -221 367 -221 q 155 -181 184 -221 q 126 -98 126 -142 q 132 -50 126 -77 q 153 -3 138 -22 l 149 -3 q 94 7 112 -3 q 76 36 76 17 l 76 808 q 149 848 76 848 l 191 848 q 245 838 228 848 q 262 808 262 827 l 262 36 q 220 -1 262 5 l 220 -6 q 214 -29 220 -13 q 208 -53 210 -43 q 206 -75 206 -62 q 228 -125 206 -113 q 281 -136 250 -136 q 316 -131 298 -136 q 340 -127 331 -127 z "},"Ĩ":{"ha":340,"x_min":76,"x_max":262,"o":"m 191 848 q 245 838 228 848 q 262 808 262 827 l 262 36 q 191 -3 262 -3 l 149 -3 q 94 7 112 -3 q 76 36 76 17 l 76 808 q 149 848 76 848 l 191 848 z "},"J":{"ha":485,"x_min":0,"x_max":405,"o":"m 149 -10 q 51 1 102 -10 q 0 46 0 13 q 5 87 0 61 q 21 135 10 113 q 50 158 33 157 q 65 155 53 158 q 117 149 94 149 q 195 178 172 149 q 218 274 218 208 l 218 808 q 290 848 218 848 l 333 848 q 405 808 405 848 l 405 244 q 342 57 405 123 q 149 -10 280 -10 z "},"Ĵ":{"ha":485,"x_min":0,"x_max":480,"o":"m 0 0 m 149 -10 q 51 1 102 -10 q 0 46 0 13 q 5 87 0 61 q 21 135 10 113 q 50 158 33 157 q 65 155 53 158 q 117 149 94 149 q 195 178 172 149 q 218 274 218 208 l 218 808 q 290 848 218 848 l 333 848 q 405 808 405 848 l 405 244 q 342 57 405 123 q 149 -10 280 -10 m 174 903 q 155 905 161 903 q 149 914 149 908 q 156 932 149 923 l 235 1055 q 260 1074 243 1070 q 309 1078 277 1078 l 321 1078 q 370 1074 353 1078 q 395 1055 386 1070 l 473 932 q 480 914 480 923 q 457 903 480 903 l 430 903 q 348 932 368 903 l 315 980 l 281 932 q 249 909 268 915 q 200 903 229 903 l 174 903 z "},"K":{"ha":694,"x_min":83,"x_max":713,"o":"m 156 -2 q 83 36 83 -2 l 83 808 q 101 837 83 827 q 156 847 119 847 l 198 847 q 253 837 235 847 q 271 808 271 827 l 271 485 l 275 484 l 485 824 q 557 847 498 847 l 614 847 q 664 842 647 847 q 682 829 682 837 q 671 803 682 818 l 439 446 l 703 41 q 713 16 713 26 q 646 -2 713 -2 l 575 -2 q 528 3 546 -2 q 502 21 509 7 l 275 387 l 271 387 l 271 36 q 198 -2 271 -2 l 156 -2 z "},"Ķ":{"ha":694,"x_min":83,"x_max":713,"o":"m 83 0 m 156 -2 q 83 36 83 -2 l 83 808 q 101 837 83 827 q 156 847 119 847 l 198 847 q 253 837 235 847 q 271 808 271 827 l 271 485 l 275 484 l 485 824 q 557 847 498 847 l 614 847 q 664 842 647 847 q 682 829 682 837 q 671 803 682 818 l 439 446 l 703 41 q 713 16 713 26 q 646 -2 713 -2 l 575 -2 q 528 3 546 -2 q 502 21 509 7 l 275 387 l 271 387 l 271 36 q 198 -2 271 -2 l 156 -2 m 304 -290 q 267 -283 284 -290 q 250 -262 250 -276 q 256 -238 250 -255 q 272 -184 267 -211 q 278 -115 278 -158 q 296 -76 278 -90 q 351 -62 314 -62 l 374 -62 q 419 -76 404 -62 q 434 -115 434 -91 q 411 -194 434 -153 q 356 -262 388 -235 q 304 -290 325 -290 z "},"L":{"ha":583,"x_min":83,"x_max":574,"o":"m 132 0 q 95 12 106 0 q 83 48 83 23 l 83 808 q 101 837 83 827 q 156 847 119 847 l 197 847 q 252 837 234 847 q 269 808 269 827 l 269 158 l 538 158 q 565 144 557 158 q 574 98 574 130 l 574 60 q 565 14 574 28 q 538 0 557 0 l 132 0 z "},"Ǉ":{"ha":865,"x_min":83,"x_max":796,"o":"m 541 -218 q 441 -207 492 -218 q 391 -163 391 -196 q 396 -122 391 -148 q 412 -74 401 -96 q 440 -51 423 -52 q 456 -54 444 -51 q 508 -60 485 -60 q 585 -31 562 -60 q 609 66 609 -1 l 609 808 q 682 848 609 848 l 724 848 q 796 808 796 848 l 796 51 q 769 -89 796 -28 q 685 -184 742 -149 q 541 -218 627 -218 m 132 0 q 95 12 106 0 q 83 48 83 23 l 83 808 q 101 837 83 827 q 156 847 119 847 l 197 847 q 252 837 234 847 q 269 808 269 827 l 269 158 l 454 158 q 481 144 473 158 q 490 98 490 130 l 490 60 q 481 14 490 28 q 454 0 473 0 l 132 0 z "},"Ĺ":{"ha":583,"x_min":83,"x_max":574,"o":"m 83 0 m 132 0 q 95 12 106 0 q 83 48 83 23 l 83 808 q 101 837 83 827 q 156 847 119 847 l 197 847 q 252 837 234 847 q 269 808 269 827 l 269 158 l 538 158 q 565 144 557 158 q 574 98 574 130 l 574 60 q 565 14 574 28 q 538 0 557 0 l 132 0 m 134 906 q 105 910 113 906 q 97 924 97 914 q 105 945 97 930 q 127 984 114 961 q 175 1065 157 1034 q 211 1091 185 1084 q 277 1098 237 1098 q 332 1094 315 1098 q 349 1081 349 1090 q 343 1066 349 1074 q 307 1025 337 1059 l 224 937 q 192 915 211 923 q 134 906 172 906 z "},"Ľ":{"ha":583,"x_min":83,"x_max":574,"o":"m 83 0 m 132 0 q 95 12 106 0 q 83 48 83 23 l 83 808 q 101 837 83 827 q 156 847 119 847 l 197 847 q 252 837 234 847 q 269 808 269 827 l 269 158 l 538 158 q 565 144 557 158 q 574 98 574 130 l 574 60 q 565 14 574 28 q 538 0 557 0 l 132 0 m 435 616 q 398 623 415 616 q 380 642 380 630 q 383 731 380 680 q 385 791 385 764 q 457 844 385 844 l 480 844 q 526 829 511 844 q 541 791 541 815 q 522 713 541 753 q 478 645 503 673 q 435 616 452 618 z "},"Ļ":{"ha":583,"x_min":83,"x_max":574,"o":"m 83 0 m 132 0 q 95 12 106 0 q 83 48 83 23 l 83 808 q 101 837 83 827 q 156 847 119 847 l 197 847 q 252 837 234 847 q 269 808 269 827 l 269 158 l 538 158 q 565 144 557 158 q 574 98 574 130 l 574 60 q 565 14 574 28 q 538 0 557 0 l 132 0 m 236 -290 q 199 -283 216 -290 q 182 -262 182 -276 q 189 -238 182 -255 q 204 -184 199 -211 q 210 -115 210 -158 q 228 -76 210 -90 q 283 -62 246 -62 l 306 -62 q 351 -76 336 -62 q 366 -115 366 -91 q 343 -194 366 -153 q 289 -262 320 -235 q 236 -290 257 -290 z "},"Ŀ":{"ha":583,"x_min":83,"x_max":574,"o":"m 83 0 m 132 0 q 95 12 106 0 q 83 48 83 23 l 83 808 q 101 837 83 827 q 156 847 119 847 l 197 847 q 252 837 234 847 q 269 808 269 827 l 269 158 l 538 158 q 565 144 557 158 q 574 98 574 130 l 574 60 q 565 14 574 28 q 538 0 557 0 l 132 0 m 399 349 q 339 373 364 349 q 315 433 315 398 q 339 493 315 469 q 399 517 364 517 q 459 493 435 517 q 484 433 484 468 q 459 373 484 398 q 399 349 435 349 z "},"ǈ":{"ha":916,"x_min":83,"x_max":846,"o":"m 83 0 m 132 0 q 95 12 106 0 q 83 48 83 23 l 83 808 q 101 837 83 827 q 156 847 119 847 l 197 847 q 252 837 234 847 q 269 808 269 827 l 269 158 l 538 158 q 565 144 557 158 q 574 98 574 130 l 574 60 q 565 14 574 28 q 538 0 557 0 l 132 0 m 741 734 q 685 744 703 734 q 668 773 668 753 l 668 870 q 686 900 668 890 q 741 909 703 909 l 774 909 q 828 900 811 909 q 846 870 846 890 l 846 773 q 828 744 846 753 q 774 734 811 734 l 741 734 m 670 -256 q 594 -250 621 -256 q 555 -231 567 -244 q 544 -193 544 -217 q 550 -158 544 -178 q 566 -124 555 -138 q 588 -110 576 -110 q 604 -112 591 -110 q 625 -115 617 -115 q 658 -102 648 -115 q 668 -62 668 -90 l 668 595 q 686 623 668 614 q 741 633 703 633 l 774 633 q 828 623 811 633 q 846 595 846 614 l 846 -60 q 823 -168 846 -124 q 761 -234 800 -212 q 670 -256 722 -256 z "},"Ł":{"ha":587,"x_min":31,"x_max":576,"o":"m 134 0 q 97 12 109 0 q 85 48 85 23 l 85 363 l 62 349 q 45 342 54 342 q 34 348 37 342 q 31 367 31 353 l 31 391 q 39 422 31 410 q 62 446 46 434 l 85 459 l 85 808 q 158 847 85 847 l 199 847 q 272 808 272 847 l 272 573 l 376 637 q 395 644 386 644 q 408 620 408 644 l 408 596 q 400 563 408 576 q 376 541 393 550 l 272 477 l 272 158 l 541 158 q 568 144 559 158 q 576 98 576 130 l 576 60 q 568 14 576 28 q 541 0 559 0 l 134 0 z "},"M":{"ha":1016,"x_min":83,"x_max":934,"o":"m 156 -2 q 83 36 83 -2 l 83 808 q 101 837 83 827 q 156 847 119 847 l 220 847 q 295 814 277 847 l 498 454 l 508 436 l 518 457 l 722 814 q 798 847 741 847 l 861 847 q 934 808 934 847 l 934 36 q 861 -2 934 -2 l 826 -2 q 753 36 753 -2 l 753 536 l 749 537 l 574 224 q 526 201 558 201 l 491 201 q 463 207 474 201 q 443 224 451 213 l 267 537 l 262 536 l 262 36 q 191 -2 262 -2 l 156 -2 z "},"N":{"ha":867,"x_min":83,"x_max":783,"o":"m 156 -2 q 83 36 83 -2 l 83 808 q 101 837 83 827 q 156 847 119 847 l 208 847 q 256 840 237 847 q 287 814 275 833 l 572 375 l 604 326 l 604 808 q 622 837 604 827 q 677 847 640 847 l 711 847 q 766 837 749 847 q 783 808 783 827 l 783 36 q 711 -2 783 -2 l 665 -2 q 617 4 635 -2 q 587 30 599 11 l 288 486 l 262 524 l 262 36 q 191 -2 262 -2 l 156 -2 z "},"Ǌ":{"ha":1352,"x_min":83,"x_max":1272,"o":"m 83 0 m 156 -2 q 83 36 83 -2 l 83 808 q 101 837 83 827 q 156 847 119 847 l 208 847 q 256 840 237 847 q 287 814 275 833 l 572 375 l 604 326 l 604 808 q 622 837 604 827 q 677 847 640 847 l 711 847 q 766 837 749 847 q 783 808 783 827 l 783 36 q 711 -2 783 -2 l 665 -2 q 617 4 635 -2 q 587 30 599 11 l 288 486 l 262 524 l 262 36 q 191 -2 262 -2 l 156 -2 m 1016 -10 q 918 1 969 -10 q 867 46 867 13 q 872 87 867 61 q 888 135 877 113 q 916 158 899 157 q 932 155 920 158 q 983 149 961 149 q 1062 178 1038 149 q 1085 274 1085 208 l 1085 808 q 1157 848 1085 848 l 1200 848 q 1272 808 1272 848 l 1272 244 q 1209 57 1272 123 q 1016 -10 1147 -10 z "},"Ń":{"ha":867,"x_min":83,"x_max":783,"o":"m 83 0 m 156 -2 q 83 36 83 -2 l 83 808 q 101 837 83 827 q 156 847 119 847 l 208 847 q 256 840 237 847 q 287 814 275 833 l 572 375 l 604 326 l 604 808 q 622 837 604 827 q 677 847 640 847 l 711 847 q 766 837 749 847 q 783 808 783 827 l 783 36 q 711 -2 783 -2 l 665 -2 q 617 4 635 -2 q 587 30 599 11 l 288 486 l 262 524 l 262 36 q 191 -2 262 -2 l 156 -2 m 388 906 q 358 910 366 906 q 351 924 351 914 q 359 945 351 930 q 381 984 368 961 q 429 1065 411 1034 q 465 1091 439 1084 q 531 1098 491 1098 q 586 1094 569 1098 q 603 1081 603 1090 q 597 1066 603 1074 q 560 1025 591 1059 l 478 937 q 445 915 465 923 q 388 906 426 906 z "},"Ň":{"ha":867,"x_min":83,"x_max":783,"o":"m 83 0 m 156 -2 q 83 36 83 -2 l 83 808 q 101 837 83 827 q 156 847 119 847 l 208 847 q 256 840 237 847 q 287 814 275 833 l 572 375 l 604 326 l 604 808 q 622 837 604 827 q 677 847 640 847 l 711 847 q 766 837 749 847 q 783 808 783 827 l 783 36 q 711 -2 783 -2 l 665 -2 q 617 4 635 -2 q 587 30 599 11 l 288 486 l 262 524 l 262 36 q 191 -2 262 -2 l 156 -2 m 428 903 q 380 907 397 903 q 354 926 363 911 l 275 1048 q 269 1067 269 1058 q 274 1076 269 1073 q 293 1078 280 1078 l 319 1078 q 368 1072 349 1078 q 400 1048 387 1066 l 434 1001 l 467 1050 q 499 1072 478 1066 q 549 1078 520 1078 l 576 1078 q 600 1067 600 1078 q 593 1048 600 1058 l 515 926 q 489 907 505 911 q 441 903 472 903 l 428 903 z "},"Ņ":{"ha":867,"x_min":83,"x_max":783,"o":"m 83 0 m 156 -2 q 83 36 83 -2 l 83 808 q 101 837 83 827 q 156 847 119 847 l 208 847 q 256 840 237 847 q 287 814 275 833 l 572 375 l 604 326 l 604 808 q 622 837 604 827 q 677 847 640 847 l 711 847 q 766 837 749 847 q 783 808 783 827 l 783 36 q 711 -2 783 -2 l 665 -2 q 617 4 635 -2 q 587 30 599 11 l 288 486 l 262 524 l 262 36 q 191 -2 262 -2 l 156 -2 m 378 -290 q 341 -283 359 -290 q 324 -262 324 -276 q 331 -238 324 -255 q 347 -184 341 -211 q 353 -115 353 -158 q 371 -76 353 -90 q 425 -62 389 -62 l 448 -62 q 493 -76 478 -62 q 509 -115 509 -91 q 486 -194 509 -153 q 431 -262 463 -235 q 378 -290 399 -290 z "},"Ṅ":{"ha":867,"x_min":83,"x_max":783,"o":"m 83 0 m 156 -2 q 83 36 83 -2 l 83 808 q 101 837 83 827 q 156 847 119 847 l 208 847 q 256 840 237 847 q 287 814 275 833 l 572 375 l 604 326 l 604 808 q 622 837 604 827 q 677 847 640 847 l 711 847 q 766 837 749 847 q 783 808 783 827 l 783 36 q 711 -2 783 -2 l 665 -2 q 617 4 635 -2 q 587 30 599 11 l 288 486 l 262 524 l 262 36 q 191 -2 262 -2 l 156 -2 m 435 909 q 362 949 362 909 l 362 1021 q 380 1050 362 1040 q 435 1060 397 1060 q 489 1050 472 1060 q 507 1021 507 1040 l 507 949 q 435 909 507 909 z "},"Ŋ":{"ha":867,"x_min":83,"x_max":783,"o":"m 711 847 q 766 837 749 847 q 783 808 783 827 l 783 -60 q 761 -168 783 -124 q 698 -234 738 -212 q 608 -256 659 -256 q 532 -250 559 -256 q 493 -231 505 -244 q 481 -193 481 -217 q 487 -158 481 -178 q 503 -124 493 -138 q 526 -110 513 -110 q 543 -112 531 -110 q 562 -115 554 -115 q 595 -102 585 -115 q 606 -62 606 -90 l 606 1 l 293 477 l 262 524 l 262 36 q 191 -2 262 -2 l 156 -2 q 83 36 83 -2 l 83 808 q 101 837 83 827 q 156 847 119 847 l 208 847 q 256 840 237 847 q 287 814 275 833 l 570 377 l 604 326 l 604 808 q 622 837 604 827 q 677 847 640 847 l 711 847 z "},"ǋ":{"ha":1200,"x_min":83,"x_max":1129,"o":"m 83 0 m 156 -2 q 83 36 83 -2 l 83 808 q 101 837 83 827 q 156 847 119 847 l 208 847 q 256 840 237 847 q 287 814 275 833 l 572 375 l 604 326 l 604 808 q 622 837 604 827 q 677 847 640 847 l 711 847 q 766 837 749 847 q 783 808 783 827 l 783 36 q 711 -2 783 -2 l 665 -2 q 617 4 635 -2 q 587 30 599 11 l 288 486 l 262 524 l 262 36 q 191 -2 262 -2 l 156 -2 m 1024 734 q 969 744 986 734 q 951 773 951 753 l 951 870 q 969 900 951 890 q 1024 909 987 909 l 1057 909 q 1112 900 1095 909 q 1129 870 1129 890 l 1129 773 q 1112 744 1129 753 q 1057 734 1095 734 l 1024 734 m 954 -256 q 878 -250 905 -256 q 839 -231 850 -244 q 827 -193 827 -217 q 833 -158 827 -178 q 849 -124 839 -138 q 871 -110 859 -110 q 888 -112 875 -110 q 908 -115 901 -115 q 941 -102 931 -115 q 951 -62 951 -90 l 951 595 q 969 623 951 614 q 1024 633 987 633 l 1057 633 q 1112 623 1095 633 q 1129 595 1129 614 l 1129 -60 q 1106 -168 1129 -124 q 1044 -234 1084 -212 q 954 -256 1005 -256 z "},"Ñ":{"ha":867,"x_min":83,"x_max":783,"o":"m 83 0 m 156 -2 q 83 36 83 -2 l 83 808 q 101 837 83 827 q 156 847 119 847 l 208 847 q 256 840 237 847 q 287 814 275 833 l 572 375 l 604 326 l 604 808 q 622 837 604 827 q 677 847 640 847 l 711 847 q 766 837 749 847 q 783 808 783 827 l 783 36 q 711 -2 783 -2 l 665 -2 q 617 4 635 -2 q 587 30 599 11 l 288 486 l 262 524 l 262 36 q 191 -2 262 -2 l 156 -2 m 231 916 q 204 949 204 924 q 208 965 204 957 q 255 1025 221 1001 q 339 1050 290 1050 q 376 1045 354 1050 q 432 1031 399 1040 q 475 1020 454 1025 q 509 1015 496 1015 q 548 1034 532 1015 q 582 1055 565 1055 q 597 1052 591 1055 l 611 1048 q 637 1016 637 1040 q 635 999 637 1010 q 586 939 621 964 q 503 914 551 914 q 410 933 479 914 q 334 950 353 949 q 294 930 311 950 q 260 909 277 909 q 244 912 252 909 l 231 916 z "},"O":{"ha":882,"x_min":54,"x_max":827,"o":"m 441 -10 q 231 40 317 -10 q 99 187 144 90 q 54 422 54 283 q 99 657 54 561 q 231 804 144 754 q 441 854 317 854 q 651 804 565 854 q 783 657 738 754 q 827 422 827 561 q 783 187 827 283 q 651 40 738 90 q 441 -10 565 -10 m 441 149 q 587 219 538 149 q 637 422 637 289 q 587 625 637 556 q 441 694 538 694 q 295 625 345 694 q 245 422 245 555 q 295 219 245 289 q 441 149 345 149 z "},"Ó":{"ha":882,"x_min":54,"x_max":827,"o":"m 54 0 m 441 -10 q 231 40 317 -10 q 99 187 144 90 q 54 422 54 283 q 99 657 54 561 q 231 804 144 754 q 441 854 317 854 q 651 804 565 854 q 783 657 738 754 q 827 422 827 561 q 783 187 827 283 q 651 40 738 90 q 441 -10 565 -10 m 441 149 q 587 219 538 149 q 637 422 637 289 q 587 625 637 556 q 441 694 538 694 q 295 625 345 694 q 245 422 245 555 q 295 219 245 289 q 441 149 345 149 m 395 906 q 365 910 373 906 q 357 924 357 914 q 366 945 357 930 q 388 984 374 961 q 435 1065 418 1034 q 472 1091 446 1084 q 538 1098 498 1098 q 593 1094 576 1098 q 610 1081 610 1090 q 604 1066 610 1074 q 567 1025 597 1059 l 485 937 q 452 915 471 923 q 395 906 433 906 z "},"Ŏ":{"ha":882,"x_min":54,"x_max":827,"o":"m 54 0 m 441 -10 q 231 40 317 -10 q 99 187 144 90 q 54 422 54 283 q 99 657 54 561 q 231 804 144 754 q 441 854 317 854 q 651 804 565 854 q 783 657 738 754 q 827 422 827 561 q 783 187 827 283 q 651 40 738 90 q 441 -10 565 -10 m 441 149 q 587 219 538 149 q 637 422 637 289 q 587 625 637 556 q 441 694 538 694 q 295 625 345 694 q 245 422 245 555 q 295 219 245 289 q 441 149 345 149 m 441 906 q 350 925 391 906 q 287 976 310 945 q 264 1042 264 1007 q 275 1066 264 1058 q 307 1075 286 1075 q 328 1070 320 1075 q 347 1053 336 1065 q 368 1034 358 1041 q 395 1021 377 1027 q 441 1016 413 1016 q 490 1022 471 1016 q 517 1035 509 1027 q 539 1055 526 1042 q 556 1070 548 1065 q 577 1075 564 1075 q 608 1066 597 1075 q 618 1042 618 1058 q 596 976 618 1007 q 532 925 573 945 q 441 906 492 906 z "},"Ô":{"ha":882,"x_min":54,"x_max":827,"o":"m 54 0 m 441 -10 q 231 40 317 -10 q 99 187 144 90 q 54 422 54 283 q 99 657 54 561 q 231 804 144 754 q 441 854 317 854 q 651 804 565 854 q 783 657 738 754 q 827 422 827 561 q 783 187 827 283 q 651 40 738 90 q 441 -10 565 -10 m 441 149 q 587 219 538 149 q 637 422 637 289 q 587 625 637 556 q 441 694 538 694 q 295 625 345 694 q 245 422 245 555 q 295 219 245 289 q 441 149 345 149 m 300 903 q 281 905 287 903 q 275 914 275 908 q 282 932 275 923 l 361 1055 q 386 1074 370 1070 q 435 1078 403 1078 l 448 1078 q 496 1074 479 1078 q 522 1055 512 1070 l 600 932 q 606 914 606 923 q 583 903 606 903 l 556 903 q 474 932 494 903 l 441 980 l 407 932 q 375 909 394 915 q 326 903 355 903 l 300 903 z "},"Ố":{"ha":882,"x_min":54,"x_max":827,"o":"m 578 995 q 557 999 563 995 q 552 1013 552 1003 q 557 1032 552 1018 q 571 1069 562 1046 l 594 1129 q 627 1155 604 1147 q 684 1162 650 1162 q 722 1156 710 1162 q 733 1133 733 1149 q 717 1103 733 1124 q 644 1013 701 1082 q 621 1000 635 1004 q 578 995 606 995 m 300 903 q 281 905 287 903 q 275 914 275 908 q 282 932 275 923 l 361 1055 q 386 1074 370 1070 q 435 1078 403 1078 l 448 1078 q 488 1074 474 1078 q 509 1055 501 1070 l 582 932 q 589 914 589 923 q 565 903 589 903 l 538 903 q 484 908 505 903 q 456 932 462 914 l 441 980 l 407 932 q 375 909 394 915 q 326 903 355 903 l 300 903 m 441 -10 q 231 40 317 -10 q 99 187 144 90 q 54 422 54 283 q 99 657 54 561 q 231 804 144 754 q 441 854 317 854 q 651 804 565 854 q 783 657 738 754 q 827 422 827 561 q 783 187 827 283 q 651 40 738 90 q 441 -10 565 -10 m 441 149 q 587 219 538 149 q 637 422 637 289 q 587 625 637 556 q 441 694 538 694 q 295 625 345 694 q 245 422 245 555 q 295 219 245 289 q 441 149 345 149 z "},"Ộ":{"ha":882,"x_min":54,"x_max":827,"o":"m 54 0 m 441 -10 q 231 40 317 -10 q 99 187 144 90 q 54 422 54 283 q 99 657 54 561 q 231 804 144 754 q 441 854 317 854 q 651 804 565 854 q 783 657 738 754 q 827 422 827 561 q 783 187 827 283 q 651 40 738 90 q 441 -10 565 -10 m 441 149 q 587 219 538 149 q 637 422 637 289 q 587 625 637 556 q 441 694 538 694 q 295 625 345 694 q 245 422 245 555 q 295 219 245 289 q 441 149 345 149 m 300 903 q 281 905 287 903 q 275 914 275 908 q 282 932 275 923 l 361 1055 q 386 1074 370 1070 q 435 1078 403 1078 l 448 1078 q 496 1074 479 1078 q 522 1055 512 1070 l 600 932 q 606 914 606 923 q 583 903 606 903 l 556 903 q 474 932 494 903 l 441 980 l 407 932 q 375 909 394 915 q 326 903 355 903 l 300 903 z "},"Ồ":{"ha":882,"x_min":54,"x_max":827,"o":"m 625 994 q 578 1002 595 994 q 551 1024 562 1010 l 502 1086 q 470 1129 475 1120 q 464 1144 464 1137 q 478 1157 464 1154 q 520 1160 492 1160 q 623 1128 608 1160 q 663 1011 663 1030 q 655 997 663 1001 q 625 994 647 994 m 300 903 q 281 905 287 903 q 275 914 275 908 q 282 932 275 923 l 361 1055 q 386 1074 370 1070 q 435 1078 403 1078 l 448 1078 q 488 1074 474 1078 q 509 1055 501 1070 l 582 932 q 589 914 589 923 q 565 903 589 903 l 538 903 q 484 908 505 903 q 456 932 462 914 l 441 980 l 407 932 q 375 909 394 915 q 326 903 355 903 l 300 903 m 441 -10 q 231 40 317 -10 q 99 187 144 90 q 54 422 54 283 q 99 657 54 561 q 231 804 144 754 q 441 854 317 854 q 651 804 565 854 q 783 657 738 754 q 827 422 827 561 q 783 187 827 283 q 651 40 738 90 q 441 -10 565 -10 m 441 149 q 587 219 538 149 q 637 422 637 289 q 587 625 637 556 q 441 694 538 694 q 295 625 345 694 q 245 422 245 555 q 295 219 245 289 q 441 149 345 149 z "},"Ổ":{"ha":882,"x_min":54,"x_max":827,"o":"m 606 1000 q 568 1008 583 1000 q 554 1026 554 1015 q 561 1035 554 1029 q 576 1045 567 1040 q 606 1061 598 1055 q 614 1078 614 1067 q 606 1094 614 1088 q 589 1099 598 1099 q 560 1095 571 1099 q 538 1084 549 1090 q 532 1081 536 1083 q 525 1078 528 1078 q 511 1087 520 1078 q 495 1109 502 1097 q 488 1129 488 1121 q 504 1145 488 1137 q 542 1158 519 1153 q 585 1163 564 1163 q 667 1141 637 1163 q 697 1084 697 1120 q 690 1054 697 1068 q 665 1027 683 1040 q 637 1009 654 1018 q 606 1000 620 1000 m 300 903 q 281 905 287 903 q 275 914 275 908 q 282 932 275 923 l 361 1055 q 386 1074 370 1070 q 435 1078 403 1078 l 448 1078 q 488 1074 474 1078 q 509 1055 501 1070 l 582 932 q 589 914 589 923 q 565 903 589 903 l 538 903 q 484 908 505 903 q 456 932 462 914 l 441 980 l 407 932 q 375 909 394 915 q 326 903 355 903 l 300 903 m 441 -10 q 231 40 317 -10 q 99 187 144 90 q 54 422 54 283 q 99 657 54 561 q 231 804 144 754 q 441 854 317 854 q 651 804 565 854 q 783 657 738 754 q 827 422 827 561 q 783 187 827 283 q 651 40 738 90 q 441 -10 565 -10 m 441 149 q 587 219 538 149 q 637 422 637 289 q 587 625 637 556 q 441 694 538 694 q 295 625 345 694 q 245 422 245 555 q 295 219 245 289 q 441 149 345 149 z "},"Ỗ":{"ha":882,"x_min":54,"x_max":827,"o":"m 262 1090 q 237 1123 237 1099 q 241 1139 237 1131 q 284 1200 252 1175 q 360 1224 315 1224 q 394 1219 374 1224 q 445 1205 414 1215 q 484 1195 465 1200 q 514 1189 503 1190 q 550 1208 535 1189 q 566 1224 559 1220 q 581 1229 573 1229 q 595 1226 589 1229 l 607 1223 q 631 1190 631 1215 q 629 1173 631 1184 q 585 1113 616 1138 q 509 1088 553 1088 q 476 1093 496 1088 q 425 1107 456 1098 q 355 1124 374 1123 q 319 1105 334 1124 q 288 1084 304 1084 q 274 1086 280 1084 l 262 1090 m 300 903 q 281 905 287 903 q 275 914 275 908 q 282 932 275 923 l 361 1027 q 390 1045 374 1041 q 435 1050 406 1050 l 448 1050 q 492 1045 476 1050 q 522 1027 509 1041 l 600 932 q 606 914 606 923 q 583 903 606 903 l 556 903 q 516 909 533 903 q 474 932 499 916 l 441 964 l 407 932 q 386 920 401 929 q 356 907 370 911 q 326 903 342 903 l 300 903 m 441 -10 q 231 40 317 -10 q 99 187 144 90 q 54 422 54 283 q 99 657 54 561 q 231 804 144 754 q 441 854 317 854 q 651 804 565 854 q 783 657 738 754 q 827 422 827 561 q 783 187 827 283 q 651 40 738 90 q 441 -10 565 -10 m 441 149 q 587 219 538 149 q 637 422 637 289 q 587 625 637 556 q 441 694 538 694 q 295 625 345 694 q 245 422 245 555 q 295 219 245 289 q 441 149 345 149 z "},"Ö":{"ha":882,"x_min":54,"x_max":827,"o":"m 54 0 m 441 -10 q 231 40 317 -10 q 99 187 144 90 q 54 422 54 283 q 99 657 54 561 q 231 804 144 754 q 441 854 317 854 q 651 804 565 854 q 783 657 738 754 q 827 422 827 561 q 783 187 827 283 q 651 40 738 90 q 441 -10 565 -10 m 441 149 q 587 219 538 149 q 637 422 637 289 q 587 625 637 556 q 441 694 538 694 q 295 625 345 694 q 245 422 245 555 q 295 219 245 289 q 441 149 345 149 m 333 909 q 261 949 261 909 l 261 1021 q 278 1050 261 1040 q 333 1060 296 1060 q 388 1050 370 1060 q 406 1021 406 1040 l 406 949 q 333 909 406 909 m 551 909 q 478 949 478 909 l 478 1021 q 496 1050 478 1040 q 551 1060 513 1060 q 605 1050 588 1060 q 623 1021 623 1040 l 623 949 q 551 909 623 909 z "},"Ọ":{"ha":882,"x_min":54,"x_max":827,"o":"m 54 0 m 441 -10 q 231 40 317 -10 q 99 187 144 90 q 54 422 54 283 q 99 657 54 561 q 231 804 144 754 q 441 854 317 854 q 651 804 565 854 q 783 657 738 754 q 827 422 827 561 q 783 187 827 283 q 651 40 738 90 q 441 -10 565 -10 m 441 149 q 587 219 538 149 q 637 422 637 289 q 587 625 637 556 q 441 694 538 694 q 295 625 345 694 q 245 422 245 555 q 295 219 245 289 q 441 149 345 149 z "},"Ò":{"ha":882,"x_min":54,"x_max":827,"o":"m 54 0 m 441 -10 q 231 40 317 -10 q 99 187 144 90 q 54 422 54 283 q 99 657 54 561 q 231 804 144 754 q 441 854 317 854 q 651 804 565 854 q 783 657 738 754 q 827 422 827 561 q 783 187 827 283 q 651 40 738 90 q 441 -10 565 -10 m 441 149 q 587 219 538 149 q 637 422 637 289 q 587 625 637 556 q 441 694 538 694 q 295 625 345 694 q 245 422 245 555 q 295 219 245 289 q 441 149 345 149 m 495 906 q 437 915 457 906 q 405 937 417 923 l 323 1025 q 286 1066 292 1059 q 280 1081 280 1074 q 297 1094 280 1090 q 352 1098 313 1098 q 418 1091 392 1098 q 454 1065 444 1084 l 505 979 q 525 944 517 958 q 532 924 532 930 q 525 910 532 914 q 495 906 517 906 z "},"Ỏ":{"ha":882,"x_min":54,"x_max":827,"o":"m 54 0 m 441 -10 q 231 40 317 -10 q 99 187 144 90 q 54 422 54 283 q 99 657 54 561 q 231 804 144 754 q 441 854 317 854 q 651 804 565 854 q 783 657 738 754 q 827 422 827 561 q 783 187 827 283 q 651 40 738 90 q 441 -10 565 -10 m 441 149 q 587 219 538 149 q 637 422 637 289 q 587 625 637 556 q 441 694 538 694 q 295 625 345 694 q 245 422 245 555 q 295 219 245 289 q 441 149 345 149 m 470 901 q 441 905 456 901 q 415 917 426 910 q 405 928 405 923 q 413 941 405 934 q 437 962 420 949 q 473 992 460 979 q 486 1019 486 1005 q 474 1038 486 1031 q 447 1045 463 1045 q 410 1035 429 1045 q 396 1030 401 1030 q 382 1039 391 1030 q 367 1061 374 1048 q 360 1081 360 1073 q 375 1098 360 1088 q 414 1113 391 1107 q 457 1119 437 1119 q 556 1094 522 1119 q 590 1023 590 1068 q 566 966 590 994 q 512 919 543 938 q 470 901 482 901 z "},"Ơ":{"ha":882,"x_min":54,"x_max":827,"o":"m 691 777 q 793 633 758 722 q 827 422 827 543 q 783 187 827 283 q 651 40 738 90 q 441 -10 565 -10 q 231 40 317 -10 q 99 187 144 90 q 54 422 54 283 q 99 657 54 561 q 231 804 144 754 q 441 854 317 854 q 612 823 538 854 l 642 823 q 685 834 671 823 q 699 867 699 845 q 693 886 699 877 q 680 907 688 895 q 667 929 667 922 q 681 952 667 943 l 719 979 q 739 985 727 985 q 766 968 753 985 q 787 927 779 951 q 795 885 795 903 q 769 814 795 842 q 691 777 744 786 m 441 149 q 587 219 538 149 q 637 422 637 289 q 587 625 637 556 q 441 694 538 694 q 295 625 345 694 q 245 422 245 555 q 295 219 245 289 q 441 149 345 149 z "},"Ớ":{"ha":882,"x_min":54,"x_max":827,"o":"m 395 906 q 365 910 373 906 q 357 924 357 914 q 366 945 357 930 q 388 984 374 961 q 435 1065 418 1034 q 472 1091 446 1084 q 538 1098 498 1098 q 593 1094 576 1098 q 610 1081 610 1090 q 604 1066 610 1074 q 567 1025 597 1059 l 485 937 q 452 915 471 923 q 395 906 433 906 m 691 777 q 793 633 758 722 q 827 422 827 543 q 783 187 827 283 q 651 40 738 90 q 441 -10 565 -10 q 231 40 317 -10 q 99 187 144 90 q 54 422 54 283 q 99 657 54 561 q 231 804 144 754 q 441 854 317 854 q 612 823 538 854 l 642 823 q 685 834 671 823 q 699 867 699 845 q 693 886 699 877 q 680 907 688 895 q 667 929 667 922 q 681 952 667 943 l 719 979 q 739 985 727 985 q 766 968 753 985 q 787 927 779 951 q 795 885 795 903 q 769 814 795 842 q 691 777 744 786 m 441 149 q 587 219 538 149 q 637 422 637 289 q 587 625 637 556 q 441 694 538 694 q 295 625 345 694 q 245 422 245 555 q 295 219 245 289 q 441 149 345 149 z "},"Ợ":{"ha":882,"x_min":54,"x_max":827,"o":"m 691 777 q 793 633 758 722 q 827 422 827 543 q 783 187 827 283 q 651 40 738 90 q 441 -10 565 -10 q 231 40 317 -10 q 99 187 144 90 q 54 422 54 283 q 99 657 54 561 q 231 804 144 754 q 441 854 317 854 q 612 823 538 854 l 642 823 q 685 834 671 823 q 699 867 699 845 q 693 886 699 877 q 680 907 688 895 q 667 929 667 922 q 681 952 667 943 l 719 979 q 739 985 727 985 q 766 968 753 985 q 787 927 779 951 q 795 885 795 903 q 769 814 795 842 q 691 777 744 786 m 441 149 q 587 219 538 149 q 637 422 637 289 q 587 625 637 556 q 441 694 538 694 q 295 625 345 694 q 245 422 245 555 q 295 219 245 289 q 441 149 345 149 m 446 -96 q 500 -106 483 -96 q 517 -135 517 -115 l 517 -208 q 500 -236 517 -227 q 446 -246 483 -246 q 373 -208 373 -246 l 373 -135 q 390 -106 373 -115 q 446 -96 408 -96 z "},"Ờ":{"ha":882,"x_min":54,"x_max":827,"o":"m 495 906 q 437 915 457 906 q 405 937 417 923 l 323 1025 q 286 1066 292 1059 q 280 1081 280 1074 q 297 1094 280 1090 q 352 1098 313 1098 q 418 1091 392 1098 q 454 1065 444 1084 l 505 979 q 525 944 517 958 q 532 924 532 930 q 525 910 532 914 q 495 906 517 906 m 691 777 q 793 633 758 722 q 827 422 827 543 q 783 187 827 283 q 651 40 738 90 q 441 -10 565 -10 q 231 40 317 -10 q 99 187 144 90 q 54 422 54 283 q 99 657 54 561 q 231 804 144 754 q 441 854 317 854 q 612 823 538 854 l 642 823 q 685 834 671 823 q 699 867 699 845 q 693 886 699 877 q 680 907 688 895 q 667 929 667 922 q 681 952 667 943 l 719 979 q 739 985 727 985 q 766 968 753 985 q 787 927 779 951 q 795 885 795 903 q 769 814 795 842 q 691 777 744 786 m 441 149 q 587 219 538 149 q 637 422 637 289 q 587 625 637 556 q 441 694 538 694 q 295 625 345 694 q 245 422 245 555 q 295 219 245 289 q 441 149 345 149 z "},"Ở":{"ha":882,"x_min":54,"x_max":827,"o":"m 397 1030 q 383 1039 392 1030 q 367 1061 374 1048 q 360 1081 360 1073 q 375 1098 360 1088 q 414 1113 391 1107 q 457 1119 437 1119 q 556 1094 522 1119 q 590 1023 590 1068 q 566 966 590 994 q 512 919 543 938 q 470 901 482 901 q 441 905 456 901 q 415 917 426 910 q 405 928 405 923 q 413 941 405 934 q 437 962 420 949 q 473 992 460 979 q 486 1019 486 1005 q 474 1038 486 1031 q 447 1045 463 1045 q 410 1035 429 1045 q 397 1030 401 1030 m 691 777 q 793 633 758 722 q 827 422 827 543 q 783 187 827 283 q 651 40 738 90 q 441 -10 565 -10 q 231 40 317 -10 q 99 187 144 90 q 54 422 54 283 q 99 657 54 561 q 231 804 144 754 q 441 854 317 854 q 612 823 538 854 l 642 823 q 685 834 671 823 q 699 867 699 845 q 693 886 699 877 q 680 907 688 895 q 667 929 667 922 q 681 952 667 943 l 719 979 q 739 985 727 985 q 766 968 753 985 q 787 927 779 951 q 795 885 795 903 q 769 814 795 842 q 691 777 744 786 m 441 149 q 587 219 538 149 q 637 422 637 289 q 587 625 637 556 q 441 694 538 694 q 295 625 345 694 q 245 422 245 555 q 295 219 245 289 q 441 149 345 149 z "},"Ỡ":{"ha":882,"x_min":54,"x_max":827,"o":"m 252 916 q 227 949 227 924 q 231 965 227 957 q 274 1025 242 1001 q 350 1050 305 1050 q 384 1045 363 1050 q 435 1031 404 1040 q 474 1020 454 1025 q 504 1015 493 1015 q 540 1034 525 1015 q 556 1050 549 1046 q 570 1055 563 1055 q 585 1052 578 1055 l 597 1048 q 621 1016 621 1040 q 618 999 621 1010 q 575 939 606 964 q 499 914 543 914 q 466 919 486 914 q 414 933 446 924 q 345 950 364 949 q 309 930 324 950 q 277 909 294 909 q 264 912 270 909 l 252 916 m 691 777 q 793 633 758 722 q 827 422 827 543 q 783 187 827 283 q 651 40 738 90 q 441 -10 565 -10 q 231 40 317 -10 q 99 187 144 90 q 54 422 54 283 q 99 657 54 561 q 231 804 144 754 q 441 854 317 854 q 612 823 538 854 l 642 823 q 685 834 671 823 q 699 867 699 845 q 693 886 699 877 q 680 907 688 895 q 667 929 667 922 q 681 952 667 943 l 719 979 q 739 985 727 985 q 766 968 753 985 q 787 927 779 951 q 795 885 795 903 q 769 814 795 842 q 691 777 744 786 m 441 149 q 587 219 538 149 q 637 422 637 289 q 587 625 637 556 q 441 694 538 694 q 295 625 345 694 q 245 422 245 555 q 295 219 245 289 q 441 149 345 149 z "},"Ő":{"ha":882,"x_min":54,"x_max":827,"o":"m 54 0 m 441 -10 q 231 40 317 -10 q 99 187 144 90 q 54 422 54 283 q 99 657 54 561 q 231 804 144 754 q 441 854 317 854 q 651 804 565 854 q 783 657 738 754 q 827 422 827 561 q 783 187 827 283 q 651 40 738 90 q 441 -10 565 -10 m 441 149 q 587 219 538 149 q 637 422 637 289 q 587 625 637 556 q 441 694 538 694 q 295 625 345 694 q 245 422 245 555 q 295 219 245 289 q 441 149 345 149 m 293 906 q 263 910 271 906 q 255 924 255 914 q 262 943 255 929 q 282 977 270 957 q 334 1065 302 1009 q 371 1091 345 1084 q 437 1098 397 1098 q 492 1094 475 1098 q 509 1081 509 1090 q 504 1067 509 1074 q 469 1029 498 1059 q 383 937 445 1004 q 351 915 371 923 q 293 906 331 906 m 514 906 q 485 910 492 906 q 477 924 477 914 q 485 945 477 930 q 507 984 494 961 q 555 1065 537 1034 q 591 1091 565 1084 q 657 1098 617 1098 q 712 1094 695 1098 q 729 1081 729 1090 q 723 1066 729 1074 q 686 1025 717 1059 l 604 937 q 572 915 592 923 q 514 906 552 906 z "},"Ō":{"ha":882,"x_min":54,"x_max":827,"o":"m 54 0 m 441 -10 q 231 40 317 -10 q 99 187 144 90 q 54 422 54 283 q 99 657 54 561 q 231 804 144 754 q 441 854 317 854 q 651 804 565 854 q 783 657 738 754 q 827 422 827 561 q 783 187 827 283 q 651 40 738 90 q 441 -10 565 -10 m 441 149 q 587 219 538 149 q 637 422 637 289 q 587 625 637 556 q 441 694 538 694 q 295 625 345 694 q 245 422 245 555 q 295 219 245 289 q 441 149 345 149 m 312 932 q 284 944 293 932 q 275 981 275 956 l 275 999 q 284 1036 275 1024 q 312 1047 292 1047 l 571 1047 q 599 1036 590 1047 q 608 999 608 1024 l 608 981 q 599 944 608 956 q 571 932 590 932 l 312 932 z "},"Ǫ":{"ha":882,"x_min":54,"x_max":827,"o":"m 827 422 q 752 133 827 242 q 534 -2 677 24 l 534 -6 q 529 -29 534 -13 q 523 -53 525 -43 q 521 -75 521 -62 q 543 -125 521 -113 q 596 -136 565 -136 q 631 -131 613 -136 q 655 -127 646 -127 q 674 -135 667 -127 q 682 -161 682 -144 q 583 -221 682 -221 q 470 -181 499 -221 q 441 -98 441 -142 q 446 -54 441 -79 q 463 -9 451 -28 l 441 -10 q 231 40 317 -10 q 99 187 144 90 q 54 422 54 283 q 99 657 54 561 q 231 804 144 754 q 441 854 317 854 q 651 804 565 854 q 783 657 738 754 q 827 422 827 561 m 441 149 q 587 219 538 149 q 637 422 637 289 q 587 625 637 556 q 441 694 538 694 q 295 625 345 694 q 245 422 245 555 q 295 219 245 289 q 441 149 345 149 z "},"Ø":{"ha":882,"x_min":23,"x_max":827,"o":"m 441 -10 q 292 13 359 -10 q 177 80 226 35 l 108 0 q 81 -15 95 -15 q 57 -5 71 -15 q 33 17 43 4 q 23 41 23 31 q 35 66 23 54 l 115 156 q 54 422 54 261 q 99 657 54 561 q 231 804 144 754 q 441 854 317 854 q 675 787 582 854 l 738 859 q 765 873 751 873 q 788 863 774 873 q 812 841 802 854 q 823 817 823 827 q 810 793 823 805 l 745 720 q 806 590 785 665 q 827 422 827 515 q 783 187 827 283 q 651 40 738 90 q 441 -10 565 -10 m 559 656 q 441 694 512 694 q 295 625 345 694 q 245 422 245 555 q 254 313 245 370 l 559 656 m 441 149 q 587 219 538 149 q 637 422 637 289 q 614 572 637 508 l 298 215 q 441 149 349 149 z "},"Ǿ":{"ha":882,"x_min":23,"x_max":827,"o":"m 23 0 m 441 -10 q 292 13 359 -10 q 177 80 226 35 l 108 0 q 81 -15 95 -15 q 57 -5 71 -15 q 33 17 43 4 q 23 41 23 31 q 35 66 23 54 l 115 156 q 54 422 54 261 q 99 657 54 561 q 231 804 144 754 q 441 854 317 854 q 675 787 582 854 l 738 859 q 765 873 751 873 q 788 863 774 873 q 812 841 802 854 q 823 817 823 827 q 810 793 823 805 l 745 720 q 806 590 785 665 q 827 422 827 515 q 783 187 827 283 q 651 40 738 90 q 441 -10 565 -10 m 559 656 q 441 694 512 694 q 295 625 345 694 q 245 422 245 555 q 254 313 245 370 l 559 656 m 441 149 q 587 219 538 149 q 637 422 637 289 q 614 572 637 508 l 298 215 q 441 149 349 149 m 395 906 q 365 910 373 906 q 357 924 357 914 q 366 945 357 930 q 388 984 374 961 q 435 1065 418 1034 q 472 1091 446 1084 q 538 1098 498 1098 q 593 1094 576 1098 q 610 1081 610 1090 q 604 1066 610 1074 q 567 1025 597 1059 l 485 937 q 452 915 471 923 q 395 906 433 906 z "},"Õ":{"ha":882,"x_min":54,"x_max":827,"o":"m 54 0 m 441 -10 q 231 40 317 -10 q 99 187 144 90 q 54 422 54 283 q 99 657 54 561 q 231 804 144 754 q 441 854 317 854 q 651 804 565 854 q 783 657 738 754 q 827 422 827 561 q 783 187 827 283 q 651 40 738 90 q 441 -10 565 -10 m 441 149 q 587 219 538 149 q 637 422 637 289 q 587 625 637 556 q 441 694 538 694 q 295 625 345 694 q 245 422 245 555 q 295 219 245 289 q 441 149 345 149 m 238 916 q 211 949 211 924 q 214 965 211 957 q 262 1025 228 1001 q 346 1050 296 1050 q 383 1045 361 1050 q 439 1031 406 1040 q 482 1020 460 1025 q 515 1015 503 1015 q 555 1034 538 1015 q 589 1055 572 1055 q 604 1052 597 1055 l 618 1048 q 644 1016 644 1040 q 642 999 644 1010 q 593 939 628 964 q 510 914 558 914 q 416 933 486 914 q 340 950 359 949 q 300 930 318 950 q 267 909 283 909 q 251 912 258 909 l 238 916 z "},"Œ":{"ha":1231,"x_min":54,"x_max":1166,"o":"m 1130 158 q 1158 144 1149 158 q 1166 98 1166 130 l 1166 60 q 1158 15 1166 29 q 1130 0 1149 0 l 688 0 q 651 11 663 0 q 639 45 640 22 q 429 -10 551 -10 q 225 40 309 -10 q 98 187 141 90 q 54 422 54 283 q 98 657 54 561 q 225 804 141 754 q 429 854 309 854 q 639 798 552 854 q 651 833 639 822 q 688 844 663 844 l 1128 844 q 1156 829 1147 844 q 1164 783 1164 815 l 1164 747 q 1156 701 1164 715 q 1128 686 1147 686 l 825 686 l 825 511 l 1096 511 q 1123 497 1115 511 q 1132 451 1132 483 l 1132 414 q 1123 368 1132 382 q 1096 353 1115 353 l 825 353 l 825 158 l 1130 158 m 441 149 q 587 219 538 149 q 637 422 637 289 q 587 625 637 556 q 441 694 538 694 q 295 625 345 694 q 245 422 245 555 q 295 219 245 289 q 441 149 345 149 z "},"P":{"ha":688,"x_min":83,"x_max":671,"o":"m 156 -2 q 83 36 83 -2 l 83 796 q 95 832 83 821 q 132 844 106 844 l 385 844 q 585 789 498 844 q 671 580 671 734 q 621 415 671 474 q 508 336 571 357 q 397 316 446 316 l 269 316 l 269 36 q 197 -2 269 -2 l 156 -2 m 376 475 q 451 498 420 475 q 481 580 481 522 q 450 663 481 639 q 376 686 419 686 l 269 686 l 269 475 l 376 475 z "},"Þ":{"ha":684,"x_min":82,"x_max":679,"o":"m 155 -2 q 82 36 82 -2 l 82 808 q 100 837 82 827 q 155 847 117 847 l 195 847 q 250 837 233 847 q 267 808 267 827 l 267 715 l 392 715 q 592 660 505 715 q 679 451 679 605 q 628 287 679 345 q 515 208 578 228 q 404 187 453 187 l 267 187 l 267 36 q 195 -2 267 -2 l 155 -2 m 383 346 q 457 369 427 346 q 488 451 488 393 q 457 533 488 509 q 383 557 427 557 l 267 557 l 267 346 l 383 346 z "},"Q":{"ha":882,"x_min":54,"x_max":839,"o":"m 773 -176 q 733 -163 767 -176 q 610 -114 699 -150 l 274 20 q 111 164 167 62 q 54 422 54 267 q 99 657 54 561 q 231 804 144 754 q 441 854 317 854 q 651 804 565 854 q 783 657 738 754 q 827 422 827 561 q 779 182 827 280 q 637 38 730 85 l 637 33 l 823 -34 q 839 -53 839 -40 q 829 -96 839 -65 q 805 -151 820 -127 q 773 -176 790 -176 m 441 144 q 587 215 538 144 q 637 422 637 286 q 587 625 637 556 q 441 694 538 694 q 295 625 345 694 q 245 422 245 555 q 295 215 245 286 q 441 144 345 144 z "},"R":{"ha":736,"x_min":83,"x_max":724,"o":"m 156 -2 q 83 36 83 -2 l 83 796 q 95 832 83 821 q 132 844 106 844 l 367 844 q 667 618 667 844 q 628 500 667 549 q 526 426 590 450 l 526 421 q 573 380 548 412 q 612 310 597 349 l 719 45 q 724 22 724 28 q 652 -2 724 -2 l 603 -2 q 533 23 543 -2 l 437 258 q 411 300 424 286 q 376 323 399 315 q 316 331 354 331 l 269 331 l 269 36 q 197 -2 269 -2 l 156 -2 m 383 491 q 429 505 408 491 q 464 543 451 519 q 477 595 477 566 q 449 662 477 637 q 375 686 422 686 l 269 686 l 269 491 l 383 491 z "},"Ŕ":{"ha":736,"x_min":83,"x_max":724,"o":"m 83 0 m 156 -2 q 83 36 83 -2 l 83 796 q 95 832 83 821 q 132 844 106 844 l 367 844 q 667 618 667 844 q 628 500 667 549 q 526 426 590 450 l 526 421 q 573 380 548 412 q 612 310 597 349 l 719 45 q 724 22 724 28 q 652 -2 724 -2 l 603 -2 q 533 23 543 -2 l 437 258 q 411 300 424 286 q 376 323 399 315 q 316 331 354 331 l 269 331 l 269 36 q 197 -2 269 -2 l 156 -2 m 383 491 q 429 505 408 491 q 464 543 451 519 q 477 595 477 566 q 449 662 477 637 q 375 686 422 686 l 269 686 l 269 491 l 383 491 m 321 906 q 292 910 300 906 q 284 924 284 914 q 293 945 284 930 q 315 984 301 961 q 362 1065 345 1034 q 398 1091 372 1084 q 465 1098 425 1098 q 519 1094 503 1098 q 536 1081 536 1090 q 530 1066 536 1074 q 494 1025 524 1059 l 412 937 q 379 915 398 923 q 321 906 359 906 z "},"Ř":{"ha":736,"x_min":83,"x_max":724,"o":"m 83 0 m 156 -2 q 83 36 83 -2 l 83 796 q 95 832 83 821 q 132 844 106 844 l 367 844 q 667 618 667 844 q 628 500 667 549 q 526 426 590 450 l 526 421 q 573 380 548 412 q 612 310 597 349 l 719 45 q 724 22 724 28 q 652 -2 724 -2 l 603 -2 q 533 23 543 -2 l 437 258 q 411 300 424 286 q 376 323 399 315 q 316 331 354 331 l 269 331 l 269 36 q 197 -2 269 -2 l 156 -2 m 383 491 q 429 505 408 491 q 464 543 451 519 q 477 595 477 566 q 449 662 477 637 q 375 686 422 686 l 269 686 l 269 491 l 383 491 m 361 903 q 313 907 330 903 q 287 926 296 911 l 208 1048 q 201 1067 201 1058 q 207 1076 201 1073 q 226 1078 213 1078 l 252 1078 q 301 1072 282 1078 q 333 1048 320 1066 l 367 1001 l 400 1050 q 432 1072 411 1066 q 482 1078 453 1078 l 509 1078 q 532 1067 532 1078 q 526 1048 532 1058 l 448 926 q 421 907 438 911 q 374 903 405 903 l 361 903 z "},"Ŗ":{"ha":736,"x_min":83,"x_max":724,"o":"m 83 0 m 156 -2 q 83 36 83 -2 l 83 796 q 95 832 83 821 q 132 844 106 844 l 367 844 q 667 618 667 844 q 628 500 667 549 q 526 426 590 450 l 526 421 q 573 380 548 412 q 612 310 597 349 l 719 45 q 724 22 724 28 q 652 -2 724 -2 l 603 -2 q 533 23 543 -2 l 437 258 q 411 300 424 286 q 376 323 399 315 q 316 331 354 331 l 269 331 l 269 36 q 197 -2 269 -2 l 156 -2 m 383 491 q 429 505 408 491 q 464 543 451 519 q 477 595 477 566 q 449 662 477 637 q 375 686 422 686 l 269 686 l 269 491 l 383 491 m 312 -290 q 275 -283 292 -290 q 258 -262 258 -276 q 264 -238 258 -255 q 280 -184 275 -211 q 286 -115 286 -158 q 304 -76 286 -90 q 359 -62 322 -62 l 382 -62 q 427 -76 412 -62 q 442 -115 442 -91 q 419 -194 442 -153 q 365 -262 396 -235 q 312 -290 333 -290 z "},"Ṛ":{"ha":736,"x_min":83,"x_max":724,"o":"m 83 0 m 156 -2 q 83 36 83 -2 l 83 796 q 95 832 83 821 q 132 844 106 844 l 367 844 q 667 618 667 844 q 628 500 667 549 q 526 426 590 450 l 526 421 q 573 380 548 412 q 612 310 597 349 l 719 45 q 724 22 724 28 q 652 -2 724 -2 l 603 -2 q 533 23 543 -2 l 437 258 q 411 300 424 286 q 376 323 399 315 q 316 331 354 331 l 269 331 l 269 36 q 197 -2 269 -2 l 156 -2 m 383 491 q 429 505 408 491 q 464 543 451 519 q 477 595 477 566 q 449 662 477 637 q 375 686 422 686 l 269 686 l 269 491 l 383 491 z "},"S":{"ha":603,"x_min":26,"x_max":582,"o":"m 310 -10 q 160 7 224 -10 q 61 50 95 24 q 26 97 26 75 q 40 140 26 115 q 71 185 53 166 q 102 203 90 203 q 134 191 109 203 q 203 160 170 172 q 279 149 236 149 q 359 167 326 149 q 392 233 392 186 q 375 279 392 260 q 332 313 358 299 q 260 345 305 326 l 206 368 q 122 420 157 391 q 65 495 87 448 q 43 610 43 542 q 84 747 43 692 q 190 828 125 802 q 330 854 255 854 q 440 841 391 854 q 518 809 490 829 q 546 770 546 789 q 535 728 546 753 q 509 684 525 703 q 480 665 494 665 q 458 671 474 665 q 408 688 433 682 q 346 694 382 694 q 258 674 283 694 q 234 627 234 654 q 251 575 234 596 q 293 541 267 554 q 363 509 318 527 q 475 454 432 480 q 550 379 519 428 q 582 254 582 330 q 543 102 582 161 q 443 16 504 43 q 310 -10 381 -10 z "},"Ś":{"ha":603,"x_min":26,"x_max":582,"o":"m 26 0 m 310 -10 q 160 7 224 -10 q 61 50 95 24 q 26 97 26 75 q 40 140 26 115 q 71 185 53 166 q 102 203 90 203 q 134 191 109 203 q 203 160 170 172 q 279 149 236 149 q 359 167 326 149 q 392 233 392 186 q 375 279 392 260 q 332 313 358 299 q 260 345 305 326 l 206 368 q 122 420 157 391 q 65 495 87 448 q 43 610 43 542 q 84 747 43 692 q 190 828 125 802 q 330 854 255 854 q 440 841 391 854 q 518 809 490 829 q 546 770 546 789 q 535 728 546 753 q 509 684 525 703 q 480 665 494 665 q 458 671 474 665 q 408 688 433 682 q 346 694 382 694 q 258 674 283 694 q 234 627 234 654 q 251 575 234 596 q 293 541 267 554 q 363 509 318 527 q 475 454 432 480 q 550 379 519 428 q 582 254 582 330 q 543 102 582 161 q 443 16 504 43 q 310 -10 381 -10 m 256 906 q 226 910 234 906 q 218 924 218 914 q 227 945 218 930 q 249 984 235 961 q 296 1065 279 1034 q 333 1091 307 1084 q 399 1098 359 1098 q 454 1094 437 1098 q 471 1081 471 1090 q 465 1066 471 1074 q 428 1025 458 1059 l 346 937 q 313 915 332 923 q 256 906 294 906 z "},"Š":{"ha":603,"x_min":26,"x_max":582,"o":"m 26 0 m 310 -10 q 160 7 224 -10 q 61 50 95 24 q 26 97 26 75 q 40 140 26 115 q 71 185 53 166 q 102 203 90 203 q 134 191 109 203 q 203 160 170 172 q 279 149 236 149 q 359 167 326 149 q 392 233 392 186 q 375 279 392 260 q 332 313 358 299 q 260 345 305 326 l 206 368 q 122 420 157 391 q 65 495 87 448 q 43 610 43 542 q 84 747 43 692 q 190 828 125 802 q 330 854 255 854 q 440 841 391 854 q 518 809 490 829 q 546 770 546 789 q 535 728 546 753 q 509 684 525 703 q 480 665 494 665 q 458 671 474 665 q 408 688 433 682 q 346 694 382 694 q 258 674 283 694 q 234 627 234 654 q 251 575 234 596 q 293 541 267 554 q 363 509 318 527 q 475 454 432 480 q 550 379 519 428 q 582 254 582 330 q 543 102 582 161 q 443 16 504 43 q 310 -10 381 -10 m 295 903 q 247 907 264 903 q 221 926 230 911 l 142 1048 q 136 1067 136 1058 q 141 1076 136 1073 q 160 1078 147 1078 l 186 1078 q 235 1072 216 1078 q 267 1048 254 1066 l 301 1001 l 334 1050 q 366 1072 345 1066 q 416 1078 387 1078 l 444 1078 q 467 1067 467 1078 q 460 1048 467 1058 l 382 926 q 356 907 372 911 q 308 903 339 903 l 295 903 z "},"Ş":{"ha":603,"x_min":26,"x_max":582,"o":"m 582 254 q 548 111 582 168 q 459 25 514 54 q 340 -9 405 -3 l 330 -44 q 396 -71 368 -49 q 423 -135 423 -93 q 388 -226 423 -196 q 280 -256 352 -256 q 208 -248 245 -256 q 146 -227 171 -241 q 121 -195 121 -214 q 129 -165 121 -177 q 146 -148 136 -153 q 161 -142 155 -142 q 179 -145 168 -142 q 199 -152 189 -149 q 234 -163 218 -159 q 271 -168 251 -168 q 293 -162 286 -168 q 300 -147 300 -157 q 292 -131 300 -137 q 267 -117 284 -125 q 243 -105 252 -111 q 235 -89 235 -98 q 258 -8 235 -81 q 135 15 187 -3 q 54 55 82 32 q 26 97 26 77 q 40 140 26 115 q 71 185 53 166 q 102 203 90 203 q 134 191 109 203 q 203 160 170 172 q 279 149 236 149 q 359 167 326 149 q 392 233 392 186 q 375 279 392 260 q 332 313 358 299 q 260 345 305 326 l 206 368 q 122 420 157 391 q 65 495 87 448 q 43 610 43 542 q 84 747 43 692 q 190 828 125 802 q 330 854 255 854 q 440 841 391 854 q 518 809 490 829 q 546 770 546 789 q 535 728 546 753 q 509 684 525 703 q 480 665 494 665 q 458 671 474 665 q 408 688 433 682 q 346 694 382 694 q 258 674 283 694 q 234 627 234 654 q 251 575 234 596 q 293 541 267 554 q 363 509 318 527 q 475 454 432 480 q 550 379 519 428 q 582 254 582 330 z "},"Ŝ":{"ha":603,"x_min":26,"x_max":582,"o":"m 26 0 m 310 -10 q 160 7 224 -10 q 61 50 95 24 q 26 97 26 75 q 40 140 26 115 q 71 185 53 166 q 102 203 90 203 q 134 191 109 203 q 203 160 170 172 q 279 149 236 149 q 359 167 326 149 q 392 233 392 186 q 375 279 392 260 q 332 313 358 299 q 260 345 305 326 l 206 368 q 122 420 157 391 q 65 495 87 448 q 43 610 43 542 q 84 747 43 692 q 190 828 125 802 q 330 854 255 854 q 440 841 391 854 q 518 809 490 829 q 546 770 546 789 q 535 728 546 753 q 509 684 525 703 q 480 665 494 665 q 458 671 474 665 q 408 688 433 682 q 346 694 382 694 q 258 674 283 694 q 234 627 234 654 q 251 575 234 596 q 293 541 267 554 q 363 509 318 527 q 475 454 432 480 q 550 379 519 428 q 582 254 582 330 q 543 102 582 161 q 443 16 504 43 q 310 -10 381 -10 m 160 903 q 141 905 147 903 q 136 914 136 908 q 142 932 136 923 l 221 1055 q 247 1074 230 1070 q 295 1078 263 1078 l 308 1078 q 356 1074 340 1078 q 382 1055 372 1070 l 460 932 q 467 914 467 923 q 444 903 467 903 l 416 903 q 334 932 354 903 l 301 980 l 267 932 q 235 909 254 915 q 186 903 216 903 l 160 903 z "},"Ș":{"ha":603,"x_min":26,"x_max":582,"o":"m 26 0 m 310 -10 q 160 7 224 -10 q 61 50 95 24 q 26 97 26 75 q 40 140 26 115 q 71 185 53 166 q 102 203 90 203 q 134 191 109 203 q 203 160 170 172 q 279 149 236 149 q 359 167 326 149 q 392 233 392 186 q 375 279 392 260 q 332 313 358 299 q 260 345 305 326 l 206 368 q 122 420 157 391 q 65 495 87 448 q 43 610 43 542 q 84 747 43 692 q 190 828 125 802 q 330 854 255 854 q 440 841 391 854 q 518 809 490 829 q 546 770 546 789 q 535 728 546 753 q 509 684 525 703 q 480 665 494 665 q 458 671 474 665 q 408 688 433 682 q 346 694 382 694 q 258 674 283 694 q 234 627 234 654 q 251 575 234 596 q 293 541 267 554 q 363 509 318 527 q 475 454 432 480 q 550 379 519 428 q 582 254 582 330 q 543 102 582 161 q 443 16 504 43 q 310 -10 381 -10 m 246 -290 q 209 -283 227 -290 q 192 -262 192 -276 q 199 -238 192 -255 q 215 -184 209 -211 q 220 -115 220 -158 q 238 -76 220 -90 q 293 -62 256 -62 l 316 -62 q 361 -76 346 -62 q 376 -115 376 -91 q 353 -194 376 -153 q 299 -262 330 -235 q 246 -290 267 -290 z "},"Ṣ":{"ha":603,"x_min":26,"x_max":582,"o":"m 26 0 m 310 -10 q 160 7 224 -10 q 61 50 95 24 q 26 97 26 75 q 40 140 26 115 q 71 185 53 166 q 102 203 90 203 q 134 191 109 203 q 203 160 170 172 q 279 149 236 149 q 359 167 326 149 q 392 233 392 186 q 375 279 392 260 q 332 313 358 299 q 260 345 305 326 l 206 368 q 122 420 157 391 q 65 495 87 448 q 43 610 43 542 q 84 747 43 692 q 190 828 125 802 q 330 854 255 854 q 440 841 391 854 q 518 809 490 829 q 546 770 546 789 q 535 728 546 753 q 509 684 525 703 q 480 665 494 665 q 458 671 474 665 q 408 688 433 682 q 346 694 382 694 q 258 674 283 694 q 234 627 234 654 q 251 575 234 596 q 293 541 267 554 q 363 509 318 527 q 475 454 432 480 q 550 379 519 428 q 582 254 582 330 q 543 102 582 161 q 443 16 504 43 q 310 -10 381 -10 z "},"ẞ":{"ha":844,"x_min":80,"x_max":814,"o":"m 553 -10 q 456 0 508 -10 q 366 33 404 10 q 328 89 328 55 q 338 123 328 101 q 361 163 347 146 q 387 180 374 180 q 401 175 392 180 q 414 168 411 170 q 467 142 441 152 q 526 132 492 132 q 604 162 574 132 q 633 249 633 193 q 600 340 633 309 q 505 372 567 372 l 472 372 q 451 391 462 372 q 432 436 440 410 q 425 479 425 463 q 427 491 425 486 l 546 688 q 418 694 484 694 q 304 650 342 694 q 267 519 267 605 l 267 36 q 194 -2 267 -2 l 153 -2 q 80 36 80 -2 l 80 521 q 166 770 80 686 q 422 854 253 854 q 576 848 496 854 q 721 832 656 842 q 741 810 730 831 q 759 763 751 789 q 766 721 766 736 q 765 711 766 714 l 629 494 q 723 445 684 473 q 788 368 763 417 q 814 246 814 319 q 781 110 814 168 q 689 21 748 52 q 553 -10 630 -10 z "},"Ə":{"ha":810,"x_min":46,"x_max":720,"o":"m 367 -1 q 184 50 256 -1 q 79 188 113 102 q 46 382 46 275 q 58 409 46 392 q 85 440 70 427 q 108 454 100 454 l 536 454 q 506 609 529 552 q 444 689 482 666 q 349 713 405 713 q 256 700 298 713 q 170 666 214 686 q 130 651 138 651 q 103 668 118 651 q 78 708 89 686 q 68 743 68 730 q 118 804 68 779 q 237 841 168 829 q 357 854 306 854 q 630 734 541 854 q 720 400 720 614 q 626 96 720 193 q 367 -1 532 -1 m 367 140 q 477 184 433 140 q 536 334 521 229 l 220 334 q 256 192 220 245 q 367 140 293 140 z "},"T":{"ha":662,"x_min":10,"x_max":652,"o":"m 310 -2 q 237 36 237 -2 l 237 686 l 46 686 q 19 701 27 686 q 10 747 10 715 l 10 783 q 19 829 10 815 q 46 844 27 844 l 616 844 q 644 829 635 844 q 652 783 652 815 l 652 747 q 644 701 652 715 q 616 686 635 686 l 425 686 l 425 36 q 352 -2 425 -2 l 310 -2 z "},"Ŧ":{"ha":662,"x_min":10,"x_max":652,"o":"m 616 844 q 644 829 635 844 q 652 783 652 815 l 652 747 q 644 701 652 715 q 616 686 635 686 l 425 686 l 425 481 l 549 481 q 577 469 569 481 q 586 433 586 458 l 586 414 q 577 378 586 389 q 549 367 568 367 l 425 367 l 425 36 q 352 -2 425 -2 l 310 -2 q 237 36 237 -2 l 237 367 l 122 367 q 94 378 103 367 q 85 414 85 389 l 85 433 q 94 469 85 458 q 122 481 102 481 l 237 481 l 237 686 l 46 686 q 19 701 27 686 q 10 747 10 715 l 10 783 q 19 829 10 815 q 46 844 27 844 l 616 844 z "},"Ť":{"ha":662,"x_min":10,"x_max":652,"o":"m 10 0 m 310 -2 q 237 36 237 -2 l 237 686 l 46 686 q 19 701 27 686 q 10 747 10 715 l 10 783 q 19 829 10 815 q 46 844 27 844 l 616 844 q 644 829 635 844 q 652 783 652 815 l 652 747 q 644 701 652 715 q 616 686 635 686 l 425 686 l 425 36 q 352 -2 425 -2 l 310 -2 m 325 903 q 277 907 294 903 q 251 926 260 911 l 172 1048 q 165 1067 165 1058 q 171 1076 165 1073 q 190 1078 177 1078 l 216 1078 q 265 1072 246 1078 q 297 1048 284 1066 l 331 1001 l 364 1050 q 396 1072 375 1066 q 446 1078 417 1078 l 473 1078 q 496 1067 496 1078 q 490 1048 496 1058 l 412 926 q 386 907 402 911 q 338 903 369 903 l 325 903 z "},"Ţ":{"ha":662,"x_min":10,"x_max":652,"o":"m 616 844 q 644 829 635 844 q 652 783 652 815 l 652 747 q 644 701 652 715 q 616 686 635 686 l 425 686 l 425 36 q 372 -1 425 3 l 359 -44 q 426 -71 398 -49 q 453 -135 453 -93 q 417 -226 453 -196 q 310 -256 382 -256 q 238 -248 275 -256 q 176 -227 201 -241 q 151 -195 151 -214 q 159 -165 151 -177 q 176 -148 166 -153 q 191 -142 185 -142 q 209 -145 198 -142 q 229 -152 219 -149 q 264 -163 248 -159 q 300 -168 281 -168 q 323 -162 316 -168 q 330 -147 330 -157 q 322 -131 330 -137 q 297 -117 314 -125 q 273 -105 281 -111 q 265 -89 265 -98 q 291 -1 265 -80 q 250 11 263 1 q 237 36 237 20 l 237 686 l 46 686 q 19 701 27 686 q 10 747 10 715 l 10 783 q 19 829 10 815 q 46 844 27 844 l 616 844 z "},"Ț":{"ha":662,"x_min":10,"x_max":652,"o":"m 10 0 m 310 -2 q 237 36 237 -2 l 237 686 l 46 686 q 19 701 27 686 q 10 747 10 715 l 10 783 q 19 829 10 815 q 46 844 27 844 l 616 844 q 644 829 635 844 q 652 783 652 815 l 652 747 q 644 701 652 715 q 616 686 635 686 l 425 686 l 425 36 q 352 -2 425 -2 l 310 -2 m 276 -290 q 239 -283 256 -290 q 222 -262 222 -276 q 229 -238 222 -255 q 244 -184 239 -211 q 250 -115 250 -158 q 268 -76 250 -90 q 323 -62 286 -62 l 346 -62 q 391 -76 376 -62 q 406 -115 406 -91 q 383 -194 406 -153 q 329 -262 360 -235 q 276 -290 297 -290 z "},"Ṭ":{"ha":662,"x_min":10,"x_max":652,"o":"m 10 0 m 310 -2 q 237 36 237 -2 l 237 686 l 46 686 q 19 701 27 686 q 10 747 10 715 l 10 783 q 19 829 10 815 q 46 844 27 844 l 616 844 q 644 829 635 844 q 652 783 652 815 l 652 747 q 644 701 652 715 q 616 686 635 686 l 425 686 l 425 36 q 352 -2 425 -2 l 310 -2 z "},"U":{"ha":859,"x_min":80,"x_max":779,"o":"m 429 -10 q 241 24 319 -10 q 121 124 163 59 q 80 282 80 190 l 80 808 q 98 837 80 827 q 153 847 115 847 l 193 847 q 248 837 231 847 q 265 808 265 827 l 265 294 q 286 219 265 252 q 344 167 307 186 q 429 149 381 149 q 515 167 477 149 q 574 219 553 186 q 595 294 595 252 l 595 808 q 612 837 595 827 q 667 847 629 847 l 707 847 q 761 837 744 847 q 779 808 779 827 l 779 282 q 737 124 779 190 q 617 24 696 59 q 429 -10 539 -10 z "},"Ú":{"ha":859,"x_min":80,"x_max":779,"o":"m 80 0 m 429 -10 q 241 24 319 -10 q 121 124 163 59 q 80 282 80 190 l 80 808 q 98 837 80 827 q 153 847 115 847 l 193 847 q 248 837 231 847 q 265 808 265 827 l 265 294 q 286 219 265 252 q 344 167 307 186 q 429 149 381 149 q 515 167 477 149 q 574 219 553 186 q 595 294 595 252 l 595 808 q 612 837 595 827 q 667 847 629 847 l 707 847 q 761 837 744 847 q 779 808 779 827 l 779 282 q 737 124 779 190 q 617 24 696 59 q 429 -10 539 -10 m 383 906 q 354 910 361 906 q 346 924 346 914 q 354 945 346 930 q 376 984 363 961 q 424 1065 406 1034 q 460 1091 434 1084 q 526 1098 486 1098 q 581 1094 564 1098 q 598 1081 598 1090 q 592 1066 598 1074 q 555 1025 586 1059 l 473 937 q 440 915 460 923 q 383 906 421 906 z "},"Ŭ":{"ha":859,"x_min":80,"x_max":779,"o":"m 80 0 m 429 -10 q 241 24 319 -10 q 121 124 163 59 q 80 282 80 190 l 80 808 q 98 837 80 827 q 153 847 115 847 l 193 847 q 248 837 231 847 q 265 808 265 827 l 265 294 q 286 219 265 252 q 344 167 307 186 q 429 149 381 149 q 515 167 477 149 q 574 219 553 186 q 595 294 595 252 l 595 808 q 612 837 595 827 q 667 847 629 847 l 707 847 q 761 837 744 847 q 779 808 779 827 l 779 282 q 737 124 779 190 q 617 24 696 59 q 429 -10 539 -10 m 430 906 q 339 925 379 906 q 276 976 298 945 q 253 1042 253 1007 q 264 1066 253 1058 q 295 1075 275 1075 q 317 1070 309 1075 q 335 1053 325 1065 q 356 1034 347 1041 q 384 1021 366 1027 q 430 1016 401 1016 q 478 1022 460 1016 q 506 1035 497 1027 q 528 1055 515 1042 q 544 1070 536 1065 q 566 1075 552 1075 q 596 1066 585 1075 q 607 1042 607 1058 q 584 976 607 1007 q 521 925 562 945 q 430 906 480 906 z "},"Û":{"ha":859,"x_min":80,"x_max":779,"o":"m 80 0 m 429 -10 q 241 24 319 -10 q 121 124 163 59 q 80 282 80 190 l 80 808 q 98 837 80 827 q 153 847 115 847 l 193 847 q 248 837 231 847 q 265 808 265 827 l 265 294 q 286 219 265 252 q 344 167 307 186 q 429 149 381 149 q 515 167 477 149 q 574 219 553 186 q 595 294 595 252 l 595 808 q 612 837 595 827 q 667 847 629 847 l 707 847 q 761 837 744 847 q 779 808 779 827 l 779 282 q 737 124 779 190 q 617 24 696 59 q 429 -10 539 -10 m 288 903 q 270 905 275 903 q 264 914 264 908 q 271 932 264 923 l 349 1055 q 375 1074 358 1070 q 423 1078 391 1078 l 436 1078 q 484 1074 468 1078 q 510 1055 500 1070 l 588 932 q 595 914 595 923 q 572 903 595 903 l 545 903 q 463 932 482 903 l 429 980 l 395 932 q 363 909 382 915 q 315 903 344 903 l 288 903 z "},"Ü":{"ha":859,"x_min":80,"x_max":779,"o":"m 80 0 m 429 -10 q 241 24 319 -10 q 121 124 163 59 q 80 282 80 190 l 80 808 q 98 837 80 827 q 153 847 115 847 l 193 847 q 248 837 231 847 q 265 808 265 827 l 265 294 q 286 219 265 252 q 344 167 307 186 q 429 149 381 149 q 515 167 477 149 q 574 219 553 186 q 595 294 595 252 l 595 808 q 612 837 595 827 q 667 847 629 847 l 707 847 q 761 837 744 847 q 779 808 779 827 l 779 282 q 737 124 779 190 q 617 24 696 59 q 429 -10 539 -10 m 321 909 q 250 949 250 909 l 250 1021 q 267 1050 250 1040 q 321 1060 284 1060 q 376 1050 359 1060 q 394 1021 394 1040 l 394 949 q 321 909 394 909 m 539 909 q 467 949 467 909 l 467 1021 q 484 1050 467 1040 q 539 1060 502 1060 q 594 1050 576 1060 q 611 1021 611 1040 l 611 949 q 539 909 611 909 z "},"Ụ":{"ha":859,"x_min":80,"x_max":779,"o":"m 80 0 m 429 -10 q 241 24 319 -10 q 121 124 163 59 q 80 282 80 190 l 80 808 q 98 837 80 827 q 153 847 115 847 l 193 847 q 248 837 231 847 q 265 808 265 827 l 265 294 q 286 219 265 252 q 344 167 307 186 q 429 149 381 149 q 515 167 477 149 q 574 219 553 186 q 595 294 595 252 l 595 808 q 612 837 595 827 q 667 847 629 847 l 707 847 q 761 837 744 847 q 779 808 779 827 l 779 282 q 737 124 779 190 q 617 24 696 59 q 429 -10 539 -10 z "},"Ù":{"ha":859,"x_min":80,"x_max":779,"o":"m 80 0 m 429 -10 q 241 24 319 -10 q 121 124 163 59 q 80 282 80 190 l 80 808 q 98 837 80 827 q 153 847 115 847 l 193 847 q 248 837 231 847 q 265 808 265 827 l 265 294 q 286 219 265 252 q 344 167 307 186 q 429 149 381 149 q 515 167 477 149 q 574 219 553 186 q 595 294 595 252 l 595 808 q 612 837 595 827 q 667 847 629 847 l 707 847 q 761 837 744 847 q 779 808 779 827 l 779 282 q 737 124 779 190 q 617 24 696 59 q 429 -10 539 -10 m 484 906 q 426 915 446 906 q 393 937 406 923 l 311 1025 q 275 1066 281 1059 q 269 1081 269 1074 q 285 1094 269 1090 q 340 1098 302 1098 q 407 1091 380 1098 q 443 1065 433 1084 l 493 979 q 513 944 505 958 q 521 924 521 930 q 513 910 521 914 q 484 906 505 906 z "},"Ủ":{"ha":859,"x_min":80,"x_max":779,"o":"m 80 0 m 429 -10 q 241 24 319 -10 q 121 124 163 59 q 80 282 80 190 l 80 808 q 98 837 80 827 q 153 847 115 847 l 193 847 q 248 837 231 847 q 265 808 265 827 l 265 294 q 286 219 265 252 q 344 167 307 186 q 429 149 381 149 q 515 167 477 149 q 574 219 553 186 q 595 294 595 252 l 595 808 q 612 837 595 827 q 667 847 629 847 l 707 847 q 761 837 744 847 q 779 808 779 827 l 779 282 q 737 124 779 190 q 617 24 696 59 q 429 -10 539 -10 m 458 901 q 430 905 445 901 q 404 917 414 910 q 393 928 393 923 q 401 941 393 934 q 426 962 409 949 q 461 992 449 979 q 474 1019 474 1005 q 463 1038 474 1031 q 435 1045 451 1045 q 399 1035 418 1045 q 385 1030 389 1030 q 371 1039 380 1030 q 355 1061 362 1048 q 349 1081 349 1073 q 364 1098 349 1088 q 402 1113 379 1107 q 446 1119 425 1119 q 544 1094 510 1119 q 578 1023 578 1068 q 555 966 578 994 q 501 919 531 938 q 458 901 471 901 z "},"Ư":{"ha":859,"x_min":80,"x_max":890,"o":"m 890 909 q 862 836 890 865 q 779 800 835 808 l 779 282 q 737 124 779 190 q 617 24 696 59 q 429 -10 539 -10 q 241 24 319 -10 q 121 124 163 59 q 80 282 80 190 l 80 808 q 98 837 80 827 q 153 847 115 847 l 193 847 q 248 837 231 847 q 265 808 265 827 l 265 294 q 286 219 265 252 q 344 167 307 186 q 429 149 381 149 q 515 167 477 149 q 574 219 553 186 q 595 294 595 252 l 595 808 q 612 837 595 827 q 667 847 629 847 l 736 847 q 780 858 766 847 q 793 891 793 869 q 788 910 793 901 q 774 931 783 920 q 762 954 762 947 q 776 977 762 968 l 814 1003 q 833 1009 822 1009 q 861 992 848 1009 q 882 952 874 976 q 890 909 890 928 z "},"Ứ":{"ha":859,"x_min":80,"x_max":890,"o":"m 383 906 q 354 910 361 906 q 346 924 346 914 q 354 945 346 930 q 376 984 363 961 q 424 1065 406 1034 q 460 1091 434 1084 q 526 1098 486 1098 q 581 1094 564 1098 q 598 1081 598 1090 q 592 1066 598 1074 q 555 1025 586 1059 l 473 937 q 440 915 460 923 q 383 906 421 906 m 890 909 q 862 836 890 865 q 779 800 835 808 l 779 282 q 737 124 779 190 q 617 24 696 59 q 429 -10 539 -10 q 241 24 319 -10 q 121 124 163 59 q 80 282 80 190 l 80 808 q 98 837 80 827 q 153 847 115 847 l 193 847 q 248 837 231 847 q 265 808 265 827 l 265 294 q 286 219 265 252 q 344 167 307 186 q 429 149 381 149 q 515 167 477 149 q 574 219 553 186 q 595 294 595 252 l 595 808 q 612 837 595 827 q 667 847 629 847 l 736 847 q 780 858 766 847 q 793 891 793 869 q 788 910 793 901 q 774 931 783 920 q 762 954 762 947 q 776 977 762 968 l 814 1003 q 833 1009 822 1009 q 861 992 848 1009 q 882 952 874 976 q 890 909 890 928 z "},"Ự":{"ha":859,"x_min":80,"x_max":890,"o":"m 890 909 q 862 836 890 865 q 779 800 835 808 l 779 282 q 737 124 779 190 q 617 24 696 59 q 429 -10 539 -10 q 241 24 319 -10 q 121 124 163 59 q 80 282 80 190 l 80 808 q 98 837 80 827 q 153 847 115 847 l 193 847 q 248 837 231 847 q 265 808 265 827 l 265 294 q 286 219 265 252 q 344 167 307 186 q 429 149 381 149 q 515 167 477 149 q 574 219 553 186 q 595 294 595 252 l 595 808 q 612 837 595 827 q 667 847 629 847 l 736 847 q 780 858 766 847 q 793 891 793 869 q 788 910 793 901 q 774 931 783 920 q 762 954 762 947 q 776 977 762 968 l 814 1003 q 833 1009 822 1009 q 861 992 848 1009 q 882 952 874 976 q 890 909 890 928 m 432 -96 q 487 -106 469 -96 q 504 -135 504 -115 l 504 -208 q 487 -236 504 -227 q 432 -246 469 -246 q 359 -208 359 -246 l 359 -135 q 377 -106 359 -115 q 432 -96 394 -96 z "},"Ừ":{"ha":859,"x_min":80,"x_max":890,"o":"m 484 906 q 426 915 446 906 q 393 937 406 923 l 311 1025 q 275 1066 281 1059 q 269 1081 269 1074 q 285 1094 269 1090 q 340 1098 302 1098 q 407 1091 380 1098 q 443 1065 433 1084 l 493 979 q 513 944 505 958 q 521 924 521 930 q 513 910 521 914 q 484 906 505 906 m 890 909 q 862 836 890 865 q 779 800 835 808 l 779 282 q 737 124 779 190 q 617 24 696 59 q 429 -10 539 -10 q 241 24 319 -10 q 121 124 163 59 q 80 282 80 190 l 80 808 q 98 837 80 827 q 153 847 115 847 l 193 847 q 248 837 231 847 q 265 808 265 827 l 265 294 q 286 219 265 252 q 344 167 307 186 q 429 149 381 149 q 515 167 477 149 q 574 219 553 186 q 595 294 595 252 l 595 808 q 612 837 595 827 q 667 847 629 847 l 736 847 q 780 858 766 847 q 793 891 793 869 q 788 910 793 901 q 774 931 783 920 q 762 954 762 947 q 776 977 762 968 l 814 1003 q 833 1009 822 1009 q 861 992 848 1009 q 882 952 874 976 q 890 909 890 928 z "},"Ử":{"ha":859,"x_min":80,"x_max":890,"o":"m 385 1030 q 371 1039 380 1030 q 355 1061 362 1048 q 349 1081 349 1073 q 364 1098 349 1088 q 402 1113 379 1107 q 446 1119 425 1119 q 544 1094 510 1119 q 578 1023 578 1068 q 555 966 578 994 q 501 919 531 938 q 458 901 471 901 q 430 905 445 901 q 404 917 414 910 q 393 928 393 923 q 401 941 393 934 q 426 962 409 949 q 461 992 449 979 q 474 1019 474 1005 q 463 1038 474 1031 q 435 1045 451 1045 q 399 1035 418 1045 q 385 1030 389 1030 m 890 909 q 862 836 890 865 q 779 800 835 808 l 779 282 q 737 124 779 190 q 617 24 696 59 q 429 -10 539 -10 q 241 24 319 -10 q 121 124 163 59 q 80 282 80 190 l 80 808 q 98 837 80 827 q 153 847 115 847 l 193 847 q 248 837 231 847 q 265 808 265 827 l 265 294 q 286 219 265 252 q 344 167 307 186 q 429 149 381 149 q 515 167 477 149 q 574 219 553 186 q 595 294 595 252 l 595 808 q 612 837 595 827 q 667 847 629 847 l 736 847 q 780 858 766 847 q 793 891 793 869 q 788 910 793 901 q 774 931 783 920 q 762 954 762 947 q 776 977 762 968 l 814 1003 q 833 1009 822 1009 q 861 992 848 1009 q 882 952 874 976 q 890 909 890 928 z "},"Ữ":{"ha":859,"x_min":80,"x_max":890,"o":"m 227 916 q 199 949 199 924 q 203 965 199 957 q 251 1025 216 1001 q 334 1050 285 1050 q 372 1045 349 1050 q 427 1031 394 1040 q 470 1020 449 1025 q 504 1015 492 1015 q 543 1034 527 1015 q 577 1055 560 1055 q 592 1052 585 1055 l 606 1048 q 633 1016 633 1040 q 630 999 633 1010 q 582 939 616 964 q 498 914 547 914 q 405 933 474 914 q 329 950 348 949 q 289 930 305 950 q 254 909 272 909 q 239 912 247 909 l 227 916 m 890 909 q 862 836 890 865 q 779 800 835 808 l 779 282 q 737 124 779 190 q 617 24 696 59 q 429 -10 539 -10 q 241 24 319 -10 q 121 124 163 59 q 80 282 80 190 l 80 808 q 98 837 80 827 q 153 847 115 847 l 193 847 q 248 837 231 847 q 265 808 265 827 l 265 294 q 286 219 265 252 q 344 167 307 186 q 429 149 381 149 q 515 167 477 149 q 574 219 553 186 q 595 294 595 252 l 595 808 q 612 837 595 827 q 667 847 629 847 l 736 847 q 780 858 766 847 q 793 891 793 869 q 788 910 793 901 q 774 931 783 920 q 762 954 762 947 q 776 977 762 968 l 814 1003 q 833 1009 822 1009 q 861 992 848 1009 q 882 952 874 976 q 890 909 890 928 z "},"Ű":{"ha":859,"x_min":80,"x_max":779,"o":"m 80 0 m 429 -10 q 241 24 319 -10 q 121 124 163 59 q 80 282 80 190 l 80 808 q 98 837 80 827 q 153 847 115 847 l 193 847 q 248 837 231 847 q 265 808 265 827 l 265 294 q 286 219 265 252 q 344 167 307 186 q 429 149 381 149 q 515 167 477 149 q 574 219 553 186 q 595 294 595 252 l 595 808 q 612 837 595 827 q 667 847 629 847 l 707 847 q 761 837 744 847 q 779 808 779 827 l 779 282 q 737 124 779 190 q 617 24 696 59 q 429 -10 539 -10 m 281 906 q 252 910 260 906 q 243 924 243 914 q 251 943 243 929 q 271 977 258 957 q 323 1065 291 1009 q 359 1091 333 1084 q 425 1098 385 1098 q 480 1094 463 1098 q 498 1081 498 1090 q 492 1067 498 1074 q 458 1029 486 1059 q 372 937 433 1004 q 339 915 359 923 q 281 906 319 906 m 503 906 q 473 910 481 906 q 465 924 465 914 q 474 945 465 930 q 496 984 482 961 q 543 1065 526 1034 q 579 1091 553 1084 q 646 1098 606 1098 q 701 1094 684 1098 q 718 1081 718 1090 q 711 1066 718 1074 q 675 1025 705 1059 l 593 937 q 561 915 581 923 q 503 906 541 906 z "},"Ū":{"ha":859,"x_min":80,"x_max":779,"o":"m 80 0 m 429 -10 q 241 24 319 -10 q 121 124 163 59 q 80 282 80 190 l 80 808 q 98 837 80 827 q 153 847 115 847 l 193 847 q 248 837 231 847 q 265 808 265 827 l 265 294 q 286 219 265 252 q 344 167 307 186 q 429 149 381 149 q 515 167 477 149 q 574 219 553 186 q 595 294 595 252 l 595 808 q 612 837 595 827 q 667 847 629 847 l 707 847 q 761 837 744 847 q 779 808 779 827 l 779 282 q 737 124 779 190 q 617 24 696 59 q 429 -10 539 -10 m 300 932 q 273 944 281 932 q 264 981 264 956 l 264 999 q 272 1036 264 1024 q 300 1047 281 1047 l 559 1047 q 587 1036 578 1047 q 596 999 596 1024 l 596 981 q 587 944 596 956 q 559 932 578 932 l 300 932 z "},"Ų":{"ha":859,"x_min":80,"x_max":779,"o":"m 707 847 q 761 837 744 847 q 779 808 779 827 l 779 282 q 716 96 779 168 q 538 0 654 23 q 539 -6 539 -2 q 534 -29 539 -13 q 528 -53 530 -43 q 526 -75 526 -62 q 548 -125 526 -113 q 601 -136 570 -136 q 635 -131 618 -136 q 660 -127 650 -127 q 679 -135 672 -127 q 686 -161 686 -144 q 587 -221 686 -221 q 475 -181 504 -221 q 446 -98 446 -142 q 451 -53 446 -79 q 469 -9 456 -27 q 429 -10 443 -10 q 241 24 319 -10 q 121 124 163 59 q 80 282 80 190 l 80 808 q 98 837 80 827 q 153 847 115 847 l 193 847 q 248 837 231 847 q 265 808 265 827 l 265 294 q 286 219 265 252 q 344 167 307 186 q 429 149 381 149 q 515 167 477 149 q 574 219 553 186 q 595 294 595 252 l 595 808 q 612 837 595 827 q 667 847 629 847 l 707 847 z "},"Ů":{"ha":859,"x_min":80,"x_max":779,"o":"m 80 0 m 429 -10 q 241 24 319 -10 q 121 124 163 59 q 80 282 80 190 l 80 808 q 98 837 80 827 q 153 847 115 847 l 193 847 q 248 837 231 847 q 265 808 265 827 l 265 294 q 286 219 265 252 q 344 167 307 186 q 429 149 381 149 q 515 167 477 149 q 574 219 553 186 q 595 294 595 252 l 595 808 q 612 837 595 827 q 667 847 629 847 l 707 847 q 761 837 744 847 q 779 808 779 827 l 779 282 q 737 124 779 190 q 617 24 696 59 q 429 -10 539 -10 m 429 876 q 369 892 396 876 q 326 935 342 907 q 310 996 310 962 q 326 1056 310 1029 q 369 1100 342 1084 q 429 1116 396 1116 q 490 1100 463 1116 q 533 1056 517 1084 q 549 996 549 1029 q 533 935 549 962 q 490 892 517 907 q 429 876 463 876 m 429 951 q 460 963 448 951 q 473 994 473 976 q 460 1026 473 1013 q 429 1039 447 1039 q 398 1026 411 1039 q 385 994 385 1013 q 398 963 385 976 q 429 951 411 951 z "},"Ũ":{"ha":859,"x_min":80,"x_max":779,"o":"m 80 0 m 429 -10 q 241 24 319 -10 q 121 124 163 59 q 80 282 80 190 l 80 808 q 98 837 80 827 q 153 847 115 847 l 193 847 q 248 837 231 847 q 265 808 265 827 l 265 294 q 286 219 265 252 q 344 167 307 186 q 429 149 381 149 q 515 167 477 149 q 574 219 553 186 q 595 294 595 252 l 595 808 q 612 837 595 827 q 667 847 629 847 l 707 847 q 761 837 744 847 q 779 808 779 827 l 779 282 q 737 124 779 190 q 617 24 696 59 q 429 -10 539 -10 m 227 916 q 199 949 199 924 q 203 965 199 957 q 251 1025 216 1001 q 334 1050 285 1050 q 372 1045 349 1050 q 427 1031 394 1040 q 470 1020 449 1025 q 504 1015 492 1015 q 543 1034 527 1015 q 577 1055 560 1055 q 592 1052 586 1055 l 606 1048 q 633 1016 633 1040 q 630 999 633 1010 q 582 939 616 964 q 498 914 547 914 q 405 933 474 914 q 329 950 348 949 q 289 930 307 950 q 255 909 272 909 q 239 912 247 909 l 227 916 z "},"V":{"ha":744,"x_min":6,"x_max":733,"o":"m 339 -2 q 293 4 310 -2 q 272 23 276 9 l 12 798 q 6 820 6 814 q 80 847 6 847 l 119 847 q 191 811 180 847 l 353 290 l 367 248 l 372 248 l 385 290 l 552 811 q 624 847 564 847 l 661 847 q 733 820 733 847 q 729 798 733 808 l 469 23 q 447 4 465 9 q 401 -2 430 -2 l 339 -2 z "},"W":{"ha":1063,"x_min":-5,"x_max":1068,"o":"m 254 -2 q 208 4 225 -2 q 189 23 191 11 l -2 797 q -5 815 -5 804 q 14 839 -5 830 q 71 847 33 847 l 102 847 q 182 809 172 847 l 273 421 q 289 345 275 411 l 310 248 q 341 385 318 297 l 351 421 l 450 821 q 470 841 453 835 q 516 847 486 847 l 562 847 q 609 841 592 847 q 628 821 625 835 l 724 421 q 765 239 741 347 q 784 325 768 252 l 806 421 l 899 809 q 980 847 909 847 l 994 847 q 1049 839 1031 847 q 1068 815 1068 830 q 1067 806 1068 810 q 1066 797 1067 802 l 869 23 q 848 4 866 11 q 803 -2 829 -2 l 715 -2 q 670 4 688 -2 q 649 23 652 11 l 550 440 l 531 522 l 510 440 l 408 23 q 386 4 404 11 q 341 -2 368 -2 l 254 -2 z "},"Ẃ":{"ha":1063,"x_min":-5,"x_max":1068,"o":"m 0 0 m 254 -2 q 208 4 225 -2 q 189 23 191 11 l -2 797 q -5 815 -5 804 q 14 839 -5 830 q 71 847 33 847 l 102 847 q 182 809 172 847 l 273 421 q 289 345 275 411 l 310 248 q 341 385 318 297 l 351 421 l 450 821 q 470 841 453 835 q 516 847 486 847 l 562 847 q 609 841 592 847 q 628 821 625 835 l 724 421 q 765 239 741 347 q 784 325 768 252 l 806 421 l 899 809 q 980 847 909 847 l 994 847 q 1049 839 1031 847 q 1068 815 1068 830 q 1067 806 1068 810 q 1066 797 1067 802 l 869 23 q 848 4 866 11 q 803 -2 829 -2 l 715 -2 q 670 4 688 -2 q 649 23 652 11 l 550 440 l 531 522 l 510 440 l 408 23 q 386 4 404 11 q 341 -2 368 -2 l 254 -2 m 486 906 q 457 910 465 906 q 449 924 449 914 q 457 945 449 930 q 479 984 466 961 q 527 1065 509 1034 q 563 1091 537 1084 q 629 1098 589 1098 q 684 1094 667 1098 q 701 1081 701 1090 q 695 1066 701 1074 q 659 1025 689 1059 l 576 937 q 544 915 563 923 q 486 906 524 906 z "},"Ŵ":{"ha":1063,"x_min":-5,"x_max":1068,"o":"m 0 0 m 254 -2 q 208 4 225 -2 q 189 23 191 11 l -2 797 q -5 815 -5 804 q 14 839 -5 830 q 71 847 33 847 l 102 847 q 182 809 172 847 l 273 421 q 289 345 275 411 l 310 248 q 341 385 318 297 l 351 421 l 450 821 q 470 841 453 835 q 516 847 486 847 l 562 847 q 609 841 592 847 q 628 821 625 835 l 724 421 q 765 239 741 347 q 784 325 768 252 l 806 421 l 899 809 q 980 847 909 847 l 994 847 q 1049 839 1031 847 q 1068 815 1068 830 q 1067 806 1068 810 q 1066 797 1067 802 l 869 23 q 848 4 866 11 q 803 -2 829 -2 l 715 -2 q 670 4 688 -2 q 649 23 652 11 l 550 440 l 531 522 l 510 440 l 408 23 q 386 4 404 11 q 341 -2 368 -2 l 254 -2 m 391 903 q 372 905 378 903 q 366 914 366 908 q 373 932 366 923 l 452 1055 q 477 1074 460 1070 q 526 1078 494 1078 l 538 1078 q 587 1074 570 1078 q 612 1055 603 1070 l 690 932 q 697 914 697 923 q 674 903 697 903 l 647 903 q 565 932 585 903 l 532 980 l 498 932 q 466 909 485 915 q 417 903 446 903 l 391 903 z "},"Ẅ":{"ha":1063,"x_min":-5,"x_max":1068,"o":"m 0 0 m 254 -2 q 208 4 225 -2 q 189 23 191 11 l -2 797 q -5 815 -5 804 q 14 839 -5 830 q 71 847 33 847 l 102 847 q 182 809 172 847 l 273 421 q 289 345 275 411 l 310 248 q 341 385 318 297 l 351 421 l 450 821 q 470 841 453 835 q 516 847 486 847 l 562 847 q 609 841 592 847 q 628 821 625 835 l 724 421 q 765 239 741 347 q 784 325 768 252 l 806 421 l 899 809 q 980 847 909 847 l 994 847 q 1049 839 1031 847 q 1068 815 1068 830 q 1067 806 1068 810 q 1066 797 1067 802 l 869 23 q 848 4 866 11 q 803 -2 829 -2 l 715 -2 q 670 4 688 -2 q 649 23 652 11 l 550 440 l 531 522 l 510 440 l 408 23 q 386 4 404 11 q 341 -2 368 -2 l 254 -2 m 424 909 q 352 949 352 909 l 352 1021 q 369 1050 352 1040 q 424 1060 387 1060 q 479 1050 461 1060 q 496 1021 496 1040 l 496 949 q 424 909 496 909 m 642 909 q 569 949 569 909 l 569 1021 q 587 1050 569 1040 q 642 1060 604 1060 q 696 1050 679 1060 q 713 1021 713 1040 l 713 949 q 642 909 713 909 z "},"Ẁ":{"ha":1063,"x_min":-5,"x_max":1068,"o":"m 0 0 m 254 -2 q 208 4 225 -2 q 189 23 191 11 l -2 797 q -5 815 -5 804 q 14 839 -5 830 q 71 847 33 847 l 102 847 q 182 809 172 847 l 273 421 q 289 345 275 411 l 310 248 q 341 385 318 297 l 351 421 l 450 821 q 470 841 453 835 q 516 847 486 847 l 562 847 q 609 841 592 847 q 628 821 625 835 l 724 421 q 765 239 741 347 q 784 325 768 252 l 806 421 l 899 809 q 980 847 909 847 l 994 847 q 1049 839 1031 847 q 1068 815 1068 830 q 1067 806 1068 810 q 1066 797 1067 802 l 869 23 q 848 4 866 11 q 803 -2 829 -2 l 715 -2 q 670 4 688 -2 q 649 23 652 11 l 550 440 l 531 522 l 510 440 l 408 23 q 386 4 404 11 q 341 -2 368 -2 l 254 -2 m 587 906 q 529 915 549 906 q 496 937 509 923 l 414 1025 q 378 1066 384 1059 q 372 1081 372 1074 q 388 1094 372 1090 q 444 1098 405 1098 q 510 1091 484 1098 q 546 1065 536 1084 l 596 979 q 616 944 608 958 q 624 924 624 930 q 616 910 624 914 q 587 906 608 906 z "},"X":{"ha":737,"x_min":10,"x_max":727,"o":"m 85 -2 q 10 21 10 -2 q 22 51 10 33 l 271 440 l 50 793 q 38 824 38 814 q 57 841 38 834 q 115 847 77 847 l 164 847 q 236 824 222 847 l 374 600 l 518 824 q 546 842 528 838 q 592 847 563 847 l 639 847 q 715 824 715 847 q 703 793 715 811 l 475 437 l 716 51 q 727 21 727 34 q 651 -2 727 -2 l 604 -2 q 557 3 575 -2 q 532 21 540 7 l 372 280 l 205 21 q 179 2 195 5 q 132 -2 163 -2 l 85 -2 z "},"Y":{"ha":674,"x_min":-7,"x_max":682,"o":"m 317 -2 q 245 36 245 -2 l 245 405 l 5 793 q -7 823 -7 812 q 13 841 -7 834 q 71 847 32 847 l 121 847 q 169 842 151 847 q 194 824 186 837 l 341 566 l 490 824 q 515 842 497 837 q 562 847 534 847 l 605 847 q 663 841 644 847 q 682 823 682 834 q 670 793 682 809 l 431 401 l 431 36 q 359 -2 431 -2 l 317 -2 z "},"Ý":{"ha":674,"x_min":-7,"x_max":682,"o":"m 0 0 m 317 -2 q 245 36 245 -2 l 245 405 l 5 793 q -7 823 -7 812 q 13 841 -7 834 q 71 847 32 847 l 121 847 q 169 842 151 847 q 194 824 186 837 l 341 566 l 490 824 q 515 842 497 837 q 562 847 534 847 l 605 847 q 663 841 644 847 q 682 823 682 834 q 670 793 682 809 l 431 401 l 431 36 q 359 -2 431 -2 l 317 -2 m 292 906 q 262 910 270 906 q 254 924 254 914 q 263 945 254 930 q 285 984 271 961 q 332 1065 315 1034 q 369 1091 342 1084 q 435 1098 395 1098 q 490 1094 473 1098 q 507 1081 507 1090 q 500 1066 507 1074 q 464 1025 494 1059 l 382 937 q 349 915 368 923 q 292 906 330 906 z "},"Ŷ":{"ha":674,"x_min":-7,"x_max":682,"o":"m 0 0 m 317 -2 q 245 36 245 -2 l 245 405 l 5 793 q -7 823 -7 812 q 13 841 -7 834 q 71 847 32 847 l 121 847 q 169 842 151 847 q 194 824 186 837 l 341 566 l 490 824 q 515 842 497 837 q 562 847 534 847 l 605 847 q 663 841 644 847 q 682 823 682 834 q 670 793 682 809 l 431 401 l 431 36 q 359 -2 431 -2 l 317 -2 m 196 903 q 177 905 183 903 q 172 914 172 908 q 178 932 172 923 l 257 1055 q 282 1074 266 1070 q 331 1078 299 1078 l 344 1078 q 392 1074 376 1078 q 418 1055 408 1070 l 496 932 q 503 914 503 923 q 479 903 503 903 l 452 903 q 370 932 390 903 l 337 980 l 303 932 q 271 909 290 915 q 222 903 252 903 l 196 903 z "},"Ÿ":{"ha":674,"x_min":-7,"x_max":682,"o":"m 0 0 m 317 -2 q 245 36 245 -2 l 245 405 l 5 793 q -7 823 -7 812 q 13 841 -7 834 q 71 847 32 847 l 121 847 q 169 842 151 847 q 194 824 186 837 l 341 566 l 490 824 q 515 842 497 837 q 562 847 534 847 l 605 847 q 663 841 644 847 q 682 823 682 834 q 670 793 682 809 l 431 401 l 431 36 q 359 -2 431 -2 l 317 -2 m 229 909 q 157 949 157 909 l 157 1021 q 175 1050 157 1040 q 229 1060 192 1060 q 284 1050 267 1060 q 302 1021 302 1040 l 302 949 q 229 909 302 909 m 447 909 q 374 949 374 909 l 374 1021 q 392 1050 374 1040 q 447 1060 410 1060 q 502 1050 484 1060 q 519 1021 519 1040 l 519 949 q 447 909 519 909 z "},"Ỵ":{"ha":674,"x_min":-7,"x_max":682,"o":"m 0 0 m 317 -2 q 245 36 245 -2 l 245 405 l 5 793 q -7 823 -7 812 q 13 841 -7 834 q 71 847 32 847 l 121 847 q 169 842 151 847 q 194 824 186 837 l 341 566 l 490 824 q 515 842 497 837 q 562 847 534 847 l 605 847 q 663 841 644 847 q 682 823 682 834 q 670 793 682 809 l 431 401 l 431 36 q 359 -2 431 -2 l 317 -2 z "},"Ỳ":{"ha":674,"x_min":-7,"x_max":682,"o":"m 0 0 m 317 -2 q 245 36 245 -2 l 245 405 l 5 793 q -7 823 -7 812 q 13 841 -7 834 q 71 847 32 847 l 121 847 q 169 842 151 847 q 194 824 186 837 l 341 566 l 490 824 q 515 842 497 837 q 562 847 534 847 l 605 847 q 663 841 644 847 q 682 823 682 834 q 670 793 682 809 l 431 401 l 431 36 q 359 -2 431 -2 l 317 -2 m 392 906 q 334 915 354 906 q 302 937 314 923 l 220 1025 q 183 1066 189 1059 q 177 1081 177 1074 q 194 1094 177 1090 q 249 1098 210 1098 q 315 1091 289 1098 q 351 1065 341 1084 l 401 979 q 421 944 414 958 q 429 924 429 930 q 421 910 429 914 q 392 906 414 906 z "},"Ỷ":{"ha":674,"x_min":-7,"x_max":682,"o":"m 0 0 m 317 -2 q 245 36 245 -2 l 245 405 l 5 793 q -7 823 -7 812 q 13 841 -7 834 q 71 847 32 847 l 121 847 q 169 842 151 847 q 194 824 186 837 l 341 566 l 490 824 q 515 842 497 837 q 562 847 534 847 l 605 847 q 663 841 644 847 q 682 823 682 834 q 670 793 682 809 l 431 401 l 431 36 q 359 -2 431 -2 l 317 -2 m 367 901 q 338 905 353 901 q 312 917 323 910 q 302 928 302 923 q 310 941 302 934 q 334 962 317 949 q 370 992 357 979 q 382 1019 382 1005 q 371 1038 382 1031 q 344 1045 359 1045 q 307 1035 326 1045 q 293 1030 298 1030 q 279 1039 288 1030 q 264 1061 271 1048 q 257 1081 257 1073 q 272 1098 257 1088 q 311 1113 288 1107 q 354 1119 334 1119 q 453 1094 418 1119 q 487 1023 487 1068 q 463 966 487 994 q 409 919 439 938 q 367 901 379 901 z "},"Ỹ":{"ha":674,"x_min":-7,"x_max":682,"o":"m 0 0 m 317 -2 q 245 36 245 -2 l 245 405 l 5 793 q -7 823 -7 812 q 13 841 -7 834 q 71 847 32 847 l 121 847 q 169 842 151 847 q 194 824 186 837 l 341 566 l 490 824 q 515 842 497 837 q 562 847 534 847 l 605 847 q 663 841 644 847 q 682 823 682 834 q 670 793 682 809 l 431 401 l 431 36 q 359 -2 431 -2 l 317 -2 m 134 916 q 107 949 107 924 q 111 965 107 957 q 158 1025 124 1001 q 242 1050 193 1050 q 279 1045 257 1050 q 335 1031 302 1040 q 378 1020 357 1025 q 412 1015 399 1015 q 451 1034 435 1015 q 485 1055 468 1055 q 500 1052 494 1055 l 514 1048 q 541 1016 541 1040 q 538 999 541 1010 q 489 939 524 964 q 406 914 454 914 q 313 933 382 914 q 237 950 256 949 q 197 930 214 950 q 163 909 180 909 q 147 912 155 909 l 134 916 z "},"Z":{"ha":743,"x_min":33,"x_max":699,"o":"m 80 0 q 59 20 70 0 q 40 65 48 39 q 33 108 33 92 q 35 119 33 111 l 439 686 l 104 686 q 76 701 85 686 q 68 747 68 715 l 68 783 q 76 829 68 815 q 104 844 85 844 l 655 844 q 674 823 664 844 q 692 776 685 803 q 699 733 699 749 q 698 724 699 726 l 295 158 l 663 158 q 691 144 682 158 q 699 98 699 130 l 699 60 q 691 14 699 28 q 663 0 682 0 l 80 0 z "},"Ź":{"ha":743,"x_min":33,"x_max":699,"o":"m 33 0 m 80 0 q 59 20 70 0 q 40 65 48 39 q 33 108 33 92 q 35 119 33 111 l 439 686 l 104 686 q 76 701 85 686 q 68 747 68 715 l 68 783 q 76 829 68 815 q 104 844 85 844 l 655 844 q 674 823 664 844 q 692 776 685 803 q 699 733 699 749 q 698 724 699 726 l 295 158 l 663 158 q 691 144 682 158 q 699 98 699 130 l 699 60 q 691 14 699 28 q 663 0 682 0 l 80 0 m 326 906 q 296 910 304 906 q 288 924 288 914 q 297 945 288 930 q 319 984 305 961 q 366 1065 349 1034 q 402 1091 376 1084 q 469 1098 429 1098 q 524 1094 507 1098 q 541 1081 541 1090 q 534 1066 541 1074 q 498 1025 528 1059 l 416 937 q 383 915 402 923 q 326 906 363 906 z "},"Ž":{"ha":743,"x_min":33,"x_max":699,"o":"m 33 0 m 80 0 q 59 20 70 0 q 40 65 48 39 q 33 108 33 92 q 35 119 33 111 l 439 686 l 104 686 q 76 701 85 686 q 68 747 68 715 l 68 783 q 76 829 68 815 q 104 844 85 844 l 655 844 q 674 823 664 844 q 692 776 685 803 q 699 733 699 749 q 698 724 699 726 l 295 158 l 663 158 q 691 144 682 158 q 699 98 699 130 l 699 60 q 691 14 699 28 q 663 0 682 0 l 80 0 m 366 903 q 317 907 334 903 q 292 926 300 911 l 213 1048 q 206 1067 206 1058 q 212 1076 206 1073 q 231 1078 218 1078 l 257 1078 q 306 1072 287 1078 q 338 1048 325 1066 l 372 1001 l 405 1050 q 437 1072 416 1066 q 487 1078 458 1078 l 514 1078 q 537 1067 537 1078 q 530 1048 537 1058 l 452 926 q 426 907 443 911 q 378 903 410 903 l 366 903 z "},"Ż":{"ha":743,"x_min":33,"x_max":699,"o":"m 33 0 m 80 0 q 59 20 70 0 q 40 65 48 39 q 33 108 33 92 q 35 119 33 111 l 439 686 l 104 686 q 76 701 85 686 q 68 747 68 715 l 68 783 q 76 829 68 815 q 104 844 85 844 l 655 844 q 674 823 664 844 q 692 776 685 803 q 699 733 699 749 q 698 724 699 726 l 295 158 l 663 158 q 691 144 682 158 q 699 98 699 130 l 699 60 q 691 14 699 28 q 663 0 682 0 l 80 0 m 372 909 q 300 949 300 909 l 300 1021 q 317 1050 300 1040 q 372 1060 335 1060 q 427 1050 410 1060 q 444 1021 444 1040 l 444 949 q 372 909 444 909 z "},"Ẓ":{"ha":743,"x_min":33,"x_max":699,"o":"m 33 0 m 80 0 q 59 20 70 0 q 40 65 48 39 q 33 108 33 92 q 35 119 33 111 l 439 686 l 104 686 q 76 701 85 686 q 68 747 68 715 l 68 783 q 76 829 68 815 q 104 844 85 844 l 655 844 q 674 823 664 844 q 692 776 685 803 q 699 733 699 749 q 698 724 699 726 l 295 158 l 663 158 q 691 144 682 158 q 699 98 699 130 l 699 60 q 691 14 699 28 q 663 0 682 0 l 80 0 z "},"a":{"ha":657,"x_min":51,"x_max":590,"o":"m 229 -10 q 94 38 137 -10 q 51 167 51 87 q 76 276 51 227 q 178 357 101 324 q 397 391 254 391 l 397 431 q 374 483 397 466 q 303 500 352 500 q 233 491 262 500 q 170 469 204 483 q 149 460 153 460 q 122 479 136 460 q 96 521 107 497 q 85 557 85 545 q 116 597 85 578 q 199 628 146 616 q 316 640 252 640 q 513 586 452 640 q 575 439 575 532 l 575 213 q 578 125 575 157 q 587 64 581 94 q 590 38 590 45 q 565 16 590 24 q 507 3 539 7 q 454 -1 474 -1 q 424 17 433 -1 q 410 66 415 35 q 408 74 409 70 q 406 82 408 78 q 377 47 399 69 q 317 8 355 26 q 229 -10 279 -10 m 288 132 q 352 153 322 132 q 397 208 382 174 l 397 274 q 228 185 228 274 q 244 146 228 161 q 288 132 260 132 z "},"á":{"ha":657,"x_min":51,"x_max":590,"o":"m 51 0 m 229 -10 q 94 38 137 -10 q 51 167 51 87 q 76 276 51 227 q 178 357 101 324 q 397 391 254 391 l 397 431 q 374 483 397 466 q 303 500 352 500 q 233 491 262 500 q 170 469 204 483 q 149 460 153 460 q 122 479 136 460 q 96 521 107 497 q 85 557 85 545 q 116 597 85 578 q 199 628 146 616 q 316 640 252 640 q 513 586 452 640 q 575 439 575 532 l 575 213 q 578 125 575 157 q 587 64 581 94 q 590 38 590 45 q 565 16 590 24 q 507 3 539 7 q 454 -1 474 -1 q 424 17 433 -1 q 410 66 415 35 q 408 74 409 70 q 406 82 408 78 q 377 47 399 69 q 317 8 355 26 q 229 -10 279 -10 m 288 132 q 352 153 322 132 q 397 208 382 174 l 397 274 q 228 185 228 274 q 244 146 228 161 q 288 132 260 132 m 283 693 q 254 697 262 693 q 246 711 246 701 q 255 732 246 717 q 277 771 263 748 q 324 852 307 821 q 360 878 334 871 q 427 885 387 885 q 481 881 465 885 q 498 868 498 878 q 492 853 498 861 q 456 812 486 846 l 374 724 q 341 702 360 710 q 283 693 321 693 z "},"ă":{"ha":657,"x_min":51,"x_max":590,"o":"m 51 0 m 229 -10 q 94 38 137 -10 q 51 167 51 87 q 76 276 51 227 q 178 357 101 324 q 397 391 254 391 l 397 431 q 374 483 397 466 q 303 500 352 500 q 233 491 262 500 q 170 469 204 483 q 149 460 153 460 q 122 479 136 460 q 96 521 107 497 q 85 557 85 545 q 116 597 85 578 q 199 628 146 616 q 316 640 252 640 q 513 586 452 640 q 575 439 575 532 l 575 213 q 578 125 575 157 q 587 64 581 94 q 590 38 590 45 q 565 16 590 24 q 507 3 539 7 q 454 -1 474 -1 q 424 17 433 -1 q 410 66 415 35 q 408 74 409 70 q 406 82 408 78 q 377 47 399 69 q 317 8 355 26 q 229 -10 279 -10 m 288 132 q 352 153 322 132 q 397 208 382 174 l 397 274 q 228 185 228 274 q 244 146 228 161 q 288 132 260 132 m 330 693 q 238 712 279 693 q 175 763 198 732 q 153 829 153 794 q 163 853 153 845 q 195 862 174 862 q 216 857 208 862 q 235 840 224 852 q 256 821 246 828 q 283 808 265 814 q 330 803 301 803 q 378 809 359 803 q 406 822 397 814 q 427 842 414 829 q 444 857 436 852 q 465 862 452 862 q 496 853 485 862 q 507 829 507 845 q 484 763 507 794 q 420 712 461 732 q 330 693 380 693 z "},"ắ":{"ha":657,"x_min":51,"x_max":590,"o":"m 51 0 m 229 -10 q 94 38 137 -10 q 51 167 51 87 q 76 276 51 227 q 178 357 101 324 q 397 391 254 391 l 397 431 q 374 483 397 466 q 303 500 352 500 q 233 491 262 500 q 170 469 204 483 q 149 460 153 460 q 122 479 136 460 q 96 521 107 497 q 85 557 85 545 q 116 597 85 578 q 199 628 146 616 q 316 640 252 640 q 513 586 452 640 q 575 439 575 532 l 575 213 q 578 125 575 157 q 587 64 581 94 q 590 38 590 45 q 565 16 590 24 q 507 3 539 7 q 454 -1 474 -1 q 424 17 433 -1 q 410 66 415 35 q 408 74 409 70 q 406 82 408 78 q 377 47 399 69 q 317 8 355 26 q 229 -10 279 -10 m 288 132 q 352 153 322 132 q 397 208 382 174 l 397 274 q 228 185 228 274 q 244 146 228 161 q 288 132 260 132 m 330 693 q 238 712 279 693 q 175 763 198 732 q 153 829 153 794 q 163 853 153 845 q 195 862 174 862 q 216 857 208 862 q 235 840 224 852 q 256 821 246 828 q 283 808 265 814 q 330 803 301 803 q 378 809 359 803 q 406 822 397 814 q 427 842 414 829 q 444 857 436 852 q 465 862 452 862 q 496 853 485 862 q 507 829 507 845 q 484 763 507 794 q 420 712 461 732 q 330 693 380 693 m 283 890 q 254 894 262 890 q 246 908 246 898 q 255 929 246 913 q 277 968 263 945 q 324 1049 307 1017 q 360 1075 334 1067 q 427 1082 387 1082 q 481 1078 465 1082 q 498 1065 498 1074 q 492 1050 498 1058 q 456 1009 486 1042 l 374 920 q 341 898 360 907 q 283 890 321 890 z "},"ặ":{"ha":657,"x_min":51,"x_max":590,"o":"m 51 0 m 229 -10 q 94 38 137 -10 q 51 167 51 87 q 76 276 51 227 q 178 357 101 324 q 397 391 254 391 l 397 431 q 374 483 397 466 q 303 500 352 500 q 233 491 262 500 q 170 469 204 483 q 149 460 153 460 q 122 479 136 460 q 96 521 107 497 q 85 557 85 545 q 116 597 85 578 q 199 628 146 616 q 316 640 252 640 q 513 586 452 640 q 575 439 575 532 l 575 213 q 578 125 575 157 q 587 64 581 94 q 590 38 590 45 q 565 16 590 24 q 507 3 539 7 q 454 -1 474 -1 q 424 17 433 -1 q 410 66 415 35 q 408 74 409 70 q 406 82 408 78 q 377 47 399 69 q 317 8 355 26 q 229 -10 279 -10 m 288 132 q 352 153 322 132 q 397 208 382 174 l 397 274 q 228 185 228 274 q 244 146 228 161 q 288 132 260 132 m 330 693 q 238 712 279 693 q 175 763 198 732 q 153 829 153 794 q 163 853 153 845 q 195 862 174 862 q 216 857 208 862 q 235 840 224 852 q 256 821 246 828 q 283 808 265 814 q 330 803 301 803 q 378 809 359 803 q 406 822 397 814 q 427 842 414 829 q 444 857 436 852 q 465 862 452 862 q 496 853 485 862 q 507 829 507 845 q 484 763 507 794 q 420 712 461 732 q 330 693 380 693 z "},"ằ":{"ha":657,"x_min":51,"x_max":590,"o":"m 51 0 m 229 -10 q 94 38 137 -10 q 51 167 51 87 q 76 276 51 227 q 178 357 101 324 q 397 391 254 391 l 397 431 q 374 483 397 466 q 303 500 352 500 q 233 491 262 500 q 170 469 204 483 q 149 460 153 460 q 122 479 136 460 q 96 521 107 497 q 85 557 85 545 q 116 597 85 578 q 199 628 146 616 q 316 640 252 640 q 513 586 452 640 q 575 439 575 532 l 575 213 q 578 125 575 157 q 587 64 581 94 q 590 38 590 45 q 565 16 590 24 q 507 3 539 7 q 454 -1 474 -1 q 424 17 433 -1 q 410 66 415 35 q 408 74 409 70 q 406 82 408 78 q 377 47 399 69 q 317 8 355 26 q 229 -10 279 -10 m 288 132 q 352 153 322 132 q 397 208 382 174 l 397 274 q 228 185 228 274 q 244 146 228 161 q 288 132 260 132 m 330 693 q 238 712 279 693 q 175 763 198 732 q 153 829 153 794 q 163 853 153 845 q 195 862 174 862 q 216 857 208 862 q 235 840 224 852 q 256 821 246 828 q 283 808 265 814 q 330 803 301 803 q 378 809 359 803 q 406 822 397 814 q 427 842 414 829 q 444 857 436 852 q 465 862 452 862 q 496 853 485 862 q 507 829 507 845 q 484 763 507 794 q 420 712 461 732 q 330 693 380 693 m 384 890 q 326 898 346 890 q 294 920 306 907 l 212 1009 q 175 1050 181 1042 q 169 1065 169 1058 q 185 1078 169 1074 q 241 1082 202 1082 q 307 1075 281 1082 q 343 1049 333 1067 l 393 962 q 413 928 406 942 q 421 908 421 913 q 413 894 421 898 q 384 890 406 890 z "},"ẳ":{"ha":657,"x_min":51,"x_max":590,"o":"m 51 0 m 229 -10 q 94 38 137 -10 q 51 167 51 87 q 76 276 51 227 q 178 357 101 324 q 397 391 254 391 l 397 431 q 374 483 397 466 q 303 500 352 500 q 233 491 262 500 q 170 469 204 483 q 149 460 153 460 q 122 479 136 460 q 96 521 107 497 q 85 557 85 545 q 116 597 85 578 q 199 628 146 616 q 316 640 252 640 q 513 586 452 640 q 575 439 575 532 l 575 213 q 578 125 575 157 q 587 64 581 94 q 590 38 590 45 q 565 16 590 24 q 507 3 539 7 q 454 -1 474 -1 q 424 17 433 -1 q 410 66 415 35 q 408 74 409 70 q 406 82 408 78 q 377 47 399 69 q 317 8 355 26 q 229 -10 279 -10 m 288 132 q 352 153 322 132 q 397 208 382 174 l 397 274 q 228 185 228 274 q 244 146 228 161 q 288 132 260 132 m 330 693 q 238 712 279 693 q 175 763 198 732 q 153 829 153 794 q 163 853 153 845 q 195 862 174 862 q 216 857 208 862 q 235 840 224 852 q 256 821 246 828 q 283 808 265 814 q 330 803 301 803 q 378 809 359 803 q 406 822 397 814 q 427 842 414 829 q 444 857 436 852 q 465 862 452 862 q 496 853 485 862 q 507 829 507 845 q 484 763 507 794 q 420 712 461 732 q 330 693 380 693 m 359 884 q 330 889 345 884 q 304 900 315 894 q 294 911 294 907 q 301 925 294 918 q 326 945 309 932 q 362 976 349 963 q 374 1002 374 989 q 363 1022 374 1015 q 336 1029 351 1029 q 299 1019 318 1029 q 285 1014 290 1014 q 271 1023 280 1014 q 256 1044 262 1032 q 249 1065 249 1057 q 264 1081 249 1072 q 302 1097 279 1090 q 346 1103 326 1103 q 445 1077 410 1103 q 479 1007 479 1052 q 455 950 479 978 q 401 903 431 922 q 359 884 371 884 z "},"ẵ":{"ha":657,"x_min":51,"x_max":590,"o":"m 140 900 q 115 932 115 908 q 119 949 115 941 q 162 1009 130 985 q 238 1034 193 1034 q 272 1029 252 1034 q 323 1015 292 1024 q 362 1004 342 1009 q 392 998 381 999 q 428 1018 413 998 q 444 1034 437 1029 q 458 1038 451 1038 q 473 1036 467 1038 l 485 1032 q 509 1000 509 1024 q 507 983 509 994 q 463 923 494 947 q 387 898 431 898 q 354 903 374 898 q 302 917 334 907 q 233 934 252 932 q 197 914 212 934 q 165 893 182 893 q 152 896 158 893 l 140 900 m 330 693 q 238 712 279 693 q 175 763 198 732 q 153 829 153 794 q 163 853 153 845 q 195 862 174 862 q 216 857 208 862 q 235 840 224 852 q 256 821 246 828 q 283 808 265 814 q 330 803 301 803 q 378 809 359 803 q 406 822 397 814 q 427 842 414 829 q 444 857 436 852 q 465 862 452 862 q 496 853 485 862 q 507 829 507 845 q 484 763 507 794 q 420 712 461 732 q 330 693 380 693 m 229 -10 q 94 38 137 -10 q 51 167 51 87 q 76 276 51 227 q 178 357 101 324 q 397 391 254 391 l 397 431 q 374 483 397 466 q 303 500 352 500 q 233 491 262 500 q 170 469 204 483 q 149 460 153 460 q 122 479 136 460 q 96 521 107 497 q 85 557 85 545 q 116 597 85 578 q 199 628 146 616 q 316 640 252 640 q 513 586 452 640 q 575 439 575 532 l 575 213 q 578 125 575 157 q 587 64 581 94 q 590 38 590 45 q 565 16 590 24 q 507 3 539 7 q 454 -1 474 -1 q 424 17 433 -1 q 410 66 415 35 q 408 74 409 70 q 406 82 408 78 q 377 47 399 69 q 317 8 355 26 q 229 -10 279 -10 m 288 132 q 352 153 322 132 q 397 208 382 174 l 397 274 q 228 185 228 274 q 244 146 228 161 q 288 132 260 132 z "},"â":{"ha":657,"x_min":51,"x_max":590,"o":"m 51 0 m 229 -10 q 94 38 137 -10 q 51 167 51 87 q 76 276 51 227 q 178 357 101 324 q 397 391 254 391 l 397 431 q 374 483 397 466 q 303 500 352 500 q 233 491 262 500 q 170 469 204 483 q 149 460 153 460 q 122 479 136 460 q 96 521 107 497 q 85 557 85 545 q 116 597 85 578 q 199 628 146 616 q 316 640 252 640 q 513 586 452 640 q 575 439 575 532 l 575 213 q 578 125 575 157 q 587 64 581 94 q 590 38 590 45 q 565 16 590 24 q 507 3 539 7 q 454 -1 474 -1 q 424 17 433 -1 q 410 66 415 35 q 408 74 409 70 q 406 82 408 78 q 377 47 399 69 q 317 8 355 26 q 229 -10 279 -10 m 288 132 q 352 153 322 132 q 397 208 382 174 l 397 274 q 228 185 228 274 q 244 146 228 161 q 288 132 260 132 m 188 690 q 169 692 175 690 q 163 701 163 695 q 170 720 163 710 l 249 842 q 274 861 258 857 q 323 865 291 865 l 336 865 q 384 861 368 865 q 410 842 400 857 l 488 720 q 494 701 494 710 q 471 690 494 690 l 444 690 q 362 719 382 690 l 329 767 l 295 720 q 263 696 282 702 q 214 690 243 690 l 188 690 z "},"ấ":{"ha":657,"x_min":51,"x_max":659,"o":"m 444 848 q 414 852 422 848 q 406 867 406 857 q 415 888 406 872 q 437 926 423 903 q 484 1008 467 976 q 520 1033 494 1026 q 587 1040 547 1040 q 642 1037 625 1040 q 659 1023 659 1033 q 652 1009 659 1017 q 616 968 646 1001 l 534 879 q 501 857 520 865 q 444 848 481 848 m 188 690 q 169 692 175 690 q 163 701 163 695 q 170 720 163 710 l 249 842 q 274 861 258 857 q 323 865 291 865 l 336 865 q 376 861 362 865 q 397 842 389 857 l 470 720 q 477 701 477 710 q 453 690 477 690 l 426 690 q 372 695 393 690 q 344 719 350 701 l 329 767 l 295 720 q 263 696 282 702 q 214 690 243 690 l 188 690 m 229 -10 q 94 38 137 -10 q 51 167 51 87 q 76 276 51 227 q 178 357 101 324 q 397 391 254 391 l 397 431 q 374 483 397 466 q 303 500 352 500 q 233 491 262 500 q 170 469 204 483 q 149 460 153 460 q 122 479 136 460 q 96 521 107 497 q 85 557 85 545 q 116 597 85 578 q 199 628 146 616 q 316 640 252 640 q 513 586 452 640 q 575 439 575 532 l 575 213 q 578 125 575 157 q 587 64 581 94 q 590 38 590 45 q 565 16 590 24 q 507 3 539 7 q 454 -1 474 -1 q 424 17 433 -1 q 410 66 415 35 q 408 74 409 70 q 406 82 408 78 q 377 47 399 69 q 317 8 355 26 q 229 -10 279 -10 m 288 132 q 352 153 322 132 q 397 208 382 174 l 397 274 q 228 185 228 274 q 244 146 228 161 q 288 132 260 132 z "},"ậ":{"ha":657,"x_min":51,"x_max":590,"o":"m 51 0 m 229 -10 q 94 38 137 -10 q 51 167 51 87 q 76 276 51 227 q 178 357 101 324 q 397 391 254 391 l 397 431 q 374 483 397 466 q 303 500 352 500 q 233 491 262 500 q 170 469 204 483 q 149 460 153 460 q 122 479 136 460 q 96 521 107 497 q 85 557 85 545 q 116 597 85 578 q 199 628 146 616 q 316 640 252 640 q 513 586 452 640 q 575 439 575 532 l 575 213 q 578 125 575 157 q 587 64 581 94 q 590 38 590 45 q 565 16 590 24 q 507 3 539 7 q 454 -1 474 -1 q 424 17 433 -1 q 410 66 415 35 q 408 74 409 70 q 406 82 408 78 q 377 47 399 69 q 317 8 355 26 q 229 -10 279 -10 m 288 132 q 352 153 322 132 q 397 208 382 174 l 397 274 q 228 185 228 274 q 244 146 228 161 q 288 132 260 132 m 188 690 q 169 692 175 690 q 163 701 163 695 q 170 720 163 710 l 249 842 q 274 861 258 857 q 323 865 291 865 l 336 865 q 384 861 368 865 q 410 842 400 857 l 488 720 q 494 701 494 710 q 471 690 494 690 l 444 690 q 362 719 382 690 l 329 767 l 295 720 q 263 696 282 702 q 214 690 243 690 l 188 690 z "},"ầ":{"ha":657,"x_min":51,"x_max":590,"o":"m 544 848 q 486 857 506 848 q 454 879 466 865 l 372 968 q 335 1009 341 1001 q 329 1023 329 1017 q 346 1037 329 1033 q 401 1040 362 1040 q 467 1033 441 1040 q 503 1008 493 1026 l 553 921 q 573 886 566 901 q 581 867 581 872 q 573 852 581 857 q 544 848 566 848 m 188 690 q 169 692 175 690 q 163 701 163 695 q 170 720 163 710 l 249 842 q 274 861 258 857 q 323 865 291 865 l 336 865 q 376 861 362 865 q 397 842 389 857 l 470 720 q 477 701 477 710 q 453 690 477 690 l 426 690 q 372 695 393 690 q 344 719 350 701 l 329 767 l 295 720 q 263 696 282 702 q 214 690 243 690 l 188 690 m 229 -10 q 94 38 137 -10 q 51 167 51 87 q 76 276 51 227 q 178 357 101 324 q 397 391 254 391 l 397 431 q 374 483 397 466 q 303 500 352 500 q 233 491 262 500 q 170 469 204 483 q 149 460 153 460 q 122 479 136 460 q 96 521 107 497 q 85 557 85 545 q 116 597 85 578 q 199 628 146 616 q 316 640 252 640 q 513 586 452 640 q 575 439 575 532 l 575 213 q 578 125 575 157 q 587 64 581 94 q 590 38 590 45 q 565 16 590 24 q 507 3 539 7 q 454 -1 474 -1 q 424 17 433 -1 q 410 66 415 35 q 408 74 409 70 q 406 82 408 78 q 377 47 399 69 q 317 8 355 26 q 229 -10 279 -10 m 288 132 q 352 153 322 132 q 397 208 382 174 l 397 274 q 228 185 228 274 q 244 146 228 161 q 288 132 260 132 z "},"ẩ":{"ha":657,"x_min":51,"x_max":639,"o":"m 519 843 q 490 848 505 843 q 464 859 475 852 q 454 870 454 865 q 461 884 454 876 q 486 904 469 891 q 522 935 509 922 q 534 961 534 947 q 523 980 534 973 q 496 987 511 987 q 459 977 478 987 q 446 972 450 972 q 432 982 441 972 q 416 1003 422 991 q 409 1023 409 1015 q 424 1040 409 1031 q 463 1055 439 1049 q 506 1061 486 1061 q 605 1036 570 1061 q 639 966 639 1010 q 615 908 639 937 q 561 862 591 880 q 519 843 531 843 m 188 690 q 169 692 175 690 q 163 701 163 695 q 170 720 163 710 l 249 842 q 274 861 258 857 q 323 865 291 865 l 336 865 q 376 861 362 865 q 397 842 389 857 l 470 720 q 477 701 477 710 q 453 690 477 690 l 426 690 q 372 695 393 690 q 344 719 350 701 l 329 767 l 295 720 q 263 696 282 702 q 214 690 243 690 l 188 690 m 229 -10 q 94 38 137 -10 q 51 167 51 87 q 76 276 51 227 q 178 357 101 324 q 397 391 254 391 l 397 431 q 374 483 397 466 q 303 500 352 500 q 233 491 262 500 q 170 469 204 483 q 149 460 153 460 q 122 479 136 460 q 96 521 107 497 q 85 557 85 545 q 116 597 85 578 q 199 628 146 616 q 316 640 252 640 q 513 586 452 640 q 575 439 575 532 l 575 213 q 578 125 575 157 q 587 64 581 94 q 590 38 590 45 q 565 16 590 24 q 507 3 539 7 q 454 -1 474 -1 q 424 17 433 -1 q 410 66 415 35 q 408 74 409 70 q 406 82 408 78 q 377 47 399 69 q 317 8 355 26 q 229 -10 279 -10 m 288 132 q 352 153 322 132 q 397 208 382 174 l 397 274 q 228 185 228 274 q 244 146 228 161 q 288 132 260 132 z "},"ẫ":{"ha":657,"x_min":51,"x_max":590,"o":"m 159 916 q 134 948 134 924 q 138 964 134 956 q 181 1025 149 1000 q 257 1049 212 1049 q 291 1044 271 1049 q 342 1030 311 1040 q 381 1020 361 1025 q 411 1014 400 1015 q 447 1034 432 1014 q 463 1049 456 1045 q 477 1054 470 1054 q 492 1051 486 1054 l 504 1048 q 528 1015 528 1040 q 526 998 528 1009 q 482 938 513 963 q 406 913 450 913 q 373 918 393 913 q 321 932 353 923 q 252 949 271 948 q 216 930 231 949 q 184 909 201 909 q 171 911 177 909 l 159 916 m 188 690 q 169 692 175 690 q 163 701 163 695 q 170 720 163 710 l 249 842 q 274 861 258 857 q 323 865 291 865 l 336 865 q 384 861 368 865 q 410 842 400 857 l 488 720 q 494 701 494 710 q 471 690 494 690 l 444 690 q 362 719 382 690 l 329 767 l 295 720 q 263 696 282 702 q 214 690 243 690 l 188 690 m 229 -10 q 94 38 137 -10 q 51 167 51 87 q 76 276 51 227 q 178 357 101 324 q 397 391 254 391 l 397 431 q 374 483 397 466 q 303 500 352 500 q 233 491 262 500 q 170 469 204 483 q 149 460 153 460 q 122 479 136 460 q 96 521 107 497 q 85 557 85 545 q 116 597 85 578 q 199 628 146 616 q 316 640 252 640 q 513 586 452 640 q 575 439 575 532 l 575 213 q 578 125 575 157 q 587 64 581 94 q 590 38 590 45 q 565 16 590 24 q 507 3 539 7 q 454 -1 474 -1 q 424 17 433 -1 q 410 66 415 35 q 408 74 409 70 q 406 82 408 78 q 377 47 399 69 q 317 8 355 26 q 229 -10 279 -10 m 288 132 q 352 153 322 132 q 397 208 382 174 l 397 274 q 228 185 228 274 q 244 146 228 161 q 288 132 260 132 z "},"ä":{"ha":657,"x_min":51,"x_max":590,"o":"m 51 0 m 229 -10 q 94 38 137 -10 q 51 167 51 87 q 76 276 51 227 q 178 357 101 324 q 397 391 254 391 l 397 431 q 374 483 397 466 q 303 500 352 500 q 233 491 262 500 q 170 469 204 483 q 149 460 153 460 q 122 479 136 460 q 96 521 107 497 q 85 557 85 545 q 116 597 85 578 q 199 628 146 616 q 316 640 252 640 q 513 586 452 640 q 575 439 575 532 l 575 213 q 578 125 575 157 q 587 64 581 94 q 590 38 590 45 q 565 16 590 24 q 507 3 539 7 q 454 -1 474 -1 q 424 17 433 -1 q 410 66 415 35 q 408 74 409 70 q 406 82 408 78 q 377 47 399 69 q 317 8 355 26 q 229 -10 279 -10 m 288 132 q 352 153 322 132 q 397 208 382 174 l 397 274 q 228 185 228 274 q 244 146 228 161 q 288 132 260 132 m 221 696 q 149 736 149 696 l 149 808 q 166 837 149 827 q 221 847 184 847 q 276 837 258 847 q 294 808 294 827 l 294 736 q 221 696 294 696 m 439 696 q 366 736 366 696 l 366 808 q 384 837 366 827 q 439 847 401 847 q 493 837 476 847 q 511 808 511 827 l 511 736 q 439 696 511 696 z "},"ạ":{"ha":657,"x_min":51,"x_max":590,"o":"m 51 0 m 229 -10 q 94 38 137 -10 q 51 167 51 87 q 76 276 51 227 q 178 357 101 324 q 397 391 254 391 l 397 431 q 374 483 397 466 q 303 500 352 500 q 233 491 262 500 q 170 469 204 483 q 149 460 153 460 q 122 479 136 460 q 96 521 107 497 q 85 557 85 545 q 116 597 85 578 q 199 628 146 616 q 316 640 252 640 q 513 586 452 640 q 575 439 575 532 l 575 213 q 578 125 575 157 q 587 64 581 94 q 590 38 590 45 q 565 16 590 24 q 507 3 539 7 q 454 -1 474 -1 q 424 17 433 -1 q 410 66 415 35 q 408 74 409 70 q 406 82 408 78 q 377 47 399 69 q 317 8 355 26 q 229 -10 279 -10 m 288 132 q 352 153 322 132 q 397 208 382 174 l 397 274 q 228 185 228 274 q 244 146 228 161 q 288 132 260 132 z "},"à":{"ha":657,"x_min":51,"x_max":590,"o":"m 51 0 m 229 -10 q 94 38 137 -10 q 51 167 51 87 q 76 276 51 227 q 178 357 101 324 q 397 391 254 391 l 397 431 q 374 483 397 466 q 303 500 352 500 q 233 491 262 500 q 170 469 204 483 q 149 460 153 460 q 122 479 136 460 q 96 521 107 497 q 85 557 85 545 q 116 597 85 578 q 199 628 146 616 q 316 640 252 640 q 513 586 452 640 q 575 439 575 532 l 575 213 q 578 125 575 157 q 587 64 581 94 q 590 38 590 45 q 565 16 590 24 q 507 3 539 7 q 454 -1 474 -1 q 424 17 433 -1 q 410 66 415 35 q 408 74 409 70 q 406 82 408 78 q 377 47 399 69 q 317 8 355 26 q 229 -10 279 -10 m 288 132 q 352 153 322 132 q 397 208 382 174 l 397 274 q 228 185 228 274 q 244 146 228 161 q 288 132 260 132 m 384 693 q 326 702 346 693 q 294 724 306 710 l 212 812 q 175 853 181 846 q 169 868 169 861 q 185 881 169 878 q 241 885 202 885 q 307 878 281 885 q 343 852 333 871 l 393 766 q 413 731 406 745 q 421 711 421 717 q 413 697 421 701 q 384 693 406 693 z "},"ả":{"ha":657,"x_min":51,"x_max":590,"o":"m 51 0 m 229 -10 q 94 38 137 -10 q 51 167 51 87 q 76 276 51 227 q 178 357 101 324 q 397 391 254 391 l 397 431 q 374 483 397 466 q 303 500 352 500 q 233 491 262 500 q 170 469 204 483 q 149 460 153 460 q 122 479 136 460 q 96 521 107 497 q 85 557 85 545 q 116 597 85 578 q 199 628 146 616 q 316 640 252 640 q 513 586 452 640 q 575 439 575 532 l 575 213 q 578 125 575 157 q 587 64 581 94 q 590 38 590 45 q 565 16 590 24 q 507 3 539 7 q 454 -1 474 -1 q 424 17 433 -1 q 410 66 415 35 q 408 74 409 70 q 406 82 408 78 q 377 47 399 69 q 317 8 355 26 q 229 -10 279 -10 m 288 132 q 352 153 322 132 q 397 208 382 174 l 397 274 q 228 185 228 274 q 244 146 228 161 q 288 132 260 132 m 359 688 q 330 692 345 688 q 304 704 315 697 q 294 715 294 710 q 301 728 294 721 q 326 749 309 736 q 362 779 349 766 q 374 806 374 792 q 363 825 374 818 q 336 832 351 832 q 299 822 318 832 q 285 817 290 817 q 271 826 280 817 q 256 848 262 836 q 249 868 249 860 q 264 885 249 876 q 302 900 279 894 q 346 906 326 906 q 445 881 410 906 q 479 810 479 855 q 455 753 479 781 q 401 706 431 725 q 359 688 371 688 z "},"ā":{"ha":657,"x_min":51,"x_max":590,"o":"m 51 0 m 229 -10 q 94 38 137 -10 q 51 167 51 87 q 76 276 51 227 q 178 357 101 324 q 397 391 254 391 l 397 431 q 374 483 397 466 q 303 500 352 500 q 233 491 262 500 q 170 469 204 483 q 149 460 153 460 q 122 479 136 460 q 96 521 107 497 q 85 557 85 545 q 116 597 85 578 q 199 628 146 616 q 316 640 252 640 q 513 586 452 640 q 575 439 575 532 l 575 213 q 578 125 575 157 q 587 64 581 94 q 590 38 590 45 q 565 16 590 24 q 507 3 539 7 q 454 -1 474 -1 q 424 17 433 -1 q 410 66 415 35 q 408 74 409 70 q 406 82 408 78 q 377 47 399 69 q 317 8 355 26 q 229 -10 279 -10 m 288 132 q 352 153 322 132 q 397 208 382 174 l 397 274 q 228 185 228 274 q 244 146 228 161 q 288 132 260 132 m 200 720 q 172 731 181 720 q 163 768 163 743 l 163 786 q 172 823 163 811 q 200 834 180 834 l 459 834 q 487 823 478 834 q 496 786 496 811 l 496 768 q 487 731 496 743 q 459 720 478 720 l 200 720 z "},"ą":{"ha":657,"x_min":51,"x_max":729,"o":"m 703 -89 q 722 -97 715 -89 q 729 -123 729 -106 q 630 -183 729 -183 q 517 -143 547 -183 q 488 -60 488 -104 q 498 2 488 -28 q 454 -1 475 -1 q 424 17 433 -1 q 410 66 415 35 q 408 74 409 70 q 406 82 408 78 q 377 47 399 69 q 317 8 355 26 q 229 -10 279 -10 q 94 38 137 -10 q 51 167 51 87 q 76 276 51 227 q 178 357 101 324 q 397 391 254 391 l 397 431 q 374 483 397 466 q 303 500 352 500 q 233 491 262 500 q 170 469 204 483 q 149 460 153 460 q 122 479 136 460 q 96 521 107 497 q 85 557 85 545 q 116 597 85 578 q 199 628 146 616 q 316 640 252 640 q 513 586 452 640 q 575 439 575 532 l 575 213 q 578 125 575 157 q 587 64 581 94 q 590 38 590 45 q 581 24 590 30 q 576 8 581 21 q 571 -13 574 -1 q 568 -37 568 -24 q 590 -87 568 -75 q 644 -98 612 -98 q 678 -93 661 -98 q 703 -89 693 -89 m 397 274 q 228 185 228 274 q 244 146 228 161 q 288 132 260 132 q 352 153 322 132 q 397 208 382 174 l 397 274 z "},"å":{"ha":657,"x_min":51,"x_max":590,"o":"m 51 0 m 229 -10 q 94 38 137 -10 q 51 167 51 87 q 76 276 51 227 q 178 357 101 324 q 397 391 254 391 l 397 431 q 374 483 397 466 q 303 500 352 500 q 233 491 262 500 q 170 469 204 483 q 149 460 153 460 q 122 479 136 460 q 96 521 107 497 q 85 557 85 545 q 116 597 85 578 q 199 628 146 616 q 316 640 252 640 q 513 586 452 640 q 575 439 575 532 l 575 213 q 578 125 575 157 q 587 64 581 94 q 590 38 590 45 q 565 16 590 24 q 507 3 539 7 q 454 -1 474 -1 q 424 17 433 -1 q 410 66 415 35 q 408 74 409 70 q 406 82 408 78 q 377 47 399 69 q 317 8 355 26 q 229 -10 279 -10 m 288 132 q 352 153 322 132 q 397 208 382 174 l 397 274 q 228 185 228 274 q 244 146 228 161 q 288 132 260 132 m 329 663 q 269 679 296 663 q 225 722 241 694 q 210 783 210 749 q 225 843 210 816 q 269 887 241 871 q 329 903 296 903 q 390 887 362 903 q 433 843 417 871 q 449 783 449 816 q 433 722 449 749 q 390 679 417 694 q 329 663 362 663 m 329 738 q 360 750 347 738 q 373 781 373 763 q 360 813 373 800 q 329 826 347 826 q 298 813 311 826 q 285 781 285 800 q 298 750 285 763 q 329 738 311 738 z "},"ǻ":{"ha":657,"x_min":51,"x_max":590,"o":"m 51 0 m 229 -10 q 94 38 137 -10 q 51 167 51 87 q 76 276 51 227 q 178 357 101 324 q 397 391 254 391 l 397 431 q 374 483 397 466 q 303 500 352 500 q 233 491 262 500 q 170 469 204 483 q 149 460 153 460 q 122 479 136 460 q 96 521 107 497 q 85 557 85 545 q 116 597 85 578 q 199 628 146 616 q 316 640 252 640 q 513 586 452 640 q 575 439 575 532 l 575 213 q 578 125 575 157 q 587 64 581 94 q 590 38 590 45 q 565 16 590 24 q 507 3 539 7 q 454 -1 474 -1 q 424 17 433 -1 q 410 66 415 35 q 408 74 409 70 q 406 82 408 78 q 377 47 399 69 q 317 8 355 26 q 229 -10 279 -10 m 288 132 q 352 153 322 132 q 397 208 382 174 l 397 274 q 228 185 228 274 q 244 146 228 161 q 288 132 260 132 m 329 663 q 269 679 296 663 q 225 722 241 694 q 210 783 210 749 q 225 843 210 816 q 269 887 241 871 q 329 903 296 903 q 390 887 362 903 q 433 843 417 871 q 449 783 449 816 q 433 722 449 749 q 390 679 417 694 q 329 663 362 663 m 329 738 q 360 750 347 738 q 373 781 373 763 q 360 813 373 800 q 329 826 347 826 q 298 813 311 826 q 285 781 285 800 q 298 750 285 763 q 329 738 311 738 m 319 922 q 289 926 297 922 q 281 941 281 930 q 290 962 281 946 q 312 1000 298 977 q 359 1082 342 1050 q 396 1107 370 1100 q 462 1114 422 1114 q 517 1111 500 1114 q 534 1097 534 1107 q 528 1083 534 1090 q 491 1042 522 1075 l 409 953 q 376 931 395 939 q 319 922 357 922 z "},"ã":{"ha":657,"x_min":51,"x_max":590,"o":"m 51 0 m 229 -10 q 94 38 137 -10 q 51 167 51 87 q 76 276 51 227 q 178 357 101 324 q 397 391 254 391 l 397 431 q 374 483 397 466 q 303 500 352 500 q 233 491 262 500 q 170 469 204 483 q 149 460 153 460 q 122 479 136 460 q 96 521 107 497 q 85 557 85 545 q 116 597 85 578 q 199 628 146 616 q 316 640 252 640 q 513 586 452 640 q 575 439 575 532 l 575 213 q 578 125 575 157 q 587 64 581 94 q 590 38 590 45 q 565 16 590 24 q 507 3 539 7 q 454 -1 474 -1 q 424 17 433 -1 q 410 66 415 35 q 408 74 409 70 q 406 82 408 78 q 377 47 399 69 q 317 8 355 26 q 229 -10 279 -10 m 288 132 q 352 153 322 132 q 397 208 382 174 l 397 274 q 228 185 228 274 q 244 146 228 161 q 288 132 260 132 m 126 703 q 99 736 99 711 q 102 752 99 744 q 150 812 116 788 q 234 837 184 837 q 271 832 249 837 q 327 818 294 827 q 370 807 349 812 q 404 802 391 802 q 443 821 427 802 q 477 842 460 842 q 492 839 486 842 l 506 836 q 532 803 532 827 q 530 786 532 797 q 481 726 516 751 q 398 701 446 701 q 304 720 374 701 q 229 737 248 736 q 189 718 206 737 q 155 696 172 696 q 139 699 146 696 l 126 703 z "},"æ":{"ha":1000,"x_min":50,"x_max":941,"o":"m 250 -10 q 141 13 186 -10 q 73 76 96 36 q 50 167 50 117 q 75 274 50 226 q 175 356 100 323 q 392 390 251 389 q 410 467 397 432 q 302 500 385 500 q 240 492 269 500 q 180 471 210 484 q 164 465 175 469 q 147 460 153 460 q 120 479 135 460 q 95 521 106 497 q 85 557 85 545 q 115 597 85 578 q 197 628 144 616 q 315 640 250 640 q 509 597 445 640 q 680 640 578 640 q 878 558 814 640 q 941 341 941 477 q 929 315 941 332 q 903 284 918 298 q 882 271 889 271 l 574 271 q 612 164 574 197 q 711 132 651 132 q 771 139 744 132 q 829 159 798 147 q 857 169 851 169 q 883 152 869 169 q 908 112 898 134 q 919 77 919 90 q 881 30 919 50 q 792 0 844 10 q 701 -10 741 -10 q 566 11 625 -10 q 467 73 507 33 q 380 16 437 43 q 250 -10 324 -10 m 767 390 q 744 471 767 441 q 680 500 720 500 q 612 476 642 500 q 572 390 582 452 l 767 390 m 287 132 q 354 146 321 132 q 403 189 387 161 q 389 272 392 226 q 227 185 227 270 q 242 146 227 161 q 287 132 258 132 z "},"ǽ":{"ha":1000,"x_min":50,"x_max":941,"o":"m 50 0 m 250 -10 q 141 13 186 -10 q 73 76 96 36 q 50 167 50 117 q 75 274 50 226 q 175 356 100 323 q 392 390 251 389 q 410 467 397 432 q 302 500 385 500 q 240 492 269 500 q 180 471 210 484 q 164 465 175 469 q 147 460 153 460 q 120 479 135 460 q 95 521 106 497 q 85 557 85 545 q 115 597 85 578 q 197 628 144 616 q 315 640 250 640 q 509 597 445 640 q 680 640 578 640 q 878 558 814 640 q 941 341 941 477 q 929 315 941 332 q 903 284 918 298 q 882 271 889 271 l 574 271 q 612 164 574 197 q 711 132 651 132 q 771 139 744 132 q 829 159 798 147 q 857 169 851 169 q 883 152 869 169 q 908 112 898 134 q 919 77 919 90 q 881 30 919 50 q 792 0 844 10 q 701 -10 741 -10 q 566 11 625 -10 q 467 73 507 33 q 380 16 437 43 q 250 -10 324 -10 m 767 390 q 744 471 767 441 q 680 500 720 500 q 612 476 642 500 q 572 390 582 452 l 767 390 m 287 132 q 354 146 321 132 q 403 189 387 161 q 389 272 392 226 q 227 185 227 270 q 242 146 227 161 q 287 132 258 132 m 454 693 q 425 697 433 693 q 417 711 417 701 q 426 732 417 717 q 448 771 434 748 q 495 852 477 821 q 531 878 505 871 q 597 885 557 885 q 652 881 635 885 q 669 868 669 878 q 663 853 669 861 q 627 812 657 846 l 545 724 q 512 702 531 710 q 454 693 492 693 z "},"b":{"ha":686,"x_min":80,"x_max":635,"o":"m 410 -10 q 313 15 356 -10 q 249 81 271 41 l 245 66 q 236 29 239 40 q 215 4 231 10 q 167 -2 199 -2 l 153 -2 q 80 36 80 -2 l 80 870 q 98 900 80 890 q 153 909 115 909 l 186 909 q 258 870 258 909 l 258 603 q 381 640 309 640 q 518 601 461 640 q 606 488 576 561 q 635 316 635 414 q 607 140 635 214 q 527 28 578 66 q 410 -10 475 -10 m 357 136 q 454 316 454 136 q 342 500 454 500 q 258 477 301 500 l 258 208 q 357 136 300 136 z "},"c":{"ha":585,"x_min":51,"x_max":566,"o":"m 354 -10 q 125 70 200 -10 q 51 311 51 149 q 126 557 51 475 q 361 640 201 640 q 453 630 406 640 q 530 602 499 621 q 561 557 561 583 q 549 523 561 546 q 522 482 537 500 q 496 464 507 464 q 475 473 492 464 q 427 493 450 486 q 370 500 404 500 q 267 455 299 500 q 234 316 234 410 q 265 177 234 222 q 363 132 296 132 q 429 139 401 132 q 481 159 456 147 q 493 164 486 161 q 503 167 500 167 q 530 150 515 167 q 555 110 545 132 q 566 75 566 87 q 525 25 566 44 q 434 -2 484 6 q 354 -10 384 -10 z "},"ć":{"ha":585,"x_min":51,"x_max":566,"o":"m 51 0 m 354 -10 q 125 70 200 -10 q 51 311 51 149 q 126 557 51 475 q 361 640 201 640 q 453 630 406 640 q 530 602 499 621 q 561 557 561 583 q 549 523 561 546 q 522 482 537 500 q 496 464 507 464 q 475 473 492 464 q 427 493 450 486 q 370 500 404 500 q 267 455 299 500 q 234 316 234 410 q 265 177 234 222 q 363 132 296 132 q 429 139 401 132 q 481 159 456 147 q 493 164 486 161 q 503 167 500 167 q 530 150 515 167 q 555 110 545 132 q 566 75 566 87 q 525 25 566 44 q 434 -2 484 6 q 354 -10 384 -10 m 286 693 q 256 697 264 693 q 248 711 248 701 q 257 732 248 717 q 279 771 265 748 q 326 852 309 821 q 362 878 336 871 q 429 885 389 885 q 484 881 467 885 q 500 868 500 878 q 494 853 500 861 q 458 812 488 846 l 376 724 q 343 702 362 710 q 286 693 323 693 z "},"č":{"ha":585,"x_min":51,"x_max":566,"o":"m 51 0 m 354 -10 q 125 70 200 -10 q 51 311 51 149 q 126 557 51 475 q 361 640 201 640 q 453 630 406 640 q 530 602 499 621 q 561 557 561 583 q 549 523 561 546 q 522 482 537 500 q 496 464 507 464 q 475 473 492 464 q 427 493 450 486 q 370 500 404 500 q 267 455 299 500 q 234 316 234 410 q 265 177 234 222 q 363 132 296 132 q 429 139 401 132 q 481 159 456 147 q 493 164 486 161 q 503 167 500 167 q 530 150 515 167 q 555 110 545 132 q 566 75 566 87 q 525 25 566 44 q 434 -2 484 6 q 354 -10 384 -10 m 325 690 q 277 694 294 690 q 251 713 260 698 l 172 836 q 165 854 165 845 q 171 863 165 860 q 190 865 177 865 l 216 865 q 265 859 246 865 q 297 836 284 853 l 331 788 l 364 837 q 396 859 375 853 q 446 865 417 865 l 473 865 q 496 854 496 865 q 490 836 496 845 l 412 713 q 386 694 402 698 q 338 690 369 690 l 325 690 z "},"ç":{"ha":585,"x_min":51,"x_max":566,"o":"m 566 75 q 511 19 566 39 q 391 -7 456 -1 l 380 -44 q 447 -71 419 -49 q 474 -135 474 -93 q 438 -226 474 -196 q 331 -256 403 -256 q 259 -248 296 -256 q 197 -227 222 -241 q 172 -195 172 -214 q 180 -165 172 -177 q 197 -148 187 -153 q 212 -142 206 -142 q 230 -145 219 -142 q 250 -152 240 -149 q 285 -163 269 -159 q 321 -168 302 -168 q 344 -162 337 -168 q 351 -147 351 -157 q 343 -131 351 -137 q 318 -117 335 -125 q 294 -105 302 -111 q 286 -89 286 -98 q 309 -8 286 -81 q 115 82 178 3 q 51 311 51 161 q 126 557 51 475 q 361 640 201 640 q 453 630 406 640 q 530 602 499 621 q 561 557 561 583 q 549 523 561 546 q 522 482 537 500 q 496 464 507 464 q 475 473 492 464 q 427 493 450 486 q 370 500 404 500 q 267 455 299 500 q 234 316 234 410 q 265 177 234 222 q 363 132 296 132 q 429 139 401 132 q 481 159 456 147 q 493 164 486 161 q 503 167 500 167 q 530 150 515 167 q 555 110 545 132 q 566 75 566 87 z "},"ĉ":{"ha":585,"x_min":51,"x_max":566,"o":"m 51 0 m 354 -10 q 125 70 200 -10 q 51 311 51 149 q 126 557 51 475 q 361 640 201 640 q 453 630 406 640 q 530 602 499 621 q 561 557 561 583 q 549 523 561 546 q 522 482 537 500 q 496 464 507 464 q 475 473 492 464 q 427 493 450 486 q 370 500 404 500 q 267 455 299 500 q 234 316 234 410 q 265 177 234 222 q 363 132 296 132 q 429 139 401 132 q 481 159 456 147 q 493 164 486 161 q 503 167 500 167 q 530 150 515 167 q 555 110 545 132 q 566 75 566 87 q 525 25 566 44 q 434 -2 484 6 q 354 -10 384 -10 m 190 690 q 171 692 177 690 q 165 701 165 695 q 172 720 165 710 l 251 842 q 276 861 260 857 q 325 865 293 865 l 338 865 q 386 861 370 865 q 412 842 402 857 l 490 720 q 496 701 496 710 q 473 690 496 690 l 446 690 q 364 719 384 690 l 331 767 l 297 720 q 265 696 284 702 q 216 690 245 690 l 190 690 z "},"ċ":{"ha":585,"x_min":51,"x_max":566,"o":"m 51 0 m 354 -10 q 125 70 200 -10 q 51 311 51 149 q 126 557 51 475 q 361 640 201 640 q 453 630 406 640 q 530 602 499 621 q 561 557 561 583 q 549 523 561 546 q 522 482 537 500 q 496 464 507 464 q 475 473 492 464 q 427 493 450 486 q 370 500 404 500 q 267 455 299 500 q 234 316 234 410 q 265 177 234 222 q 363 132 296 132 q 429 139 401 132 q 481 159 456 147 q 493 164 486 161 q 503 167 500 167 q 530 150 515 167 q 555 110 545 132 q 566 75 566 87 q 525 25 566 44 q 434 -2 484 6 q 354 -10 384 -10 m 332 696 q 259 736 259 696 l 259 808 q 277 837 259 827 q 332 847 294 847 q 386 837 369 847 q 404 808 404 827 l 404 736 q 332 696 404 696 z "},"d":{"ha":682,"x_min":51,"x_max":621,"o":"m 277 -10 q 160 28 211 -10 q 80 140 109 66 q 51 316 51 214 q 81 488 51 414 q 168 601 111 561 q 305 640 225 640 q 428 603 377 640 l 428 870 q 500 909 428 909 l 534 909 q 589 900 572 909 q 606 870 606 890 l 606 213 q 609 125 606 157 q 618 64 612 94 q 621 38 621 45 q 596 16 621 24 q 538 3 570 7 q 486 -1 506 -1 q 457 15 465 -1 q 441 62 448 31 l 437 81 q 373 15 416 41 q 277 -10 330 -10 m 330 136 q 428 208 387 136 l 428 477 q 344 500 385 500 q 231 316 231 500 q 330 136 231 136 z "},"ð":{"ha":686,"x_min":51,"x_max":635,"o":"m 344 -10 q 126 74 201 -10 q 51 316 51 158 q 126 557 51 473 q 344 640 201 640 q 405 635 362 640 q 367 711 393 664 q 293 701 300 701 q 261 716 275 701 q 246 751 246 732 q 272 770 246 768 l 323 778 l 304 802 q 277 839 277 832 q 300 854 277 851 q 328 857 311 854 l 375 862 q 421 849 399 862 q 469 797 442 833 l 551 808 q 581 791 566 808 q 596 757 596 775 q 570 738 596 742 l 515 730 q 600 542 565 653 q 635 316 635 430 q 561 74 635 158 q 344 -10 487 -10 m 344 132 q 428 178 401 132 q 454 316 454 224 q 428 454 454 408 q 344 500 401 500 q 231 316 231 500 q 259 178 231 224 q 344 132 286 132 z "},"ď":{"ha":682,"x_min":51,"x_max":825,"o":"m 51 0 m 277 -10 q 160 28 211 -10 q 80 140 109 66 q 51 316 51 214 q 81 488 51 414 q 168 601 111 561 q 305 640 225 640 q 428 603 377 640 l 428 870 q 500 909 428 909 l 534 909 q 589 900 572 909 q 606 870 606 890 l 606 213 q 609 125 606 157 q 618 64 612 94 q 621 38 621 45 q 596 16 621 24 q 538 3 570 7 q 486 -1 506 -1 q 457 15 465 -1 q 441 62 448 31 l 437 81 q 373 15 416 41 q 277 -10 330 -10 m 330 136 q 428 208 387 136 l 428 477 q 344 500 385 500 q 231 316 231 500 q 330 136 231 136 m 720 616 q 683 623 700 616 q 665 642 665 630 q 668 731 665 680 q 670 791 670 764 q 742 844 670 844 l 765 844 q 810 829 795 844 q 825 791 825 815 q 807 713 825 753 q 763 645 788 673 q 720 616 737 618 z "},"đ":{"ha":682,"x_min":51,"x_max":663,"o":"m 626 819 q 654 807 645 819 q 663 770 663 795 l 663 753 q 654 716 663 728 q 626 704 645 704 l 606 704 l 606 213 q 609 125 606 157 q 618 64 612 94 q 621 38 621 45 q 596 16 621 24 q 538 3 570 7 q 486 -1 506 -1 q 457 15 465 -1 q 441 62 448 31 l 437 81 q 373 15 416 41 q 277 -10 330 -10 q 160 28 211 -10 q 80 140 109 66 q 51 316 51 214 q 81 488 51 414 q 168 601 111 561 q 305 640 225 640 q 428 603 377 640 l 428 704 l 367 704 q 339 715 348 704 q 330 753 330 727 l 330 770 q 339 807 330 795 q 367 819 347 819 l 428 819 l 428 870 q 500 909 428 909 l 534 909 q 589 900 572 909 q 606 870 606 890 l 606 819 l 626 819 m 428 477 q 344 500 385 500 q 231 316 231 500 q 330 136 231 136 q 428 208 387 136 l 428 477 z "},"ḍ":{"ha":682,"x_min":51,"x_max":621,"o":"m 51 0 m 277 -10 q 160 28 211 -10 q 80 140 109 66 q 51 316 51 214 q 81 488 51 414 q 168 601 111 561 q 305 640 225 640 q 428 603 377 640 l 428 870 q 500 909 428 909 l 534 909 q 589 900 572 909 q 606 870 606 890 l 606 213 q 609 125 606 157 q 618 64 612 94 q 621 38 621 45 q 596 16 621 24 q 538 3 570 7 q 486 -1 506 -1 q 457 15 465 -1 q 441 62 448 31 l 437 81 q 373 15 416 41 q 277 -10 330 -10 m 330 136 q 428 208 387 136 l 428 477 q 344 500 385 500 q 231 316 231 500 q 330 136 231 136 z "},"ǳ":{"ha":1271,"x_min":51,"x_max":1236,"o":"m 51 0 m 277 -10 q 160 28 211 -10 q 80 140 109 66 q 51 316 51 214 q 81 488 51 414 q 168 601 111 561 q 305 640 225 640 q 428 603 377 640 l 428 870 q 500 909 428 909 l 534 909 q 589 900 572 909 q 606 870 606 890 l 606 213 q 609 125 606 157 q 618 64 612 94 q 621 38 621 45 q 596 16 621 24 q 538 3 570 7 q 486 -1 506 -1 q 457 15 465 -1 q 441 62 448 31 l 437 81 q 373 15 416 41 q 277 -10 330 -10 m 330 136 q 428 208 387 136 l 428 477 q 344 500 385 500 q 231 316 231 500 q 330 136 231 136 m 749 0 q 734 16 742 0 q 720 54 726 32 q 714 92 714 76 q 718 109 714 103 l 994 490 l 770 490 q 742 504 751 490 q 734 550 734 518 l 734 570 q 742 616 734 602 q 770 631 751 631 l 1196 631 q 1211 615 1202 631 q 1225 576 1219 599 q 1232 538 1232 554 q 1227 519 1232 525 l 954 141 l 1200 141 q 1227 127 1219 141 q 1236 81 1236 113 l 1236 60 q 1227 14 1236 28 q 1200 0 1219 0 l 749 0 z "},"ǆ":{"ha":1271,"x_min":51,"x_max":1236,"o":"m 51 0 m 277 -10 q 160 28 211 -10 q 80 140 109 66 q 51 316 51 214 q 81 488 51 414 q 168 601 111 561 q 305 640 225 640 q 428 603 377 640 l 428 870 q 500 909 428 909 l 534 909 q 589 900 572 909 q 606 870 606 890 l 606 213 q 609 125 606 157 q 618 64 612 94 q 621 38 621 45 q 596 16 621 24 q 538 3 570 7 q 486 -1 506 -1 q 457 15 465 -1 q 441 62 448 31 l 437 81 q 373 15 416 41 q 277 -10 330 -10 m 330 136 q 428 208 387 136 l 428 477 q 344 500 385 500 q 231 316 231 500 q 330 136 231 136 m 749 0 q 734 16 742 0 q 720 54 726 32 q 714 92 714 76 q 718 109 714 103 l 994 490 l 770 490 q 742 504 751 490 q 734 550 734 518 l 734 570 q 742 616 734 602 q 770 631 751 631 l 1196 631 q 1211 615 1202 631 q 1225 576 1219 599 q 1232 538 1232 554 q 1227 519 1232 525 l 954 141 l 1200 141 q 1227 127 1219 141 q 1236 81 1236 113 l 1236 60 q 1227 14 1236 28 q 1200 0 1219 0 l 749 0 m 970 690 q 922 694 939 690 q 897 713 905 698 l 818 836 q 811 854 811 845 q 817 863 811 860 q 836 865 823 865 l 862 865 q 911 859 892 865 q 943 836 930 853 l 977 788 l 1010 837 q 1042 859 1021 853 q 1092 865 1063 865 l 1119 865 q 1142 854 1142 865 q 1135 836 1142 845 l 1057 713 q 1031 694 1048 698 q 983 690 1015 690 l 970 690 z "},"e":{"ha":650,"x_min":51,"x_max":604,"o":"m 366 -10 q 129 75 207 -10 q 51 311 51 160 q 129 561 51 481 q 344 640 207 640 q 493 599 435 640 q 577 488 551 557 q 604 330 604 418 q 592 302 604 319 q 566 272 581 286 q 543 258 551 258 l 235 258 q 276 160 241 189 q 374 132 311 132 q 435 139 408 132 q 494 160 463 147 q 519 169 513 169 q 546 152 532 169 q 571 112 561 134 q 582 77 582 90 q 544 30 582 50 q 455 0 507 10 q 366 -10 404 -10 m 431 377 q 409 466 431 433 q 344 500 387 500 q 235 377 254 500 l 431 377 z "},"é":{"ha":650,"x_min":51,"x_max":604,"o":"m 51 0 m 366 -10 q 129 75 207 -10 q 51 311 51 160 q 129 561 51 481 q 344 640 207 640 q 493 599 435 640 q 577 488 551 557 q 604 330 604 418 q 592 302 604 319 q 566 272 581 286 q 543 258 551 258 l 235 258 q 276 160 241 189 q 374 132 311 132 q 435 139 408 132 q 494 160 463 147 q 519 169 513 169 q 546 152 532 169 q 571 112 561 134 q 582 77 582 90 q 544 30 582 50 q 455 0 507 10 q 366 -10 404 -10 m 431 377 q 409 466 431 433 q 344 500 387 500 q 235 377 254 500 l 431 377 m 280 693 q 251 697 258 693 q 243 711 243 701 q 251 732 243 717 q 273 771 260 748 q 321 852 303 821 q 357 878 331 871 q 423 885 383 885 q 478 881 461 885 q 495 868 495 878 q 489 853 495 861 q 452 812 483 846 l 370 724 q 337 702 357 710 q 280 693 318 693 z "},"ĕ":{"ha":650,"x_min":51,"x_max":604,"o":"m 51 0 m 366 -10 q 129 75 207 -10 q 51 311 51 160 q 129 561 51 481 q 344 640 207 640 q 493 599 435 640 q 577 488 551 557 q 604 330 604 418 q 592 302 604 319 q 566 272 581 286 q 543 258 551 258 l 235 258 q 276 160 241 189 q 374 132 311 132 q 435 139 408 132 q 494 160 463 147 q 519 169 513 169 q 546 152 532 169 q 571 112 561 134 q 582 77 582 90 q 544 30 582 50 q 455 0 507 10 q 366 -10 404 -10 m 431 377 q 409 466 431 433 q 344 500 387 500 q 235 377 254 500 l 431 377 m 326 693 q 235 712 275 693 q 172 763 195 732 q 149 829 149 794 q 160 853 149 845 q 191 862 171 862 q 213 857 205 862 q 231 840 221 852 q 252 821 243 828 q 280 808 262 814 q 326 803 298 803 q 375 809 356 803 q 402 822 393 814 q 424 842 411 829 q 440 857 433 852 q 462 862 448 862 q 492 853 481 862 q 503 829 503 845 q 480 763 503 794 q 417 712 458 732 q 326 693 376 693 z "},"ě":{"ha":650,"x_min":51,"x_max":604,"o":"m 51 0 m 366 -10 q 129 75 207 -10 q 51 311 51 160 q 129 561 51 481 q 344 640 207 640 q 493 599 435 640 q 577 488 551 557 q 604 330 604 418 q 592 302 604 319 q 566 272 581 286 q 543 258 551 258 l 235 258 q 276 160 241 189 q 374 132 311 132 q 435 139 408 132 q 494 160 463 147 q 519 169 513 169 q 546 152 532 169 q 571 112 561 134 q 582 77 582 90 q 544 30 582 50 q 455 0 507 10 q 366 -10 404 -10 m 431 377 q 409 466 431 433 q 344 500 387 500 q 235 377 254 500 l 431 377 m 319 690 q 271 694 288 690 q 245 713 254 698 l 167 836 q 160 854 160 845 q 166 863 160 860 q 184 865 172 865 l 211 865 q 260 859 241 865 q 292 836 279 853 l 326 788 l 359 837 q 391 859 370 853 q 441 865 412 865 l 468 865 q 491 854 491 865 q 484 836 491 845 l 406 713 q 380 694 397 698 q 332 690 363 690 l 319 690 z "},"ê":{"ha":650,"x_min":51,"x_max":604,"o":"m 51 0 m 366 -10 q 129 75 207 -10 q 51 311 51 160 q 129 561 51 481 q 344 640 207 640 q 493 599 435 640 q 577 488 551 557 q 604 330 604 418 q 592 302 604 319 q 566 272 581 286 q 543 258 551 258 l 235 258 q 276 160 241 189 q 374 132 311 132 q 435 139 408 132 q 494 160 463 147 q 519 169 513 169 q 546 152 532 169 q 571 112 561 134 q 582 77 582 90 q 544 30 582 50 q 455 0 507 10 q 366 -10 404 -10 m 431 377 q 409 466 431 433 q 344 500 387 500 q 235 377 254 500 l 431 377 m 184 690 q 166 692 172 690 q 160 701 160 695 q 167 720 160 710 l 245 842 q 271 861 254 857 q 319 865 288 865 l 332 865 q 380 861 364 865 q 406 842 397 857 l 484 720 q 491 701 491 710 q 468 690 491 690 l 441 690 q 359 719 378 690 l 326 767 l 292 720 q 259 696 279 702 q 211 690 240 690 l 184 690 z "},"ế":{"ha":650,"x_min":51,"x_max":655,"o":"m 440 848 q 411 852 418 848 q 403 867 403 857 q 411 888 403 872 q 433 926 420 903 q 481 1008 463 976 q 517 1033 491 1026 q 583 1040 543 1040 q 638 1037 621 1040 q 655 1023 655 1033 q 649 1009 655 1017 q 612 968 643 1001 l 530 879 q 497 857 517 865 q 440 848 478 848 m 184 690 q 166 692 172 690 q 160 701 160 695 q 167 720 160 710 l 245 842 q 271 861 254 857 q 319 865 288 865 l 332 865 q 372 861 359 865 q 394 842 386 857 l 467 720 q 473 701 473 710 q 450 690 473 690 l 422 690 q 368 695 390 690 q 340 719 347 701 l 326 767 l 292 720 q 259 696 279 702 q 211 690 240 690 l 184 690 m 366 -10 q 129 75 207 -10 q 51 311 51 160 q 129 561 51 481 q 344 640 207 640 q 493 599 435 640 q 577 488 551 557 q 604 330 604 418 q 592 302 604 319 q 566 272 581 286 q 543 258 551 258 l 235 258 q 276 160 241 189 q 374 132 311 132 q 435 139 408 132 q 494 160 463 147 q 519 169 513 169 q 546 152 532 169 q 571 112 561 134 q 582 77 582 90 q 544 30 582 50 q 455 0 507 10 q 366 -10 404 -10 m 431 377 q 409 466 431 433 q 344 500 387 500 q 235 377 254 500 l 431 377 z "},"ệ":{"ha":650,"x_min":51,"x_max":604,"o":"m 51 0 m 366 -10 q 129 75 207 -10 q 51 311 51 160 q 129 561 51 481 q 344 640 207 640 q 493 599 435 640 q 577 488 551 557 q 604 330 604 418 q 592 302 604 319 q 566 272 581 286 q 543 258 551 258 l 235 258 q 276 160 241 189 q 374 132 311 132 q 435 139 408 132 q 494 160 463 147 q 519 169 513 169 q 546 152 532 169 q 571 112 561 134 q 582 77 582 90 q 544 30 582 50 q 455 0 507 10 q 366 -10 404 -10 m 431 377 q 409 466 431 433 q 344 500 387 500 q 235 377 254 500 l 431 377 m 184 690 q 166 692 172 690 q 160 701 160 695 q 167 720 160 710 l 245 842 q 271 861 254 857 q 319 865 288 865 l 332 865 q 380 861 364 865 q 406 842 397 857 l 484 720 q 491 701 491 710 q 468 690 491 690 l 441 690 q 359 719 378 690 l 326 767 l 292 720 q 259 696 279 702 q 211 690 240 690 l 184 690 z "},"ề":{"ha":650,"x_min":51,"x_max":604,"o":"m 541 848 q 483 857 503 848 q 450 879 463 865 l 368 968 q 332 1009 338 1001 q 326 1023 326 1017 q 342 1037 326 1033 q 397 1040 359 1040 q 464 1033 437 1040 q 500 1008 490 1026 l 550 921 q 570 886 562 901 q 578 867 578 872 q 570 852 578 857 q 541 848 562 848 m 184 690 q 166 692 172 690 q 160 701 160 695 q 167 720 160 710 l 245 842 q 271 861 254 857 q 319 865 288 865 l 332 865 q 372 861 359 865 q 394 842 386 857 l 467 720 q 473 701 473 710 q 450 690 473 690 l 422 690 q 368 695 390 690 q 340 719 347 701 l 326 767 l 292 720 q 259 696 279 702 q 211 690 240 690 l 184 690 m 366 -10 q 129 75 207 -10 q 51 311 51 160 q 129 561 51 481 q 344 640 207 640 q 493 599 435 640 q 577 488 551 557 q 604 330 604 418 q 592 302 604 319 q 566 272 581 286 q 543 258 551 258 l 235 258 q 276 160 241 189 q 374 132 311 132 q 435 139 408 132 q 494 160 463 147 q 519 169 513 169 q 546 152 532 169 q 571 112 561 134 q 582 77 582 90 q 544 30 582 50 q 455 0 507 10 q 366 -10 404 -10 m 431 377 q 409 466 431 433 q 344 500 387 500 q 235 377 254 500 l 431 377 z "},"ể":{"ha":650,"x_min":51,"x_max":635,"o":"m 515 843 q 487 848 502 843 q 461 859 471 852 q 450 870 450 865 q 458 884 450 876 q 483 904 466 891 q 518 935 506 922 q 531 961 531 947 q 519 980 531 973 q 492 987 508 987 q 456 977 475 987 q 442 972 446 972 q 428 982 437 972 q 412 1003 419 991 q 406 1023 406 1015 q 421 1040 406 1031 q 459 1055 436 1049 q 503 1061 482 1061 q 601 1036 567 1061 q 635 966 635 1010 q 612 908 635 937 q 558 862 588 880 q 515 843 528 843 m 184 690 q 166 692 172 690 q 160 701 160 695 q 167 720 160 710 l 245 842 q 271 861 254 857 q 319 865 288 865 l 332 865 q 372 861 359 865 q 394 842 386 857 l 467 720 q 473 701 473 710 q 450 690 473 690 l 422 690 q 368 695 390 690 q 340 719 347 701 l 326 767 l 292 720 q 259 696 279 702 q 211 690 240 690 l 184 690 m 366 -10 q 129 75 207 -10 q 51 311 51 160 q 129 561 51 481 q 344 640 207 640 q 493 599 435 640 q 577 488 551 557 q 604 330 604 418 q 592 302 604 319 q 566 272 581 286 q 543 258 551 258 l 235 258 q 276 160 241 189 q 374 132 311 132 q 435 139 408 132 q 494 160 463 147 q 519 169 513 169 q 546 152 532 169 q 571 112 561 134 q 582 77 582 90 q 544 30 582 50 q 455 0 507 10 q 366 -10 404 -10 m 431 377 q 409 466 431 433 q 344 500 387 500 q 235 377 254 500 l 431 377 z "},"ễ":{"ha":650,"x_min":51,"x_max":604,"o":"m 155 916 q 131 948 131 924 q 134 964 131 956 q 177 1025 146 1000 q 254 1049 209 1049 q 287 1044 267 1049 q 338 1030 307 1040 q 377 1020 358 1025 q 408 1014 397 1015 q 444 1034 429 1014 q 459 1049 452 1045 q 474 1054 467 1054 q 488 1051 482 1054 l 500 1048 q 525 1015 525 1040 q 522 998 525 1009 q 478 938 510 963 q 403 913 447 913 q 369 918 389 913 q 318 932 349 923 q 249 949 268 948 q 212 930 228 949 q 181 909 197 909 q 168 911 174 909 l 155 916 m 184 690 q 166 692 172 690 q 160 701 160 695 q 167 720 160 710 l 245 842 q 271 861 254 857 q 319 865 288 865 l 332 865 q 380 861 364 865 q 406 842 397 857 l 484 720 q 491 701 491 710 q 468 690 491 690 l 441 690 q 359 719 378 690 l 326 767 l 292 720 q 259 696 279 702 q 211 690 240 690 l 184 690 m 366 -10 q 129 75 207 -10 q 51 311 51 160 q 129 561 51 481 q 344 640 207 640 q 493 599 435 640 q 577 488 551 557 q 604 330 604 418 q 592 302 604 319 q 566 272 581 286 q 543 258 551 258 l 235 258 q 276 160 241 189 q 374 132 311 132 q 435 139 408 132 q 494 160 463 147 q 519 169 513 169 q 546 152 532 169 q 571 112 561 134 q 582 77 582 90 q 544 30 582 50 q 455 0 507 10 q 366 -10 404 -10 m 431 377 q 409 466 431 433 q 344 500 387 500 q 235 377 254 500 l 431 377 z "},"ë":{"ha":650,"x_min":51,"x_max":604,"o":"m 51 0 m 366 -10 q 129 75 207 -10 q 51 311 51 160 q 129 561 51 481 q 344 640 207 640 q 493 599 435 640 q 577 488 551 557 q 604 330 604 418 q 592 302 604 319 q 566 272 581 286 q 543 258 551 258 l 235 258 q 276 160 241 189 q 374 132 311 132 q 435 139 408 132 q 494 160 463 147 q 519 169 513 169 q 546 152 532 169 q 571 112 561 134 q 582 77 582 90 q 544 30 582 50 q 455 0 507 10 q 366 -10 404 -10 m 431 377 q 409 466 431 433 q 344 500 387 500 q 235 377 254 500 l 431 377 m 218 696 q 146 736 146 696 l 146 808 q 163 837 146 827 q 218 847 180 847 q 273 837 255 847 q 290 808 290 827 l 290 736 q 218 696 290 696 m 435 696 q 363 736 363 696 l 363 808 q 380 837 363 827 q 435 847 398 847 q 490 837 473 847 q 507 808 507 827 l 507 736 q 435 696 507 696 z "},"ė":{"ha":650,"x_min":51,"x_max":604,"o":"m 51 0 m 366 -10 q 129 75 207 -10 q 51 311 51 160 q 129 561 51 481 q 344 640 207 640 q 493 599 435 640 q 577 488 551 557 q 604 330 604 418 q 592 302 604 319 q 566 272 581 286 q 543 258 551 258 l 235 258 q 276 160 241 189 q 374 132 311 132 q 435 139 408 132 q 494 160 463 147 q 519 169 513 169 q 546 152 532 169 q 571 112 561 134 q 582 77 582 90 q 544 30 582 50 q 455 0 507 10 q 366 -10 404 -10 m 431 377 q 409 466 431 433 q 344 500 387 500 q 235 377 254 500 l 431 377 m 326 696 q 254 736 254 696 l 254 808 q 271 837 254 827 q 326 847 289 847 q 381 837 363 847 q 398 808 398 827 l 398 736 q 326 696 398 696 z "},"ẹ":{"ha":650,"x_min":51,"x_max":604,"o":"m 51 0 m 366 -10 q 129 75 207 -10 q 51 311 51 160 q 129 561 51 481 q 344 640 207 640 q 493 599 435 640 q 577 488 551 557 q 604 330 604 418 q 592 302 604 319 q 566 272 581 286 q 543 258 551 258 l 235 258 q 276 160 241 189 q 374 132 311 132 q 435 139 408 132 q 494 160 463 147 q 519 169 513 169 q 546 152 532 169 q 571 112 561 134 q 582 77 582 90 q 544 30 582 50 q 455 0 507 10 q 366 -10 404 -10 m 431 377 q 409 466 431 433 q 344 500 387 500 q 235 377 254 500 l 431 377 z "},"è":{"ha":650,"x_min":51,"x_max":604,"o":"m 51 0 m 366 -10 q 129 75 207 -10 q 51 311 51 160 q 129 561 51 481 q 344 640 207 640 q 493 599 435 640 q 577 488 551 557 q 604 330 604 418 q 592 302 604 319 q 566 272 581 286 q 543 258 551 258 l 235 258 q 276 160 241 189 q 374 132 311 132 q 435 139 408 132 q 494 160 463 147 q 519 169 513 169 q 546 152 532 169 q 571 112 561 134 q 582 77 582 90 q 544 30 582 50 q 455 0 507 10 q 366 -10 404 -10 m 431 377 q 409 466 431 433 q 344 500 387 500 q 235 377 254 500 l 431 377 m 380 693 q 322 702 342 693 q 290 724 302 710 l 208 812 q 172 853 178 846 q 165 868 165 861 q 182 881 165 878 q 237 885 199 885 q 303 878 277 885 q 340 852 330 871 l 390 766 q 410 731 402 745 q 418 711 418 717 q 410 697 418 701 q 380 693 402 693 z "},"ẻ":{"ha":650,"x_min":51,"x_max":604,"o":"m 51 0 m 366 -10 q 129 75 207 -10 q 51 311 51 160 q 129 561 51 481 q 344 640 207 640 q 493 599 435 640 q 577 488 551 557 q 604 330 604 418 q 592 302 604 319 q 566 272 581 286 q 543 258 551 258 l 235 258 q 276 160 241 189 q 374 132 311 132 q 435 139 408 132 q 494 160 463 147 q 519 169 513 169 q 546 152 532 169 q 571 112 561 134 q 582 77 582 90 q 544 30 582 50 q 455 0 507 10 q 366 -10 404 -10 m 431 377 q 409 466 431 433 q 344 500 387 500 q 235 377 254 500 l 431 377 m 355 688 q 327 692 342 688 q 301 704 311 697 q 290 715 290 710 q 298 728 290 721 q 323 749 306 736 q 358 779 346 766 q 371 806 371 792 q 359 825 371 818 q 332 832 348 832 q 296 822 315 832 q 281 817 286 817 q 268 826 277 817 q 252 848 259 836 q 245 868 245 860 q 261 885 245 876 q 299 900 276 894 q 342 906 322 906 q 441 881 407 906 q 475 810 475 855 q 452 753 475 781 q 398 706 428 725 q 355 688 368 688 z "},"ē":{"ha":650,"x_min":51,"x_max":604,"o":"m 51 0 m 366 -10 q 129 75 207 -10 q 51 311 51 160 q 129 561 51 481 q 344 640 207 640 q 493 599 435 640 q 577 488 551 557 q 604 330 604 418 q 592 302 604 319 q 566 272 581 286 q 543 258 551 258 l 235 258 q 276 160 241 189 q 374 132 311 132 q 435 139 408 132 q 494 160 463 147 q 519 169 513 169 q 546 152 532 169 q 571 112 561 134 q 582 77 582 90 q 544 30 582 50 q 455 0 507 10 q 366 -10 404 -10 m 431 377 q 409 466 431 433 q 344 500 387 500 q 235 377 254 500 l 431 377 m 197 720 q 169 731 178 720 q 160 768 160 743 l 160 786 q 169 823 160 811 q 197 834 177 834 l 456 834 q 484 823 475 834 q 492 786 492 811 l 492 768 q 484 731 492 743 q 456 720 475 720 l 197 720 z "},"ę":{"ha":650,"x_min":51,"x_max":675,"o":"m 648 -110 q 668 -118 661 -110 q 675 -144 675 -127 q 576 -204 675 -204 q 463 -164 492 -204 q 434 -81 434 -125 q 438 -42 434 -64 q 452 -1 442 -19 q 366 -10 402 -10 q 129 75 207 -10 q 51 311 51 160 q 129 561 51 481 q 344 640 207 640 q 493 599 435 640 q 577 488 551 557 q 604 330 604 418 q 592 302 604 319 q 566 272 581 286 q 543 258 551 258 l 235 258 q 276 160 241 189 q 374 132 311 132 q 435 139 408 132 q 494 160 463 147 q 519 169 513 169 q 546 152 532 169 q 571 112 561 134 q 582 77 582 90 q 526 21 582 45 q 528 11 528 14 q 522 -12 528 4 q 516 -36 518 -26 q 514 -58 514 -45 q 536 -108 514 -96 q 589 -119 558 -119 q 624 -114 606 -119 q 648 -110 639 -110 m 344 500 q 235 377 254 500 l 431 377 q 409 466 431 433 q 344 500 387 500 z "},"ẽ":{"ha":650,"x_min":51,"x_max":604,"o":"m 51 0 m 366 -10 q 129 75 207 -10 q 51 311 51 160 q 129 561 51 481 q 344 640 207 640 q 493 599 435 640 q 577 488 551 557 q 604 330 604 418 q 592 302 604 319 q 566 272 581 286 q 543 258 551 258 l 235 258 q 276 160 241 189 q 374 132 311 132 q 435 139 408 132 q 494 160 463 147 q 519 169 513 169 q 546 152 532 169 q 571 112 561 134 q 582 77 582 90 q 544 30 582 50 q 455 0 507 10 q 366 -10 404 -10 m 431 377 q 409 466 431 433 q 344 500 387 500 q 235 377 254 500 l 431 377 m 123 703 q 96 736 96 711 q 99 752 96 744 q 147 812 113 788 q 231 837 181 837 q 268 832 245 837 q 323 818 290 827 q 367 807 345 812 q 400 802 388 802 q 439 821 423 802 q 473 842 456 842 q 488 839 482 842 l 503 836 q 529 803 529 827 q 526 786 529 797 q 478 726 513 751 q 395 701 443 701 q 301 720 370 701 q 225 737 244 736 q 185 718 203 737 q 151 696 168 696 q 136 699 143 696 l 123 703 z "},"f":{"ha":392,"x_min":38,"x_max":392,"o":"m 168 -2 q 96 36 96 -2 l 96 490 l 74 490 q 46 504 55 490 q 38 550 38 518 l 38 570 q 46 616 38 602 q 74 631 55 631 l 96 631 l 96 721 q 272 916 96 916 q 392 857 392 916 q 387 828 392 850 q 373 788 382 806 q 354 770 365 770 q 339 772 348 770 q 317 775 326 775 q 284 763 294 775 q 274 724 274 751 l 274 631 l 334 631 q 362 616 353 631 q 370 570 370 602 l 370 550 q 362 504 370 518 q 334 490 353 490 l 274 490 l 274 36 q 201 -2 274 -2 l 168 -2 z "},"g":{"ha":659,"x_min":29,"x_max":646,"o":"m 316 -256 q 29 -89 29 -256 q 57 -6 29 -42 q 139 51 85 30 l 140 56 q 102 92 115 68 q 88 146 88 116 q 107 202 88 176 q 161 246 125 228 q 89 317 115 272 q 62 426 62 361 q 134 588 62 536 q 322 640 205 640 q 415 631 371 640 l 609 631 q 637 616 628 631 q 646 570 646 602 l 646 550 q 616 493 646 493 q 589 494 606 493 q 564 498 572 496 l 562 493 q 576 463 570 482 q 581 426 581 444 q 513 266 581 318 q 336 213 446 213 q 262 180 262 213 q 277 156 262 165 q 315 143 292 148 q 382 133 338 138 q 440 125 413 130 q 576 70 526 108 q 627 -51 627 31 q 589 -159 627 -113 q 479 -230 550 -205 q 316 -256 409 -256 m 322 341 q 388 362 362 341 q 413 426 413 383 q 388 490 413 469 q 322 511 362 511 q 257 490 282 511 q 231 426 231 469 q 257 362 231 383 q 322 341 282 341 m 330 -115 q 422 -99 391 -115 q 454 -56 454 -83 q 436 -25 454 -37 q 378 -7 418 -14 q 267 5 338 0 q 220 -24 237 -6 q 203 -60 203 -41 q 234 -100 203 -86 q 330 -115 265 -115 z "},"ğ":{"ha":659,"x_min":29,"x_max":646,"o":"m 29 0 m 316 -256 q 29 -89 29 -256 q 57 -6 29 -42 q 139 51 85 30 l 140 56 q 102 92 115 68 q 88 146 88 116 q 107 202 88 176 q 161 246 125 228 q 89 317 115 272 q 62 426 62 361 q 134 588 62 536 q 322 640 205 640 q 415 631 371 640 l 609 631 q 637 616 628 631 q 646 570 646 602 l 646 550 q 616 493 646 493 q 589 494 606 493 q 564 498 572 496 l 562 493 q 576 463 570 482 q 581 426 581 444 q 513 266 581 318 q 336 213 446 213 q 262 180 262 213 q 277 156 262 165 q 315 143 292 148 q 382 133 338 138 q 440 125 413 130 q 576 70 526 108 q 627 -51 627 31 q 589 -159 627 -113 q 479 -230 550 -205 q 316 -256 409 -256 m 322 341 q 388 362 362 341 q 413 426 413 383 q 388 490 413 469 q 322 511 362 511 q 257 490 282 511 q 231 426 231 469 q 257 362 231 383 q 322 341 282 341 m 330 -115 q 422 -99 391 -115 q 454 -56 454 -83 q 436 -25 454 -37 q 378 -7 418 -14 q 267 5 338 0 q 220 -24 237 -6 q 203 -60 203 -41 q 234 -100 203 -86 q 330 -115 265 -115 m 330 693 q 238 712 279 693 q 175 763 198 732 q 153 829 153 794 q 163 853 153 845 q 195 862 174 862 q 216 857 208 862 q 235 840 224 852 q 256 821 246 828 q 283 808 265 814 q 330 803 301 803 q 378 809 359 803 q 406 822 397 814 q 427 842 414 829 q 444 857 436 852 q 465 862 452 862 q 496 853 485 862 q 507 829 507 845 q 484 763 507 794 q 420 712 461 732 q 330 693 380 693 z "}}}
